STARTFONT 2.1
COMMENT @(#)98  1.2.1.1  src/bos/usr/lpp/tls/fonts/Chtp312.bdf, cmdtw, bos411, 9434B411a 8/24/94 19:20:16
COMMENT
COMMENT COMPONENT_NAME: CMDTW
COMMENT
COMMENT FUNCTIONS: none
COMMENT
COMMENT ORIGINS: 27
COMMENT
COMMENT
COMMENT (C) COPYRIGHT International Business Machines Corp. 1993
COMMENT All Rights Reserved
COMMENT Licensed Materials - Property of IBM
COMMENT US Government Users Restricted Rights - Use, duplication or
COMMENT disclosure restricted by GSA ADP Schedule Contract with IBM Corp.
COMMENT
FONT -IBM_AIX-Sung-Medium-R-Normal--19-120-100-100-M-180-CNS11643.1992-3
SIZE 12 100 100
FONTBOUNDINGBOX 18 19 0 -1
STARTPROPERTIES 26
FONTNAME_REGISTRY "_"
_FOUNDRY "IBM_AIX "
FAMILY_NAME "Sung"
_WEIGHT_NAME "Medium "
SLANT "R"
SETWIDTH_NAME "Normal"
ADD_STYLE_NAME ""
PIXEL_SIZE 19
POINT_SIZE 120
RESOLUTION_X 100
RESOLUTION_Y 100
SPACING "M"
AVERAGE_WIDTH 180
CHARSET_REGISTRY "CNS11643.1992"
CHARSET_ENCODING "3"
CAP_HEIGHT 19
COPYRIGHT "Copyright, 1992 by IBM."
FOUNDRY "IBM_AIX"
WEIGHT_NAME "Medium"
X_HEIGHT 18
WEIGHT 10
RESOLUTION 138
QUAD_WIDTH 18
DEFAULT_CHAR 0
FONT_ASCENT 18
FONT_DESCENT 1
ENDPROPERTIES
CHARS 6148
STARTCHAR 2121
ENCODING 8481
SWIDTH 1500 0
DWIDTH 18 0
BBX 18 19 0 -1
BITMAP
000000
008000
008000
008000
008000
008000
008000
008000
008000
008000
008000
008000
008000
008000
008000
008000
008000
000000
000000
ENDCHAR
STARTCHAR 2122
ENCODING 8482
SWIDTH 1500 0
DWIDTH 18 0
BBX 18 19 0 -1
BITMAP
000000
000000
000000
000000
040000
020000
010000
008000
004000
004000
002000
002000
002000
000000
000000
000000
000000
000000
000000
ENDCHAR
STARTCHAR 2123
ENCODING 8483
SWIDTH 1500 0
DWIDTH 18 0
BBX 18 19 0 -1
BITMAP
000000
008000
008000
008000
008000
008000
008000
008000
008000
008000
008000
010000
010000
020000
040000
080000
100000
000000
000000
ENDCHAR
STARTCHAR 2124
ENCODING 8484
SWIDTH 1500 0
DWIDTH 18 0
BBX 18 19 0 -1
BITMAP
000000
008000
008000
008000
008000
008000
008000
008000
008000
008000
008000
008000
008000
008000
008000
008000
078000
000000
000000
ENDCHAR
STARTCHAR 2125
ENCODING 8485
SWIDTH 1500 0
DWIDTH 18 0
BBX 18 19 0 -1
BITMAP
000000
000000
7fff00
008000
008000
008000
008000
008000
008000
008000
008000
008000
008000
008000
008000
008000
008000
000000
000000
ENDCHAR
STARTCHAR 2126
ENCODING 8486
SWIDTH 1500 0
DWIDTH 18 0
BBX 18 19 0 -1
BITMAP
000000
008000
008000
008000
008000
008000
008000
008000
008000
008000
008000
008000
008000
008000
008000
7fff00
000000
000000
000000
ENDCHAR
STARTCHAR 2127
ENCODING 8487
SWIDTH 1500 0
DWIDTH 18 0
BBX 18 19 0 -1
BITMAP
000000
000000
3ffe00
200200
200200
200200
200200
200200
200200
200200
200200
200200
200200
200200
200200
200200
200c00
000000
000000
ENDCHAR
STARTCHAR 2128
ENCODING 8488
SWIDTH 1500 0
DWIDTH 18 0
BBX 18 19 0 -1
BITMAP
000000
000000
000000
000000
200000
3fff00
200100
400200
400400
000000
000000
000000
000000
000000
000000
000000
000000
000000
000000
ENDCHAR
STARTCHAR 2129
ENCODING 8489
SWIDTH 1500 0
DWIDTH 18 0
BBX 18 19 0 -1
BITMAP
000000
000000
7fff00
200000
200000
200000
200000
200000
200000
200000
200000
200000
200000
200000
200000
1fff00
000000
000000
000000
ENDCHAR
STARTCHAR 212a
ENCODING 8490
SWIDTH 1500 0
DWIDTH 18 0
BBX 18 19 0 -1
BITMAP
000000
000000
0ff800
080800
080800
080800
080800
080800
080800
080800
080800
08f000
080000
080000
080000
080000
080000
000000
000000
ENDCHAR
STARTCHAR 212b
ENCODING 8491
SWIDTH 1500 0
DWIDTH 18 0
BBX 18 19 0 -1
BITMAP
000000
000000
008000
010000
010000
020000
020000
040000
040000
080800
100400
103e00
23e200
7e0100
000100
000000
000000
000000
000000
ENDCHAR
STARTCHAR 212c
ENCODING 8492
SWIDTH 1500 0
DWIDTH 18 0
BBX 18 19 0 -1
BITMAP
000000
008000
014000
022000
049000
088800
108400
208200
408100
008000
008000
008000
008000
008000
008000
008000
008000
000000
000000
ENDCHAR
STARTCHAR 212d
ENCODING 8493
SWIDTH 1500 0
DWIDTH 18 0
BBX 18 19 0 -1
BITMAP
000000
040000
040000
080000
0fff00
104000
204000
404000
004000
004000
004000
004000
004000
004000
004000
004000
03c000
000000
000000
ENDCHAR
STARTCHAR 212e
ENCODING 8494
SWIDTH 1500 0
DWIDTH 18 0
BBX 18 19 0 -1
BITMAP
000000
000000
010400
108400
104400
084800
080800
041000
021000
022000
014000
008000
014000
022000
041800
180600
600100
000000
000000
ENDCHAR
STARTCHAR 212f
ENCODING 8495
SWIDTH 1500 0
DWIDTH 18 0
BBX 18 19 0 -1
BITMAP
000000
008000
010000
020000
040000
0fe000
082000
082000
082000
082000
082000
082000
082000
102200
102200
202200
401e00
000000
000000
ENDCHAR
STARTCHAR 2130
ENCODING 8496
SWIDTH 1500 0
DWIDTH 18 0
BBX 18 19 0 -1
BITMAP
000000
000800
040800
041000
081000
082000
102000
204000
7f8000
008000
014000
022000
041000
080800
100400
200200
400100
000000
000000
ENDCHAR
STARTCHAR 2131
ENCODING 8497
SWIDTH 1500 0
DWIDTH 18 0
BBX 18 19 0 -1
BITMAP
000000
000000
1ffc00
000000
000000
000000
7fff00
020000
040000
080000
0ffe00
000200
000200
000200
000200
000400
003800
000000
000000
ENDCHAR
STARTCHAR 2132
ENCODING 8498
SWIDTH 1500 0
DWIDTH 18 0
BBX 18 19 0 -1
BITMAP
000000
000000
008000
008000
014000
014000
022000
022000
041000
080800
100400
200200
4ff900
000000
000000
000000
000000
000000
000000
ENDCHAR
STARTCHAR 2133
ENCODING 8499
SWIDTH 1500 0
DWIDTH 18 0
BBX 18 19 0 -1
BITMAP
000000
004000
404000
404000
408000
408000
414000
412000
412000
421000
420800
440800
480400
500200
400000
3fff00
000000
000000
000000
ENDCHAR
STARTCHAR 2134
ENCODING 8500
SWIDTH 1500 0
DWIDTH 18 0
BBX 18 19 0 -1
BITMAP
000000
010000
408000
404000
404000
404000
40a000
40a000
411000
421000
420800
440800
480400
500200
400000
3fff00
000000
000000
000000
ENDCHAR
STARTCHAR 2135
ENCODING 8501
SWIDTH 1500 0
DWIDTH 18 0
BBX 18 19 0 -1
BITMAP
000000
008000
008000
008000
008000
07f000
041000
041000
041000
041000
041000
041000
081000
081100
101100
200f00
400000
000000
000000
ENDCHAR
STARTCHAR 2136
ENCODING 8502
SWIDTH 1500 0
DWIDTH 18 0
BBX 18 19 0 -1
BITMAP
000000
000000
3ff800
010800
010800
010800
110800
090800
050800
030800
010800
02c800
023800
040f00
080800
101000
606000
000000
000000
ENDCHAR
STARTCHAR 2137
ENCODING 8503
SWIDTH 1500 0
DWIDTH 18 0
BBX 18 19 0 -1
BITMAP
000000
081000
081000
081000
7f9000
089000
089000
089000
089000
089000
089000
109000
109000
109100
209100
411100
0e0f00
000000
000000
ENDCHAR
STARTCHAR 2138
ENCODING 8504
SWIDTH 1500 0
DWIDTH 18 0
BBX 18 19 0 -1
BITMAP
000000
041000
041000
041000
041000
041000
041000
041000
7fff00
041000
041000
041000
041000
041000
041000
041000
041000
000000
000000
ENDCHAR
STARTCHAR 2139
ENCODING 8505
SWIDTH 1500 0
DWIDTH 18 0
BBX 18 19 0 -1
BITMAP
000000
040000
040000
040000
0ff800
080800
140800
241000
421000
022000
014000
008000
014000
022000
041000
080c00
300300
000000
000000
ENDCHAR
STARTCHAR 213a
ENCODING 8506
SWIDTH 1500 0
DWIDTH 18 0
BBX 18 19 0 -1
BITMAP
000000
020000
020000
440000
27f800
180800
080800
141000
221000
422000
014000
008000
014000
022000
041000
080c00
300300
000000
000000
ENDCHAR
STARTCHAR 213b
ENCODING 8507
SWIDTH 1500 0
DWIDTH 18 0
BBX 18 19 0 -1
BITMAP
000000
020000
010000
008000
208000
3fff00
200100
400100
400200
000000
000000
000000
000000
000000
000000
000000
000000
000000
000000
ENDCHAR
STARTCHAR 213c
ENCODING 8508
SWIDTH 1500 0
DWIDTH 18 0
BBX 18 19 0 -1
BITMAP
000000
000000
042100
084200
084200
108400
108400
210800
421000
210800
210800
108400
108400
084200
084200
000000
000000
000000
000000
ENDCHAR
STARTCHAR 213d
ENCODING 8509
SWIDTH 1500 0
DWIDTH 18 0
BBX 18 19 0 -1
BITMAP
000000
000000
002000
004000
008000
010400
020800
041000
182000
064000
018000
011000
020800
040400
08fa00
3f8200
000200
000000
000000
ENDCHAR
STARTCHAR 213e
ENCODING 8510
SWIDTH 1500 0
DWIDTH 18 0
BBX 18 19 0 -1
BITMAP
000000
008000
004000
3fff00
200000
200000
200000
200000
200000
200000
200000
200000
200000
200000
400000
400000
000000
000000
000000
ENDCHAR
STARTCHAR 213f
ENCODING 8511
SWIDTH 1500 0
DWIDTH 18 0
BBX 18 19 0 -1
BITMAP
000000
000000
7c0000
040000
080000
080000
100000
3c0000
040000
040000
440000
480000
280000
100000
280000
460000
01ff00
000000
000000
ENDCHAR
STARTCHAR 2140
ENCODING 8512
SWIDTH 1500 0
DWIDTH 18 0
BBX 18 19 0 -1
BITMAP
000000
000000
000000
1ff800
000800
000800
000800
000800
1ff800
000800
000800
000800
000800
000800
7fff00
000000
000000
000000
000000
ENDCHAR
STARTCHAR 2141
ENCODING 8513
SWIDTH 1500 0
DWIDTH 18 0
BBX 18 19 0 -1
BITMAP
000000
040000
040000
040000
07f800
080800
080800
080800
081000
101000
1fd000
102000
002000
002000
002000
7fff00
000000
000000
000000
ENDCHAR
STARTCHAR 2142
ENCODING 8514
SWIDTH 1500 0
DWIDTH 18 0
BBX 18 19 0 -1
BITMAP
000000
000000
003000
00c000
070000
380000
000c00
003000
00c000
070000
380000
000300
000c00
003000
01c000
0e0000
700000
000000
000000
ENDCHAR
STARTCHAR 2143
ENCODING 8515
SWIDTH 1500 0
DWIDTH 18 0
BBX 18 19 0 -1
BITMAP
000000
000000
07f000
041000
042000
044000
048000
044000
042000
041000
041000
041000
041000
041000
05e000
040000
040000
000000
000000
ENDCHAR
STARTCHAR 2144
ENCODING 8516
SWIDTH 1500 0
DWIDTH 18 0
BBX 18 19 0 -1
BITMAP
000000
004800
004400
004400
004000
7fff00
004000
084000
084000
044000
048000
028000
010000
028000
046000
081800
300700
000000
000000
ENDCHAR
STARTCHAR 2145
ENCODING 8517
SWIDTH 1500 0
DWIDTH 18 0
BBX 18 19 0 -1
BITMAP
000000
082000
082000
102000
102000
222000
422000
242000
142000
082000
102000
122000
212000
4f2100
712100
012100
001f00
000000
000000
ENDCHAR
STARTCHAR 2146
ENCODING 8518
SWIDTH 1500 0
DWIDTH 18 0
BBX 18 19 0 -1
BITMAP
000000
082000
082000
082000
492000
492000
492000
492000
492000
492000
492000
492000
492000
7f2100
412100
002100
001f00
000000
000000
ENDCHAR
STARTCHAR 2147
ENCODING 8519
SWIDTH 1500 0
DWIDTH 18 0
BBX 18 19 0 -1
BITMAP
000000
010000
008000
008000
7fff00
041000
041000
041000
041000
041000
041000
041000
081000
081000
101000
201000
401000
000000
000000
ENDCHAR
STARTCHAR 2148
ENCODING 8520
SWIDTH 1500 0
DWIDTH 18 0
BBX 18 19 0 -1
BITMAP
000000
008000
008000
008000
3ffe00
208200
208200
208200
214200
222200
241200
280a00
200200
200200
200200
200200
201c00
000000
000000
ENDCHAR
STARTCHAR 2149
ENCODING 8521
SWIDTH 1500 0
DWIDTH 18 0
BBX 18 19 0 -1
BITMAP
000000
080000
0bfc00
108400
108400
208400
308400
508800
504800
104800
105000
102000
103000
104800
108400
110300
160000
000000
000000
ENDCHAR
STARTCHAR 214a
ENCODING 8522
SWIDTH 1500 0
DWIDTH 18 0
BBX 18 19 0 -1
BITMAP
000000
040000
041000
081000
081000
102000
182000
282000
484000
084000
084000
088400
088200
090200
091f00
0be100
080100
000000
000000
ENDCHAR
STARTCHAR 214b
ENCODING 8523
SWIDTH 1500 0
DWIDTH 18 0
BBX 18 19 0 -1
BITMAP
000000
040800
040800
040800
040800
081000
081000
081000
0c2800
142800
122800
124400
224400
228400
408200
410200
020100
000000
000000
ENDCHAR
STARTCHAR 214c
ENCODING 8524
SWIDTH 1500 0
DWIDTH 18 0
BBX 18 19 0 -1
BITMAP
000000
008000
008000
008000
014000
014000
022000
041000
188c00
608300
008000
014000
012000
022000
041000
080c00
300300
000000
000000
ENDCHAR
STARTCHAR 214d
ENCODING 8525
SWIDTH 1500 0
DWIDTH 18 0
BBX 18 19 0 -1
BITMAP
000000
000000
0ff800
080800
080800
080800
7fff00
080800
080800
080800
7fff00
080800
080800
080800
080800
080800
083800
000000
000000
ENDCHAR
STARTCHAR 214e
ENCODING 8526
SWIDTH 1500 0
DWIDTH 18 0
BBX 18 19 0 -1
BITMAP
000000
000000
1ffc00
108400
108400
108400
108400
108400
108400
1ffc00
100400
100400
100400
100400
100400
100400
101c00
000000
000000
ENDCHAR
STARTCHAR 214f
ENCODING 8527
SWIDTH 1500 0
DWIDTH 18 0
BBX 18 19 0 -1
BITMAP
000000
200000
3fff00
200100
400100
441200
041000
041000
041000
041000
041000
041000
081100
081100
101100
201f00
400000
000000
000000
ENDCHAR
STARTCHAR 2150
ENCODING 8528
SWIDTH 1500 0
DWIDTH 18 0
BBX 18 19 0 -1
BITMAP
000000
000000
400000
27ff00
102000
002000
002000
082000
082000
102000
102000
102000
202000
202000
402000
402000
00e000
000000
000000
ENDCHAR
STARTCHAR 2151
ENCODING 8529
SWIDTH 1500 0
DWIDTH 18 0
BBX 18 19 0 -1
BITMAP
000000
000000
1ffc00
100400
100400
17f400
121400
121400
122400
112400
114400
10c400
10a400
112500
221300
240900
400000
000000
000000
ENDCHAR
STARTCHAR 2152
ENCODING 8530
SWIDTH 1500 0
DWIDTH 18 0
BBX 18 19 0 -1
BITMAP
000000
000000
3ff000
021000
021000
021000
021000
221800
121400
0a1200
041100
041100
081000
081000
101000
202000
40c000
000000
000000
ENDCHAR
STARTCHAR 2153
ENCODING 8531
SWIDTH 1500 0
DWIDTH 18 0
BBX 18 19 0 -1
BITMAP
000000
020000
020000
020000
020000
3ff800
020800
020800
120c00
120a00
220900
440900
040800
080800
100800
201000
406000
000000
000000
ENDCHAR
STARTCHAR 2154
ENCODING 8532
SWIDTH 1500 0
DWIDTH 18 0
BBX 18 19 0 -1
BITMAP
000000
002000
002000
7e2000
022000
02ff00
022100
442100
242100
182100
082100
142100
124100
224100
208100
410200
021c00
000000
000000
ENDCHAR
STARTCHAR 2155
ENCODING 8533
SWIDTH 1500 0
DWIDTH 18 0
BBX 18 19 0 -1
BITMAP
000000
080000
080000
1fff00
100100
210100
410100
010100
010100
028100
024100
044100
042100
081100
100900
200200
001c00
000000
000000
ENDCHAR
STARTCHAR 2156
ENCODING 8534
SWIDTH 1500 0
DWIDTH 18 0
BBX 18 19 0 -1
BITMAP
000000
080000
080000
1fff00
100100
200100
400100
070100
00c100
000100
000100
007100
038100
1c0100
000100
000200
001c00
000000
000000
ENDCHAR
STARTCHAR 2157
ENCODING 8535
SWIDTH 1500 0
DWIDTH 18 0
BBX 18 19 0 -1
BITMAP
000000
000000
7fff00
200000
200400
240800
220800
211000
20a000
206000
209000
210800
220400
240400
200000
1fff00
000000
000000
000000
ENDCHAR
STARTCHAR 2158
ENCODING 8536
SWIDTH 1500 0
DWIDTH 18 0
BBX 18 19 0 -1
BITMAP
000000
102000
102000
102000
102000
7dff00
102100
102100
102100
102100
102100
104100
104100
108100
110100
120200
141c00
000000
000000
ENDCHAR
STARTCHAR 2159
ENCODING 8537
SWIDTH 1500 0
DWIDTH 18 0
BBX 18 19 0 -1
BITMAP
000000
020000
020000
7ff000
021000
021000
041000
041100
081100
108f00
608000
008000
7fff00
008000
008000
008000
008000
000000
000000
ENDCHAR
STARTCHAR 215a
ENCODING 8538
SWIDTH 1500 0
DWIDTH 18 0
BBX 18 19 0 -1
BITMAP
000000
022000
022000
022000
022000
022000
022000
7e3f00
022000
022000
022000
022000
022000
022000
022000
022000
022000
000000
000000
ENDCHAR
STARTCHAR 215b
ENCODING 8539
SWIDTH 1500 0
DWIDTH 18 0
BBX 18 19 0 -1
BITMAP
000000
000000
3fff00
200000
208000
208000
208000
2ffe00
208200
208200
208200
208200
210200
210200
420200
440400
087800
000000
000000
ENDCHAR
STARTCHAR 215c
ENCODING 8540
SWIDTH 1500 0
DWIDTH 18 0
BBX 18 19 0 -1
BITMAP
000000
008000
008000
008000
008000
7fff00
008000
011000
011000
022000
022000
044000
044400
088200
111e00
23e300
410200
000000
000000
ENDCHAR
STARTCHAR 215d
ENCODING 8541
SWIDTH 1500 0
DWIDTH 18 0
BBX 18 19 0 -1
BITMAP
000000
020000
020000
040000
041000
080800
10f400
3f0200
180200
020000
020000
040000
041000
080800
10f400
3f0200
180200
000000
000000
ENDCHAR
STARTCHAR 215e
ENCODING 8542
SWIDTH 1500 0
DWIDTH 18 0
BBX 18 19 0 -1
BITMAP
000000
000000
7f7f00
212100
212100
212100
212100
212200
121200
121200
141400
080800
141400
121400
212200
404200
008100
000000
000000
ENDCHAR
STARTCHAR 215f
ENCODING 8543
SWIDTH 1500 0
DWIDTH 18 0
BBX 18 19 0 -1
BITMAP
000000
000000
1ffc00
080800
041000
022000
01c000
063000
380e00
000000
1ffc00
080800
041000
022000
01c000
063000
380e00
000000
000000
ENDCHAR
STARTCHAR 2160
ENCODING 8544
SWIDTH 1500 0
DWIDTH 18 0
BBX 18 19 0 -1
BITMAP
000000
040000
04fe00
444200
444200
444200
444200
442400
442400
442800
441800
7c1000
042800
042400
044400
048200
050100
000000
000000
ENDCHAR
STARTCHAR 2161
ENCODING 8545
SWIDTH 1500 0
DWIDTH 18 0
BBX 18 19 0 -1
BITMAP
000000
008000
008000
008000
008000
008000
1ffc00
008000
008000
009000
008800
008400
008400
008000
008000
7fff00
000000
000000
000000
ENDCHAR
STARTCHAR 2162
ENCODING 8546
SWIDTH 1500 0
DWIDTH 18 0
BBX 18 19 0 -1
BITMAP
000000
008000
008000
208200
208200
208200
208200
208200
208200
3ffe00
208200
008000
008000
008000
008000
7fff00
000000
000000
000000
ENDCHAR
STARTCHAR 2163
ENCODING 8547
SWIDTH 1500 0
DWIDTH 18 0
BBX 18 19 0 -1
BITMAP
000000
000000
7fff00
008000
008000
008000
3ffe00
208200
208200
208200
208200
208200
208200
208200
209c00
008000
008000
000000
000000
ENDCHAR
STARTCHAR 2164
ENCODING 8548
SWIDTH 1500 0
DWIDTH 18 0
BBX 18 19 0 -1
BITMAP
000000
004800
004400
004000
7fff00
004000
004000
004000
002000
002000
002000
001000
7fd000
000900
000900
000500
000300
000000
000000
ENDCHAR
STARTCHAR 2165
ENCODING 8549
SWIDTH 1500 0
DWIDTH 18 0
BBX 18 19 0 -1
BITMAP
000000
008000
004000
104000
1ffe00
100200
100200
100200
100200
1ffe00
100000
100000
100000
100000
200000
200000
400000
000000
000000
ENDCHAR
STARTCHAR 2166
ENCODING 8550
SWIDTH 1500 0
DWIDTH 18 0
BBX 18 19 0 -1
BITMAP
000000
000000
3ffe00
000000
000000
1ffe00
100200
100200
100200
100200
1ffe00
100000
100000
100000
200000
200000
400000
000000
000000
ENDCHAR
STARTCHAR 2167
ENCODING 8551
SWIDTH 1500 0
DWIDTH 18 0
BBX 18 19 0 -1
BITMAP
000000
008000
008000
00fe00
008000
008000
008000
1ff800
000800
080800
041000
022000
014000
00c000
032000
0c1800
300700
000000
000000
ENDCHAR
STARTCHAR 2168
ENCODING 8552
SWIDTH 1500 0
DWIDTH 18 0
BBX 18 19 0 -1
BITMAP
000000
040000
040000
040000
0ffe00
080800
140800
241000
421000
022000
014000
008000
014000
022000
041000
080c00
300300
000000
000000
ENDCHAR
STARTCHAR 2169
ENCODING 8553
SWIDTH 1500 0
DWIDTH 18 0
BBX 18 19 0 -1
BITMAP
000000
000000
1ffc00
008000
008000
008000
008000
7fff00
010000
014000
024000
024000
044100
044100
084100
103f00
600000
000000
000000
ENDCHAR
STARTCHAR 216a
ENCODING 8554
SWIDTH 1500 0
DWIDTH 18 0
BBX 18 19 0 -1
BITMAP
000000
000000
1ffc00
104000
104000
204000
204000
3ffe00
004000
104000
0c4000
034000
00c000
007000
004c00
004300
01c000
000000
000000
ENDCHAR
STARTCHAR 216b
ENCODING 8555
SWIDTH 1500 0
DWIDTH 18 0
BBX 18 19 0 -1
BITMAP
000000
100000
100000
1ffe00
108000
208000
208000
408000
008000
1ffc00
008000
008000
008000
008000
008000
7fff00
000000
000000
000000
ENDCHAR
STARTCHAR 216c
ENCODING 8556
SWIDTH 1500 0
DWIDTH 18 0
BBX 18 19 0 -1
BITMAP
000000
008000
008000
208200
208200
208200
208200
3ffe00
200200
000000
000000
1ffc00
000000
000000
000000
7fff00
000000
000000
000000
ENDCHAR
STARTCHAR 216d
ENCODING 8557
SWIDTH 1500 0
DWIDTH 18 0
BBX 18 19 0 -1
BITMAP
000000
080000
0bfe00
102000
102000
202000
302000
502000
57ff00
102000
102000
102000
102000
102000
102000
102000
102000
000000
000000
ENDCHAR
STARTCHAR 216e
ENCODING 8558
SWIDTH 1500 0
DWIDTH 18 0
BBX 18 19 0 -1
BITMAP
000000
082000
082000
102000
102000
202000
37ff00
502000
505000
105000
105000
108800
108800
110400
110400
120200
140100
000000
000000
ENDCHAR
STARTCHAR 216f
ENCODING 8559
SWIDTH 1500 0
DWIDTH 18 0
BBX 18 19 0 -1
BITMAP
000000
080000
09f800
110800
110800
210800
310800
514800
514800
112800
112800
112800
110800
110900
120900
120900
140700
000000
000000
ENDCHAR
STARTCHAR 2170
ENCODING 8560
SWIDTH 1500 0
DWIDTH 18 0
BBX 18 19 0 -1
BITMAP
000000
010000
010000
01fe00
010000
010000
010000
7fff00
008000
008000
008000
014000
012000
022000
041000
080c00
300300
000000
000000
ENDCHAR
STARTCHAR 2171
ENCODING 8561
SWIDTH 1500 0
DWIDTH 18 0
BBX 18 19 0 -1
BITMAP
000000
080000
080000
17ff00
108800
208800
308800
508800
508800
108800
108800
108800
108800
110900
110900
120900
140700
000000
000000
ENDCHAR
STARTCHAR 2172
ENCODING 8562
SWIDTH 1500 0
DWIDTH 18 0
BBX 18 19 0 -1
BITMAP
000000
082000
082000
102000
102000
202000
312800
512400
512400
112200
122200
122100
122100
142100
102000
102000
10e000
000000
000000
ENDCHAR
STARTCHAR 2173
ENCODING 8563
SWIDTH 1500 0
DWIDTH 18 0
BBX 18 19 0 -1
BITMAP
000000
082000
082000
107e00
104200
208200
308200
514200
522400
141400
100800
100800
101000
102000
104000
118000
160000
000000
000000
ENDCHAR
STARTCHAR 2174
ENCODING 8564
SWIDTH 1500 0
DWIDTH 18 0
BBX 18 19 0 -1
BITMAP
000000
084000
084000
104400
104400
23ff00
308400
508400
508400
110400
110800
13e800
101000
102800
104400
118200
160100
000000
000000
ENDCHAR
STARTCHAR 2175
ENCODING 8565
SWIDTH 1500 0
DWIDTH 18 0
BBX 18 19 0 -1
BITMAP
000000
008000
008000
014000
022000
041000
080c00
106300
618000
061800
186000
018000
060c00
183000
00c000
030000
1c0000
000000
000000
ENDCHAR
STARTCHAR 2176
ENCODING 8566
SWIDTH 1500 0
DWIDTH 18 0
BBX 18 19 0 -1
BITMAP
000000
030000
008000
014000
022000
041000
080800
100600
2ff900
408000
008000
008000
008000
008000
008000
3ffe00
000000
000000
000000
ENDCHAR
STARTCHAR 2177
ENCODING 8567
SWIDTH 1500 0
DWIDTH 18 0
BBX 18 19 0 -1
BITMAP
000000
000000
3ffe00
200200
200200
27f200
241200
241200
241200
27f200
240200
240200
241200
241200
23f200
200200
200e00
000000
000000
ENDCHAR
STARTCHAR 2178
ENCODING 8568
SWIDTH 1500 0
DWIDTH 18 0
BBX 18 19 0 -1
BITMAP
000000
000000
3ffe00
200200
200200
200200
27f200
241200
241200
241200
241200
27f200
241200
200200
200200
200200
200e00
000000
000000
ENDCHAR
STARTCHAR 2179
ENCODING 8569
SWIDTH 1500 0
DWIDTH 18 0
BBX 18 19 0 -1
BITMAP
000000
000000
1f7c00
114400
114400
114400
114400
114400
114400
7fff00
114400
114400
114400
114400
114400
114400
134c00
000000
000000
ENDCHAR
STARTCHAR 217a
ENCODING 8570
SWIDTH 1500 0
DWIDTH 18 0
BBX 18 19 0 -1
BITMAP
000000
200000
3fff00
200200
440400
040000
07fe00
040000
080000
080000
1ffc00
080400
000400
7fff00
000400
000800
003000
000000
000000
ENDCHAR
STARTCHAR 217b
ENCODING 8571
SWIDTH 1500 0
DWIDTH 18 0
BBX 18 19 0 -1
BITMAP
000000
000000
3ffe00
200200
200200
3ffe00
200000
200000
23f000
221000
221000
221000
221000
241100
441100
481100
100f00
000000
000000
ENDCHAR
STARTCHAR 217c
ENCODING 8572
SWIDTH 1500 0
DWIDTH 18 0
BBX 18 19 0 -1
BITMAP
000000
100000
100000
11ff00
101100
7c1100
101100
101100
101100
102100
102100
102100
1e4100
704100
008200
010200
061c00
000000
000000
ENDCHAR
STARTCHAR 217d
ENCODING 8573
SWIDTH 1500 0
DWIDTH 18 0
BBX 18 19 0 -1
BITMAP
000000
010100
079100
3c1100
041100
041100
041100
041100
7fd100
041100
041100
041100
081100
081100
100100
200100
000600
000000
000000
ENDCHAR
STARTCHAR 217e
ENCODING 8574
SWIDTH 1500 0
DWIDTH 18 0
BBX 18 19 0 -1
BITMAP
000000
080000
080000
10ff00
101100
221100
421100
641100
141100
081100
102100
242100
424100
4e4100
728100
010200
020c00
000000
000000
ENDCHAR
STARTCHAR 2221
ENCODING 8737
SWIDTH 1500 0
DWIDTH 18 0
BBX 18 19 0 -1
BITMAP
000000
3ffe00
200200
210200
210200
2ffa00
210a00
210a00
210a00
210a00
220a00
220a00
241200
28e200
200200
3ffe00
200200
000000
000000
ENDCHAR
STARTCHAR 2222
ENCODING 8738
SWIDTH 1500 0
DWIDTH 18 0
BBX 18 19 0 -1
BITMAP
000000
100000
100000
1fff00
200100
410100
008100
008100
7ffd00
100100
100100
100100
100100
100100
0ff900
000200
001c00
000000
000000
ENDCHAR
STARTCHAR 2223
ENCODING 8739
SWIDTH 1500 0
DWIDTH 18 0
BBX 18 19 0 -1
BITMAP
000000
100000
100000
1fff00
200100
408100
008100
208100
214100
212100
221100
240900
280900
200100
3ff900
000200
001c00
000000
000000
ENDCHAR
STARTCHAR 2224
ENCODING 8740
SWIDTH 1500 0
DWIDTH 18 0
BBX 18 19 0 -1
BITMAP
000000
100000
100000
1fff00
200100
230100
420100
07fd00
080900
141100
222100
414100
008100
010100
060100
180200
601c00
000000
000000
ENDCHAR
STARTCHAR 2225
ENCODING 8741
SWIDTH 1500 0
DWIDTH 18 0
BBX 18 19 0 -1
BITMAP
000000
080000
080000
1ffc00
122400
222400
422400
1a2400
044400
074400
088400
08e400
111c00
210700
020400
040800
183000
000000
000000
ENDCHAR
STARTCHAR 2226
ENCODING 8742
SWIDTH 1500 0
DWIDTH 18 0
BBX 18 19 0 -1
BITMAP
000000
000000
3ffe00
200000
200000
27fc00
204000
204000
204000
204000
204000
204000
2ffe00
200000
200000
3fff00
000000
000000
000000
ENDCHAR
STARTCHAR 2227
ENCODING 8743
SWIDTH 1500 0
DWIDTH 18 0
BBX 18 19 0 -1
BITMAP
000000
004000
004000
7c4000
444000
444000
447000
444c00
444200
444100
444000
7c4000
444000
004000
004000
004000
004000
000000
000000
ENDCHAR
STARTCHAR 2228
ENCODING 8744
SWIDTH 1500 0
DWIDTH 18 0
BBX 18 19 0 -1
BITMAP
000000
000000
007e00
3e4200
084200
084200
084200
084200
084200
084200
084200
084200
0f5c00
784000
004000
004000
004000
000000
000000
ENDCHAR
STARTCHAR 2229
ENCODING 8745
SWIDTH 1500 0
DWIDTH 18 0
BBX 18 19 0 -1
BITMAP
000000
000000
3fff00
200000
200000
2ffe00
210000
210000
21fc00
210400
210400
210400
220400
220400
240400
480800
507000
000000
000000
ENDCHAR
STARTCHAR 222a
ENCODING 8746
SWIDTH 1500 0
DWIDTH 18 0
BBX 18 19 0 -1
BITMAP
000000
008000
008000
010000
7fff00
022000
041000
080800
110400
610300
020000
021000
040800
080400
10fc00
3f0400
000400
000000
000000
ENDCHAR
STARTCHAR 222b
ENCODING 8747
SWIDTH 1500 0
DWIDTH 18 0
BBX 18 19 0 -1
BITMAP
000000
00fc00
3f0000
010000
010000
7fff00
020000
020000
03fc00
050400
050400
088800
085000
102000
205000
418c00
060300
000000
000000
ENDCHAR
STARTCHAR 222c
ENCODING 8748
SWIDTH 1500 0
DWIDTH 18 0
BBX 18 19 0 -1
BITMAP
000000
001000
001000
7c1000
441000
441000
441000
442000
442800
442800
444800
7c4400
444400
008400
008200
010200
020100
000000
000000
ENDCHAR
STARTCHAR 222d
ENCODING 8749
SWIDTH 1500 0
DWIDTH 18 0
BBX 18 19 0 -1
BITMAP
000000
001000
001000
7c1000
441000
441000
45ff00
441000
441000
441000
441000
7c1000
441000
001000
001000
001000
001000
000000
000000
ENDCHAR
STARTCHAR 222e
ENCODING 8750
SWIDTH 1500 0
DWIDTH 18 0
BBX 18 19 0 -1
BITMAP
000000
000000
1ffc00
100400
100400
1ffc00
000000
000000
7fff00
040000
080000
0ffc00
000400
000400
000400
000800
007000
000000
000000
ENDCHAR
STARTCHAR 222f
ENCODING 8751
SWIDTH 1500 0
DWIDTH 18 0
BBX 18 19 0 -1
BITMAP
000000
000000
01fc00
7c8400
448400
448400
448400
448800
444800
444800
445000
7c2000
443000
004800
008400
010300
020000
000000
000000
ENDCHAR
STARTCHAR 2230
ENCODING 8752
SWIDTH 1500 0
DWIDTH 18 0
BBX 18 19 0 -1
BITMAP
000000
008000
008000
788000
488000
4bf800
488800
488800
488800
488800
488800
790800
490800
020900
020900
040900
080700
000000
000000
ENDCHAR
STARTCHAR 2231
ENCODING 8753
SWIDTH 1500 0
DWIDTH 18 0
BBX 18 19 0 -1
BITMAP
000000
020000
020000
7ff000
041000
041000
081000
081100
101100
200f00
400000
1ffc00
100400
100400
100400
1ffc00
100400
000000
000000
ENDCHAR
STARTCHAR 2232
ENCODING 8754
SWIDTH 1500 0
DWIDTH 18 0
BBX 18 19 0 -1
BITMAP
000000
000000
3ffe00
200200
200200
2ffa00
220a00
221200
211200
212200
20c200
20a200
231200
2c0a00
200200
3ffe00
200200
000000
000000
ENDCHAR
STARTCHAR 2233
ENCODING 8755
SWIDTH 1500 0
DWIDTH 18 0
BBX 18 19 0 -1
BITMAP
000000
002000
082000
082000
082000
08ff00
3e2100
082100
082100
082100
082100
082100
084100
0e4100
708100
010200
021c00
000000
000000
ENDCHAR
STARTCHAR 2234
ENCODING 8756
SWIDTH 1500 0
DWIDTH 18 0
BBX 18 19 0 -1
BITMAP
000000
002000
082000
082000
082000
082000
3e3800
082400
082200
082100
082000
082000
082000
0f2000
702000
002000
002000
000000
000000
ENDCHAR
STARTCHAR 2235
ENCODING 8757
SWIDTH 1500 0
DWIDTH 18 0
BBX 18 19 0 -1
BITMAP
000000
100800
100800
1f0800
110800
110800
211400
211200
512200
4a2100
044100
068100
090000
088000
104000
203f00
400000
000000
000000
ENDCHAR
STARTCHAR 2236
ENCODING 8758
SWIDTH 1500 0
DWIDTH 18 0
BBX 18 19 0 -1
BITMAP
000000
100000
103f00
1f2100
112100
212100
212100
312100
492100
462100
022100
042100
042e00
082000
082000
102000
202000
000000
000000
ENDCHAR
STARTCHAR 2237
ENCODING 8759
SWIDTH 1500 0
DWIDTH 18 0
BBX 18 19 0 -1
BITMAP
000000
008000
008000
008000
3ffe00
008000
014000
022000
041000
088800
108400
608300
0ff800
008000
008000
008000
008000
000000
000000
ENDCHAR
STARTCHAR 2238
ENCODING 8760
SWIDTH 1500 0
DWIDTH 18 0
BBX 18 19 0 -1
BITMAP
000000
008000
008000
010000
7fff00
022000
041000
080800
100400
641300
041000
041000
041000
081000
081000
101000
201000
000000
000000
ENDCHAR
STARTCHAR 2239
ENCODING 8761
SWIDTH 1500 0
DWIDTH 18 0
BBX 18 19 0 -1
BITMAP
000000
004000
084000
044000
024000
204000
104000
084000
004000
008000
7fff00
010000
021000
040800
080400
100200
200100
000000
000000
ENDCHAR
STARTCHAR 223a
ENCODING 8762
SWIDTH 1500 0
DWIDTH 18 0
BBX 18 19 0 -1
BITMAP
000000
008000
008000
010000
7fff00
022000
041000
080800
100400
600300
000000
100400
100400
100400
100400
1ffc00
100400
000000
000000
ENDCHAR
STARTCHAR 223b
ENCODING 8763
SWIDTH 1500 0
DWIDTH 18 0
BBX 18 19 0 -1
BITMAP
000000
200000
21ff00
240800
7e0800
240800
240800
240800
240800
240800
440800
340800
080800
140800
220800
400800
003800
000000
000000
ENDCHAR
STARTCHAR 223c
ENCODING 8764
SWIDTH 1500 0
DWIDTH 18 0
BBX 18 19 0 -1
BITMAP
000000
010000
008000
208000
3fff00
400100
400200
000000
1ff800
000800
041000
022000
014000
018000
026000
0c1800
300700
000000
000000
ENDCHAR
STARTCHAR 223d
ENCODING 8765
SWIDTH 1500 0
DWIDTH 18 0
BBX 18 19 0 -1
BITMAP
000000
010000
208000
3fff00
400100
400200
042000
042000
042000
042000
042000
042000
042000
082100
082100
102100
201f00
000000
000000
ENDCHAR
STARTCHAR 223e
ENCODING 8766
SWIDTH 1500 0
DWIDTH 18 0
BBX 18 19 0 -1
BITMAP
000000
000800
000800
7c0800
040800
05ff00
040800
440800
288800
284800
104800
180800
240800
240800
440800
400800
003800
000000
000000
ENDCHAR
STARTCHAR 223f
ENCODING 8767
SWIDTH 1500 0
DWIDTH 18 0
BBX 18 19 0 -1
BITMAP
000000
080000
080000
100000
1ffe00
208200
208200
408400
049000
048800
088400
088200
108100
208100
408000
008000
038000
000000
000000
ENDCHAR
STARTCHAR 2240
ENCODING 8768
SWIDTH 1500 0
DWIDTH 18 0
BBX 18 19 0 -1
BITMAP
000000
000000
1ffe00
100200
100200
1ffe00
100000
100000
17fc00
110400
110400
108800
109000
206000
219000
460c00
180300
000000
000000
ENDCHAR
STARTCHAR 2241
ENCODING 8769
SWIDTH 1500 0
DWIDTH 18 0
BBX 18 19 0 -1
BITMAP
000000
000000
10f800
108800
548800
548800
548800
548800
548800
548800
548800
548800
7c8800
450800
010900
020900
040700
000000
000000
ENDCHAR
STARTCHAR 2242
ENCODING 8770
SWIDTH 1500 0
DWIDTH 18 0
BBX 18 19 0 -1
BITMAP
000000
008000
108400
108400
108400
1ffc00
100400
008000
008000
008000
014000
014000
022000
041000
080800
100400
600200
000000
000000
ENDCHAR
STARTCHAR 2243
ENCODING 8771
SWIDTH 1500 0
DWIDTH 18 0
BBX 18 19 0 -1
BITMAP
000000
008000
108400
108400
108400
1ffc00
100400
030000
008000
014000
014000
022000
021000
040800
080400
100300
600000
000000
000000
ENDCHAR
STARTCHAR 2244
ENCODING 8772
SWIDTH 1500 0
DWIDTH 18 0
BBX 18 19 0 -1
BITMAP
000000
008000
108400
108400
108400
1ffc00
100400
000000
3ff000
041000
042000
047e00
080200
080200
100200
200200
401c00
000000
000000
ENDCHAR
STARTCHAR 2245
ENCODING 8773
SWIDTH 1500 0
DWIDTH 18 0
BBX 18 19 0 -1
BITMAP
000000
000000
1ff800
000800
000800
100800
1ff800
100000
100000
100000
1ffc00
100400
100400
100400
100400
1ffc00
100000
000000
000000
ENDCHAR
STARTCHAR 2246
ENCODING 8774
SWIDTH 1500 0
DWIDTH 18 0
BBX 18 19 0 -1
BITMAP
000000
082000
082000
082000
7f2000
492000
492000
493e00
492000
492000
492000
492000
492000
082000
082100
082100
081f00
000000
000000
ENDCHAR
STARTCHAR 2247
ENCODING 8775
SWIDTH 1500 0
DWIDTH 18 0
BBX 18 19 0 -1
BITMAP
000000
008000
004000
004000
3fff00
200000
200000
2ffe00
204000
204000
204000
204000
204000
204000
204000
404000
41c000
000000
000000
ENDCHAR
STARTCHAR 2248
ENCODING 8776
SWIDTH 1500 0
DWIDTH 18 0
BBX 18 19 0 -1
BITMAP
000000
008000
004000
004000
3fff00
200000
204000
204000
208000
208000
210000
211000
220800
220400
247e00
4f8200
400200
000000
000000
ENDCHAR
STARTCHAR 2249
ENCODING 8777
SWIDTH 1500 0
DWIDTH 18 0
BBX 18 19 0 -1
BITMAP
000000
005000
004800
004000
7ffe00
004000
004000
004000
3f2000
002000
002000
001000
001000
000900
7f8900
000500
000300
000000
000000
ENDCHAR
STARTCHAR 224a
ENCODING 8778
SWIDTH 1500 0
DWIDTH 18 0
BBX 18 19 0 -1
BITMAP
000000
040000
04fe00
040200
040200
440200
240200
240200
24fe00
040200
080200
080200
080200
100200
100200
20fe00
400200
000000
000000
ENDCHAR
STARTCHAR 224b
ENCODING 8779
SWIDTH 1500 0
DWIDTH 18 0
BBX 18 19 0 -1
BITMAP
000000
040000
09ff00
100800
220800
440800
080800
180800
280800
480800
080800
080800
080800
080800
080800
080800
083800
000000
000000
ENDCHAR
STARTCHAR 224c
ENCODING 8780
SWIDTH 1500 0
DWIDTH 18 0
BBX 18 19 0 -1
BITMAP
000000
100000
11ff00
100800
580800
540800
540800
540800
540800
500800
100800
100800
100800
100800
100800
100800
103800
000000
000000
ENDCHAR
STARTCHAR 224d
ENCODING 8781
SWIDTH 1500 0
DWIDTH 18 0
BBX 18 19 0 -1
BITMAP
000000
102000
102000
102000
582000
55ff00
542100
542100
542100
502100
102100
102100
104100
104100
108100
110200
121c00
000000
000000
ENDCHAR
STARTCHAR 224e
ENCODING 8782
SWIDTH 1500 0
DWIDTH 18 0
BBX 18 19 0 -1
BITMAP
000000
001e00
1fe000
100000
1ffe00
100200
100200
1ffe00
100000
100000
17fc00
100800
103000
20c200
230200
440200
47fe00
000000
000000
ENDCHAR
STARTCHAR 224f
ENCODING 8783
SWIDTH 1500 0
DWIDTH 18 0
BBX 18 19 0 -1
BITMAP
000000
100000
13fe00
104200
7c4200
104200
104200
104200
104200
1c4200
708200
108200
108200
110200
110200
120400
341800
000000
000000
ENDCHAR
STARTCHAR 2250
ENCODING 8784
SWIDTH 1500 0
DWIDTH 18 0
BBX 18 19 0 -1
BITMAP
000000
108000
108000
108000
7c8000
13f800
108800
108800
108800
1c8800
708800
108800
110800
110900
120900
120900
340700
000000
000000
ENDCHAR
STARTCHAR 2251
ENCODING 8785
SWIDTH 1500 0
DWIDTH 18 0
BBX 18 19 0 -1
BITMAP
000000
200000
210200
21fe00
210200
210200
210200
210200
21fe00
210200
210200
210200
210200
210200
21fe00
210200
200000
000000
000000
ENDCHAR
STARTCHAR 2252
ENCODING 8786
SWIDTH 1500 0
DWIDTH 18 0
BBX 18 19 0 -1
BITMAP
000000
008000
008800
008400
008400
7fff00
008000
01c000
02a000
049000
088800
108400
208200
408100
008000
008000
008000
000000
000000
ENDCHAR
STARTCHAR 2253
ENCODING 8787
SWIDTH 1500 0
DWIDTH 18 0
BBX 18 19 0 -1
BITMAP
000000
008000
008000
00fe00
008000
088000
088000
0ffc00
100400
280800
441000
022000
014000
018000
060000
180000
600000
000000
000000
ENDCHAR
STARTCHAR 2254
ENCODING 8788
SWIDTH 1500 0
DWIDTH 18 0
BBX 18 19 0 -1
BITMAP
000000
001000
7e1000
021000
021200
05d400
045800
085400
089400
109200
111100
221000
207000
400100
400100
3fff00
000000
000000
000000
ENDCHAR
STARTCHAR 2255
ENCODING 8789
SWIDTH 1500 0
DWIDTH 18 0
BBX 18 19 0 -1
BITMAP
000000
010000
210000
110000
010300
410c00
213000
09c000
090000
110000
110000
210000
210000
210000
410100
410100
00ff00
000000
000000
ENDCHAR
STARTCHAR 2256
ENCODING 8790
SWIDTH 1500 0
DWIDTH 18 0
BBX 18 19 0 -1
BITMAP
000000
000000
21f800
110800
010800
410800
210800
090800
090800
110800
110800
210800
210800
220800
420900
440900
080700
000000
000000
ENDCHAR
STARTCHAR 2257
ENCODING 8791
SWIDTH 1500 0
DWIDTH 18 0
BBX 18 19 0 -1
BITMAP
000000
008000
108000
088000
088400
008800
3ed000
02a000
02a000
049000
049000
088800
088400
108200
208100
408000
038000
000000
000000
ENDCHAR
STARTCHAR 2258
ENCODING 8792
SWIDTH 1500 0
DWIDTH 18 0
BBX 18 19 0 -1
BITMAP
000000
002000
202000
102000
002000
402000
242000
045000
085000
085000
108800
108800
208800
210400
410400
420200
040100
000000
000000
ENDCHAR
STARTCHAR 2259
ENCODING 8793
SWIDTH 1500 0
DWIDTH 18 0
BBX 18 19 0 -1
BITMAP
000000
000000
27ff00
104000
004000
408000
208000
010000
11fe00
100200
100200
200200
200200
200200
400200
400400
007800
000000
000000
ENDCHAR
STARTCHAR 225a
ENCODING 8794
SWIDTH 1500 0
DWIDTH 18 0
BBX 18 19 0 -1
BITMAP
000000
004000
004000
7f4000
084000
084000
084000
084000
3e4000
084000
084000
084000
084000
084100
0f4100
784100
003f00
000000
000000
ENDCHAR
STARTCHAR 225b
ENCODING 8795
SWIDTH 1500 0
DWIDTH 18 0
BBX 18 19 0 -1
BITMAP
000000
008000
004000
1fff00
100000
100000
500000
300000
100000
100000
300000
500000
100000
100000
200000
200000
400000
000000
000000
ENDCHAR
STARTCHAR 225c
ENCODING 8796
SWIDTH 1500 0
DWIDTH 18 0
BBX 18 19 0 -1
BITMAP
000000
004000
3e4400
024800
023000
222100
121200
0c1400
040800
080800
080400
100200
200100
400000
000000
000000
000000
000000
000000
ENDCHAR
STARTCHAR 225d
ENCODING 8797
SWIDTH 1500 0
DWIDTH 18 0
BBX 18 19 0 -1
BITMAP
000000
000000
007e00
7e4200
024400
024800
025000
444800
244400
184200
084200
144200
124200
224200
205c00
404000
004000
000000
000000
ENDCHAR
STARTCHAR 225e
ENCODING 8798
SWIDTH 1500 0
DWIDTH 18 0
BBX 18 19 0 -1
BITMAP
000000
000000
007e00
7e4200
084400
084800
085000
084800
084400
084200
084200
084200
084200
084200
085c00
084000
304000
000000
000000
ENDCHAR
STARTCHAR 225f
ENCODING 8799
SWIDTH 1500 0
DWIDTH 18 0
BBX 18 19 0 -1
BITMAP
000000
000000
3c7e00
244200
244400
244800
245000
244800
244400
244200
244200
244200
244200
254200
265c00
444000
404000
000000
000000
ENDCHAR
STARTCHAR 2260
ENCODING 8800
SWIDTH 1500 0
DWIDTH 18 0
BBX 18 19 0 -1
BITMAP
000000
000000
7dff00
440800
440800
480800
500800
500800
480800
440800
440800
440800
440800
640800
580800
400800
403800
000000
000000
ENDCHAR
STARTCHAR 2261
ENCODING 8801
SWIDTH 1500 0
DWIDTH 18 0
BBX 18 19 0 -1
BITMAP
000000
000000
7fff00
008000
008000
3ffe00
208200
208200
249200
249200
249200
249200
249200
27f200
200200
200200
200e00
000000
000000
ENDCHAR
STARTCHAR 2262
ENCODING 8802
SWIDTH 1500 0
DWIDTH 18 0
BBX 18 19 0 -1
BITMAP
000000
022000
022000
022000
022000
7e3f00
022000
022000
022000
022000
022100
0e2100
721f00
000000
000000
3ffe00
000000
000000
000000
ENDCHAR
STARTCHAR 2263
ENCODING 8803
SWIDTH 1500 0
DWIDTH 18 0
BBX 18 19 0 -1
BITMAP
000000
00fc00
1f8000
008000
008000
1ffc00
008000
008000
008000
7fff00
010000
020000
040800
080400
107a00
3f8200
000100
000000
000000
ENDCHAR
STARTCHAR 2264
ENCODING 8804
SWIDTH 1500 0
DWIDTH 18 0
BBX 18 19 0 -1
BITMAP
000000
082000
102000
102000
242000
222000
412000
7f2000
012000
002000
7f2000
412000
412000
412100
412100
7f2100
001f00
000000
000000
ENDCHAR
STARTCHAR 2265
ENCODING 8805
SWIDTH 1500 0
DWIDTH 18 0
BBX 18 19 0 -1
BITMAP
000000
040000
040000
0ff000
102000
204000
5ff800
008800
008800
7fff00
008800
008800
1ff800
008800
008000
008000
038000
000000
000000
ENDCHAR
STARTCHAR 2266
ENCODING 8806
SWIDTH 1500 0
DWIDTH 18 0
BBX 18 19 0 -1
BITMAP
000000
000000
3ffe00
000000
000000
0ff800
080800
080800
0ff800
080800
080800
080800
0ff800
000000
000000
7fff00
000000
000000
000000
ENDCHAR
STARTCHAR 2267
ENCODING 8807
SWIDTH 1500 0
DWIDTH 18 0
BBX 18 19 0 -1
BITMAP
000000
082000
082000
103e00
13e000
202000
302000
502000
53fe00
102000
102000
102000
17ff00
102000
102000
102000
102000
000000
000000
ENDCHAR
STARTCHAR 2268
ENCODING 8808
SWIDTH 1500 0
DWIDTH 18 0
BBX 18 19 0 -1
BITMAP
000000
082000
082000
102000
112400
212200
312200
522100
522500
122500
142800
102800
101000
102000
104000
118000
160000
000000
000000
ENDCHAR
STARTCHAR 2269
ENCODING 8809
SWIDTH 1500 0
DWIDTH 18 0
BBX 18 19 0 -1
BITMAP
000000
08c000
082000
102000
13fe00
222200
322200
525200
525200
128a00
128a00
130600
120200
120200
120200
120200
120e00
000000
000000
ENDCHAR
STARTCHAR 226a
ENCODING 8810
SWIDTH 1500 0
DWIDTH 18 0
BBX 18 19 0 -1
BITMAP
000000
080800
086800
138800
108800
208800
308800
508800
57ff00
108800
108800
108800
108800
110800
110800
120800
140800
000000
000000
ENDCHAR
STARTCHAR 226b
ENCODING 8811
SWIDTH 1500 0
DWIDTH 18 0
BBX 18 19 0 -1
BITMAP
000000
080000
081e00
13e000
102000
202000
302000
502000
57ff00
102000
105000
105000
108800
108800
110400
120200
140100
000000
000000
ENDCHAR
STARTCHAR 226c
ENCODING 8812
SWIDTH 1500 0
DWIDTH 18 0
BBX 18 19 0 -1
BITMAP
000000
090000
090000
110000
11ff00
224900
324900
544900
548900
109100
111100
112100
122100
144100
108100
110200
101c00
000000
000000
ENDCHAR
STARTCHAR 226d
ENCODING 8813
SWIDTH 1500 0
DWIDTH 18 0
BBX 18 19 0 -1
BITMAP
000000
080000
0bfe00
100400
108800
205000
302000
501000
57ff00
102100
102200
102400
102000
102000
102000
102000
10e000
000000
000000
ENDCHAR
STARTCHAR 226e
ENCODING 8814
SWIDTH 1500 0
DWIDTH 18 0
BBX 18 19 0 -1
BITMAP
000000
080000
0bfe00
102000
102000
202000
302000
502000
51fc00
102000
102000
102000
102000
102000
102000
13fe00
100000
000000
000000
ENDCHAR
STARTCHAR 226f
ENCODING 8815
SWIDTH 1500 0
DWIDTH 18 0
BBX 18 19 0 -1
BITMAP
000000
080000
09ff00
110000
110000
210000
31fe00
510200
514200
114200
112400
112400
121800
121400
122400
144200
148100
000000
000000
ENDCHAR
STARTCHAR 2270
ENCODING 8816
SWIDTH 1500 0
DWIDTH 18 0
BBX 18 19 0 -1
BITMAP
000000
084000
084000
104000
17ff00
204000
308000
50fc00
508400
114400
114400
124400
122800
141000
102800
104400
118300
000000
000000
ENDCHAR
STARTCHAR 2271
ENCODING 8817
SWIDTH 1500 0
DWIDTH 18 0
BBX 18 19 0 -1
BITMAP
000000
090000
09fe00
120000
120000
25fc00
300000
500000
53fc00
100400
100400
100400
100400
100400
100500
100500
100300
000000
000000
ENDCHAR
STARTCHAR 2272
ENCODING 8818
SWIDTH 1500 0
DWIDTH 18 0
BBX 18 19 0 -1
BITMAP
000000
088000
088000
108000
11ff00
210100
320100
500100
51f900
100100
100100
11f900
100100
100100
100100
100200
101c00
000000
000000
ENDCHAR
STARTCHAR 2273
ENCODING 8819
SWIDTH 1500 0
DWIDTH 18 0
BBX 18 19 0 -1
BITMAP
000000
088000
088000
17f800
108800
208800
308900
510900
510900
122700
142000
102000
17ff00
102000
102000
102000
102000
000000
000000
ENDCHAR
STARTCHAR 2274
ENCODING 8820
SWIDTH 1500 0
DWIDTH 18 0
BBX 18 19 0 -1
BITMAP
000000
080000
09f800
110800
110800
210800
320700
520000
55fc00
100400
110800
108800
105000
102000
105000
118c00
160300
000000
000000
ENDCHAR
STARTCHAR 2275
ENCODING 8821
SWIDTH 1500 0
DWIDTH 18 0
BBX 18 19 0 -1
BITMAP
000000
008000
014000
022000
041000
080800
100400
67f300
000000
000000
7fff00
010000
021000
040800
087c00
1f8400
000200
000000
000000
ENDCHAR
STARTCHAR 2276
ENCODING 8822
SWIDTH 1500 0
DWIDTH 18 0
BBX 18 19 0 -1
BITMAP
000000
008000
014000
022000
041000
080800
100400
6ffb00
080000
080000
080000
0ff800
080000
080000
080000
0ffc00
080000
000000
000000
ENDCHAR
STARTCHAR 2277
ENCODING 8823
SWIDTH 1500 0
DWIDTH 18 0
BBX 18 19 0 -1
BITMAP
000000
008000
008000
008000
014000
014000
022000
041000
180c00
600300
081000
081000
081000
142800
224400
428200
010100
000000
000000
ENDCHAR
STARTCHAR 2278
ENCODING 8824
SWIDTH 1500 0
DWIDTH 18 0
BBX 18 19 0 -1
BITMAP
000000
004000
042000
041000
088800
110400
221300
440800
080400
1ffc00
022400
022000
042000
042000
082100
102100
201f00
000000
000000
ENDCHAR
STARTCHAR 2279
ENCODING 8825
SWIDTH 1500 0
DWIDTH 18 0
BBX 18 19 0 -1
BITMAP
000000
030000
008000
014000
022000
041000
180c00
600300
000000
1ffc00
100400
100400
1ffc00
100400
100400
1ffc00
100400
000000
000000
ENDCHAR
STARTCHAR 227a
ENCODING 8826
SWIDTH 1500 0
DWIDTH 18 0
BBX 18 19 0 -1
BITMAP
000000
000000
3ffe00
008000
008000
1ffc00
008000
008000
7fff00
004000
002000
022000
021000
041000
080800
100400
200300
000000
000000
ENDCHAR
STARTCHAR 227b
ENCODING 8827
SWIDTH 1500 0
DWIDTH 18 0
BBX 18 19 0 -1
BITMAP
000000
000000
3ffe00
008000
008000
1ffc00
108400
108400
7fff00
108400
108400
7fff00
100400
100400
100400
100400
101c00
000000
000000
ENDCHAR
STARTCHAR 227c
ENCODING 8828
SWIDTH 1500 0
DWIDTH 18 0
BBX 18 19 0 -1
BITMAP
000000
000000
01fe00
410800
210800
210800
020800
020800
13ff00
102800
104800
204800
208800
210800
420800
4c0800
003800
000000
000000
ENDCHAR
STARTCHAR 227d
ENCODING 8829
SWIDTH 1500 0
DWIDTH 18 0
BBX 18 19 0 -1
BITMAP
000000
004000
004000
404000
23fc00
204400
004400
004400
104400
17ff00
104000
209000
208800
210400
420200
440100
080100
000000
000000
ENDCHAR
STARTCHAR 227e
ENCODING 8830
SWIDTH 1500 0
DWIDTH 18 0
BBX 18 19 0 -1
BITMAP
000000
002000
002000
402000
202000
23fe00
022200
022200
122200
122200
13fe00
222200
202000
202000
402000
402000
002000
000000
000000
ENDCHAR
STARTCHAR 2321
ENCODING 8993
SWIDTH 1500 0
DWIDTH 18 0
BBX 18 19 0 -1
BITMAP
000000
000000
001e00
43e000
202000
202000
002000
002000
17ff00
102000
105000
205000
208800
208800
410400
420200
040100
000000
000000
ENDCHAR
STARTCHAR 2322
ENCODING 8994
SWIDTH 1500 0
DWIDTH 18 0
BBX 18 19 0 -1
BITMAP
000000
000000
1ffc00
100400
100400
13e400
100400
100400
100400
17f400
108400
110400
112500
121500
247300
279100
400000
000000
000000
ENDCHAR
STARTCHAR 2323
ENCODING 8995
SWIDTH 1500 0
DWIDTH 18 0
BBX 18 19 0 -1
BITMAP
000000
010000
008000
7fff00
000000
001000
041000
222200
214200
208200
214200
222200
241200
281200
200200
3ffe00
200200
000000
000000
ENDCHAR
STARTCHAR 2324
ENCODING 8996
SWIDTH 1500 0
DWIDTH 18 0
BBX 18 19 0 -1
BITMAP
000000
080200
080200
080200
3f1200
091200
091200
091200
091200
7fd200
081200
081200
120200
110200
208200
208200
400e00
000000
000000
ENDCHAR
STARTCHAR 2325
ENCODING 8997
SWIDTH 1500 0
DWIDTH 18 0
BBX 18 19 0 -1
BITMAP
000000
100200
1fc200
200200
401200
1f9200
001200
001200
3f9200
011200
021200
041200
084200
104200
204200
3fc200
000e00
000000
000000
ENDCHAR
STARTCHAR 2326
ENCODING 8998
SWIDTH 1500 0
DWIDTH 18 0
BBX 18 19 0 -1
BITMAP
000000
000000
3ffc00
020400
020400
040400
080400
303800
000000
000000
7f7f00
090900
090900
111100
111100
212100
464600
000000
000000
ENDCHAR
STARTCHAR 2327
ENCODING 8999
SWIDTH 1500 0
DWIDTH 18 0
BBX 18 19 0 -1
BITMAP
000000
100200
080200
080200
7f2200
022200
022200
422200
222200
122200
142200
0c2200
0a0200
120200
110200
210200
400e00
000000
000000
ENDCHAR
STARTCHAR 2328
ENCODING 9000
SWIDTH 1500 0
DWIDTH 18 0
BBX 18 19 0 -1
BITMAP
000000
001000
001000
3e1000
001000
00ff00
001100
7f1100
081100
101100
101100
241100
222100
4e2100
724100
008200
030c00
000000
000000
ENDCHAR
STARTCHAR 2329
ENCODING 9001
SWIDTH 1500 0
DWIDTH 18 0
BBX 18 19 0 -1
BITMAP
000000
008000
008000
3ffe00
008000
008000
088800
088800
080800
080800
7f7f00
080800
080800
100800
100800
200800
400800
000000
000000
ENDCHAR
STARTCHAR 232a
ENCODING 9002
SWIDTH 1500 0
DWIDTH 18 0
BBX 18 19 0 -1
BITMAP
000000
008000
008000
008000
3ffe00
008000
008000
088800
080800
080800
7fff00
080800
080800
080800
080800
0ff800
080800
000000
000000
ENDCHAR
STARTCHAR 232b
ENCODING 9003
SWIDTH 1500 0
DWIDTH 18 0
BBX 18 19 0 -1
BITMAP
000000
104000
104000
104000
7c4000
13fc00
104400
104400
114600
114500
124500
104400
108400
108400
110400
120800
143000
000000
000000
ENDCHAR
STARTCHAR 232c
ENCODING 9004
SWIDTH 1500 0
DWIDTH 18 0
BBX 18 19 0 -1
BITMAP
000000
000000
3ffe00
004000
008000
019000
068800
188400
208400
000000
008000
008000
7fff00
008000
008000
008000
008000
000000
000000
ENDCHAR
STARTCHAR 232d
ENCODING 9005
SWIDTH 1500 0
DWIDTH 18 0
BBX 18 19 0 -1
BITMAP
000000
200000
20fe00
208000
208000
208000
208000
208000
3ffe00
008200
008200
008200
008200
008200
008200
3f8200
000200
000000
000000
ENDCHAR
STARTCHAR 232e
ENCODING 9006
SWIDTH 1500 0
DWIDTH 18 0
BBX 18 19 0 -1
BITMAP
000000
000000
3fff00
200000
200000
2ffe00
204000
208000
210800
221000
212000
204000
209000
210800
223400
47c400
400400
000000
000000
ENDCHAR
STARTCHAR 232f
ENCODING 9007
SWIDTH 1500 0
DWIDTH 18 0
BBX 18 19 0 -1
BITMAP
000000
000000
3fff00
200000
204000
204000
204000
204000
27fc00
204000
204000
204800
204400
204400
204000
4ffe00
400000
000000
000000
ENDCHAR
STARTCHAR 2330
ENCODING 9008
SWIDTH 1500 0
DWIDTH 18 0
BBX 18 19 0 -1
BITMAP
000000
000000
3fff00
200000
204000
20a000
211000
220800
25f400
280200
200000
27fc00
200400
200800
201000
402000
404000
000000
000000
ENDCHAR
STARTCHAR 2331
ENCODING 9009
SWIDTH 1500 0
DWIDTH 18 0
BBX 18 19 0 -1
BITMAP
000000
000000
7ffc00
000400
010400
010400
1ff400
010200
010200
010100
7ffc00
020000
042000
081000
10e800
3f0800
000800
000000
000000
ENDCHAR
STARTCHAR 2332
ENCODING 9010
SWIDTH 1500 0
DWIDTH 18 0
BBX 18 19 0 -1
BITMAP
000000
008000
008000
1ffc00
108400
108400
1ffc00
008000
008000
3ffc00
080800
041000
022000
01c000
022000
0c1800
700600
000000
000000
ENDCHAR
STARTCHAR 2333
ENCODING 9011
SWIDTH 1500 0
DWIDTH 18 0
BBX 18 19 0 -1
BITMAP
000000
000000
1ff800
001000
0c2000
024000
01c000
0e3000
700c00
000000
7e7e00
020200
222200
141400
0c0800
123400
22c300
000000
000000
ENDCHAR
STARTCHAR 2334
ENCODING 9012
SWIDTH 1500 0
DWIDTH 18 0
BBX 18 19 0 -1
BITMAP
000000
010100
010100
7c8200
448200
444400
442800
441000
441000
441000
441000
7c1000
441000
001000
001000
001000
001000
000000
000000
ENDCHAR
STARTCHAR 2335
ENCODING 9013
SWIDTH 1500 0
DWIDTH 18 0
BBX 18 19 0 -1
BITMAP
000000
000000
000000
01fe00
7c1000
441000
441000
441000
441000
441000
441000
441000
7c1000
441000
001000
03ff00
000000
000000
000000
ENDCHAR
STARTCHAR 2336
ENCODING 9014
SWIDTH 1500 0
DWIDTH 18 0
BBX 18 19 0 -1
BITMAP
000000
000000
00ff00
7c8100
448100
448100
448100
44ff00
448100
448000
448000
7c8000
448000
010000
010000
020000
040000
000000
000000
ENDCHAR
STARTCHAR 2337
ENCODING 9015
SWIDTH 1500 0
DWIDTH 18 0
BBX 18 19 0 -1
BITMAP
000000
000000
001e00
7cf000
441000
441000
441000
441000
45ff00
441000
441000
7c1000
441000
001000
001000
001000
001000
000000
000000
ENDCHAR
STARTCHAR 2338
ENCODING 9016
SWIDTH 1500 0
DWIDTH 18 0
BBX 18 19 0 -1
BITMAP
000000
000000
1ffc00
100400
100400
100400
1ffc00
100400
008000
008000
7fff00
008000
014000
022000
041000
080c00
300300
000000
000000
ENDCHAR
STARTCHAR 2339
ENCODING 9017
SWIDTH 1500 0
DWIDTH 18 0
BBX 18 19 0 -1
BITMAP
000000
000000
000000
7e7f00
424100
424100
424100
424100
424100
424100
424100
424100
424100
424100
7e7f00
424100
000000
000000
000000
ENDCHAR
STARTCHAR 233a
ENCODING 9018
SWIDTH 1500 0
DWIDTH 18 0
BBX 18 19 0 -1
BITMAP
000000
000000
01ff00
7c1000
441000
441000
441800
441400
441200
441100
441000
7c1000
441000
001000
001000
001000
001000
000000
000000
ENDCHAR
STARTCHAR 233b
ENCODING 9019
SWIDTH 1500 0
DWIDTH 18 0
BBX 18 19 0 -1
BITMAP
000000
000000
1ffc00
100400
100400
100400
1ffc00
100400
000000
000000
3ffe00
200200
200200
200200
200200
3ffe00
200200
000000
000000
ENDCHAR
STARTCHAR 233c
ENCODING 9020
SWIDTH 1500 0
DWIDTH 18 0
BBX 18 19 0 -1
BITMAP
000000
001000
002000
7c2000
444000
444000
448800
451000
441000
442000
444000
7c4200
448100
010f00
01f100
000100
000000
000000
000000
ENDCHAR
STARTCHAR 233d
ENCODING 9021
SWIDTH 1500 0
DWIDTH 18 0
BBX 18 19 0 -1
BITMAP
000000
000000
3ffe00
200200
222200
222200
222200
3ffe00
222200
222200
222200
222200
242200
282200
200200
3ffe00
200200
000000
000000
ENDCHAR
STARTCHAR 233e
ENCODING 9022
SWIDTH 1500 0
DWIDTH 18 0
BBX 18 19 0 -1
BITMAP
000000
000000
3ffe00
200200
202200
202200
2ffa00
202200
242200
222200
212200
202200
202200
20e200
200200
3ffe00
200200
000000
000000
ENDCHAR
STARTCHAR 233f
ENCODING 9023
SWIDTH 1500 0
DWIDTH 18 0
BBX 18 19 0 -1
BITMAP
000000
004000
104000
104000
104000
104000
7c4000
107e00
104000
104000
104000
104000
1e4000
704000
004000
07ff00
000000
000000
000000
ENDCHAR
STARTCHAR 2340
ENCODING 9024
SWIDTH 1500 0
DWIDTH 18 0
BBX 18 19 0 -1
BITMAP
000000
010000
010000
7fff00
022000
041000
080800
108400
608300
008000
1ffc00
008000
008000
008000
008000
7fff00
000000
000000
000000
ENDCHAR
STARTCHAR 2341
ENCODING 9025
SWIDTH 1500 0
DWIDTH 18 0
BBX 18 19 0 -1
BITMAP
000000
001000
0e1000
381000
081000
081000
081000
08fe00
7f1000
081000
081000
081000
101000
101000
201000
21ff00
400000
000000
000000
ENDCHAR
STARTCHAR 2342
ENCODING 9026
SWIDTH 1500 0
DWIDTH 18 0
BBX 18 19 0 -1
BITMAP
000000
000e00
10f000
101000
101000
101000
7e1000
101000
11ff00
101000
101000
101000
1e1000
701000
001000
001000
001000
000000
000000
ENDCHAR
STARTCHAR 2343
ENCODING 9027
SWIDTH 1500 0
DWIDTH 18 0
BBX 18 19 0 -1
BITMAP
000000
041000
041000
441000
241000
141000
041000
05ff00
041000
041000
0c1000
141000
241000
441000
041000
04fe00
040000
000000
000000
ENDCHAR
STARTCHAR 2344
ENCODING 9028
SWIDTH 1500 0
DWIDTH 18 0
BBX 18 19 0 -1
BITMAP
000000
040000
07f800
080800
141000
222000
01c000
033800
1c8700
608000
1ffc00
108000
108000
1ffe00
008000
008000
008000
000000
000000
ENDCHAR
STARTCHAR 2345
ENCODING 9029
SWIDTH 1500 0
DWIDTH 18 0
BBX 18 19 0 -1
BITMAP
000000
007c00
1f8000
008000
008000
7fff00
012000
061000
180c00
641300
041000
041000
041000
081000
081000
101000
201000
000000
000000
ENDCHAR
STARTCHAR 2346
ENCODING 9030
SWIDTH 1500 0
DWIDTH 18 0
BBX 18 19 0 -1
BITMAP
000000
010000
010000
7fff00
022000
041000
080800
100400
641300
041000
041000
7fff00
041000
081000
081000
101000
201000
000000
000000
ENDCHAR
STARTCHAR 2347
ENCODING 9031
SWIDTH 1500 0
DWIDTH 18 0
BBX 18 19 0 -1
BITMAP
000000
080800
080800
080800
080800
7f7f00
080800
080800
080800
081400
141400
141400
122200
222200
214100
408100
410000
000000
000000
ENDCHAR
STARTCHAR 2348
ENCODING 9032
SWIDTH 1500 0
DWIDTH 18 0
BBX 18 19 0 -1
BITMAP
000000
010000
010000
7fff00
022000
041000
080800
100400
608300
008000
008000
7fff00
014000
022000
041000
180c00
600200
000000
000000
ENDCHAR
STARTCHAR 2349
ENCODING 9033
SWIDTH 1500 0
DWIDTH 18 0
BBX 18 19 0 -1
BITMAP
000000
200000
21fc00
244400
7e4400
244400
244400
244400
25f400
244400
444400
344400
084500
144500
224500
404500
004300
000000
000000
ENDCHAR
STARTCHAR 234a
ENCODING 9034
SWIDTH 1500 0
DWIDTH 18 0
BBX 18 19 0 -1
BITMAP
000000
202000
202400
242200
7e2000
25ff00
242000
242000
242000
242000
441000
341000
081000
140900
220900
400500
000300
000000
000000
ENDCHAR
STARTCHAR 234b
ENCODING 9035
SWIDTH 1500 0
DWIDTH 18 0
BBX 18 19 0 -1
BITMAP
000000
202000
202000
242000
7e7c00
244400
244400
248400
250800
240800
441000
341000
082800
144400
228400
410200
020100
000000
000000
ENDCHAR
STARTCHAR 234c
ENCODING 9036
SWIDTH 1500 0
DWIDTH 18 0
BBX 18 19 0 -1
BITMAP
000000
020000
021000
3ffe00
041000
0b2000
00d000
070800
380400
021000
7fff00
021000
041000
0b2000
00d000
070800
380400
000000
000000
ENDCHAR
STARTCHAR 234d
ENCODING 9037
SWIDTH 1500 0
DWIDTH 18 0
BBX 18 19 0 -1
BITMAP
000000
041000
041000
441000
241200
14ff00
042200
042200
042200
044200
0c4400
14b400
240800
441400
042200
044100
048100
000000
000000
ENDCHAR
STARTCHAR 234e
ENCODING 9038
SWIDTH 1500 0
DWIDTH 18 0
BBX 18 19 0 -1
BITMAP
000000
084200
108400
210800
108400
084200
000000
0ff800
001000
006000
008000
7fff00
008000
008000
008000
008000
038000
000000
000000
ENDCHAR
STARTCHAR 234f
ENCODING 9039
SWIDTH 1500 0
DWIDTH 18 0
BBX 18 19 0 -1
BITMAP
000000
010000
208000
3fff00
400100
420200
020000
03f000
041000
082000
104000
20c000
012000
021000
040800
080400
300300
000000
000000
ENDCHAR
STARTCHAR 2350
ENCODING 9040
SWIDTH 1500 0
DWIDTH 18 0
BBX 18 19 0 -1
BITMAP
000000
010000
208000
3fff00
400100
400200
1ff800
000800
000800
0ff800
080000
100000
1ffc00
000400
000400
000800
01f000
000000
000000
ENDCHAR
STARTCHAR 2351
ENCODING 9041
SWIDTH 1500 0
DWIDTH 18 0
BBX 18 19 0 -1
BITMAP
000000
008000
208200
108400
088800
008000
008000
3ffc00
000400
000400
000400
1ffc00
000400
000400
000400
3ffc00
000400
000000
000000
ENDCHAR
STARTCHAR 2352
ENCODING 9042
SWIDTH 1500 0
DWIDTH 18 0
BBX 18 19 0 -1
BITMAP
000000
008000
008000
088800
108400
208200
408100
000000
008000
008000
1ffc00
008000
008000
008000
008000
7fff00
000000
000000
000000
ENDCHAR
STARTCHAR 2353
ENCODING 9043
SWIDTH 1500 0
DWIDTH 18 0
BBX 18 19 0 -1
BITMAP
000000
000000
3ffe00
200200
200200
3ffe00
200000
23f800
200800
201000
202000
2fff00
202000
202000
402000
402000
00e000
000000
000000
ENDCHAR
STARTCHAR 2354
ENCODING 9044
SWIDTH 1500 0
DWIDTH 18 0
BBX 18 19 0 -1
BITMAP
000000
000000
1ffc00
100400
100400
100400
1ffc00
102000
102000
101000
110800
108400
104200
200100
210000
408000
004000
000000
000000
ENDCHAR
STARTCHAR 2355
ENCODING 9045
SWIDTH 1500 0
DWIDTH 18 0
BBX 18 19 0 -1
BITMAP
000000
100000
100000
11fe00
541000
541000
541000
541000
541000
541000
541000
541000
7c1000
441000
401000
01ff00
000000
000000
000000
ENDCHAR
STARTCHAR 2356
ENCODING 9046
SWIDTH 1500 0
DWIDTH 18 0
BBX 18 19 0 -1
BITMAP
000000
100000
10fe00
100200
540400
540800
541000
541000
55ff00
541000
541000
541000
7c1000
441000
401000
001000
007000
000000
000000
ENDCHAR
STARTCHAR 2357
ENCODING 9047
SWIDTH 1500 0
DWIDTH 18 0
BBX 18 19 0 -1
BITMAP
000000
010000
010000
7fff00
022000
041000
080800
108400
608300
008000
108400
108400
108400
108400
108400
1ffc00
100400
000000
000000
ENDCHAR
STARTCHAR 2358
ENCODING 9048
SWIDTH 1500 0
DWIDTH 18 0
BBX 18 19 0 -1
BITMAP
000000
000000
3ffc00
000400
000400
3ffc00
200000
200200
200200
1ffe00
008000
008000
208200
208200
208200
3ffe00
200200
000000
000000
ENDCHAR
STARTCHAR 2359
ENCODING 9049
SWIDTH 1500 0
DWIDTH 18 0
BBX 18 19 0 -1
BITMAP
000000
100000
10fe00
108200
548200
548200
548200
548200
54fe00
548200
548000
548000
7c8000
448000
408100
008100
007f00
000000
000000
ENDCHAR
STARTCHAR 235a
ENCODING 9050
SWIDTH 1500 0
DWIDTH 18 0
BBX 18 19 0 -1
BITMAP
000000
008000
108400
108400
108400
108400
1ffc00
000400
000000
008000
008000
208200
208200
208200
208200
3ffe00
000200
000000
000000
ENDCHAR
STARTCHAR 235b
ENCODING 9051
SWIDTH 1500 0
DWIDTH 18 0
BBX 18 19 0 -1
BITMAP
000000
108000
108000
114000
122000
141000
100000
1ffc00
000000
088800
088800
088800
088800
088800
108800
108800
200700
000000
000000
ENDCHAR
STARTCHAR 235c
ENCODING 9052
SWIDTH 1500 0
DWIDTH 18 0
BBX 18 19 0 -1
BITMAP
000000
080000
09ff00
081000
481000
28fe00
289200
289200
089200
089200
089200
089200
109200
109200
209600
201000
401000
000000
000000
ENDCHAR
STARTCHAR 235d
ENCODING 9053
SWIDTH 1500 0
DWIDTH 18 0
BBX 18 19 0 -1
BITMAP
000000
102000
104000
108000
7cf800
548800
548800
548800
548800
548800
548800
5c8800
508800
110800
110900
120900
140700
000000
000000
ENDCHAR
STARTCHAR 235e
ENCODING 9054
SWIDTH 1500 0
DWIDTH 18 0
BBX 18 19 0 -1
BITMAP
000000
008000
004000
3fff00
210000
210000
21f800
220800
221000
241000
282000
202000
205000
209000
410800
460400
180300
000000
000000
ENDCHAR
STARTCHAR 235f
ENCODING 9055
SWIDTH 1500 0
DWIDTH 18 0
BBX 18 19 0 -1
BITMAP
000000
008000
004000
3fff00
200000
200000
27fc00
204000
204000
204000
2ffe00
204000
204000
204000
404000
404000
01c000
000000
000000
ENDCHAR
STARTCHAR 2360
ENCODING 9056
SWIDTH 1500 0
DWIDTH 18 0
BBX 18 19 0 -1
BITMAP
000000
008000
004000
3fff00
200000
207800
278000
208000
208000
208000
2ffe00
208000
208000
208100
408100
408100
007f00
000000
000000
ENDCHAR
STARTCHAR 2361
ENCODING 9057
SWIDTH 1500 0
DWIDTH 18 0
BBX 18 19 0 -1
BITMAP
000000
000000
789200
089200
112400
212400
424800
7a4800
0c9000
0a4800
092400
492400
289200
109200
280000
460000
01ff00
000000
000000
ENDCHAR
STARTCHAR 2362
ENCODING 9058
SWIDTH 1500 0
DWIDTH 18 0
BBX 18 19 0 -1
BITMAP
000000
002800
002400
002200
7fff00
002000
002000
002000
3fa000
001000
001000
1f1000
000800
000900
7fc500
000300
000100
000000
000000
ENDCHAR
STARTCHAR 2363
ENCODING 9059
SWIDTH 1500 0
DWIDTH 18 0
BBX 18 19 0 -1
BITMAP
000000
008000
7c8000
048000
04ff00
3d0100
210100
220100
404100
7c2100
441100
041100
040100
040100
040100
040200
181c00
000000
000000
ENDCHAR
STARTCHAR 2364
ENCODING 9060
SWIDTH 1500 0
DWIDTH 18 0
BBX 18 19 0 -1
BITMAP
000000
000000
79fe00
080000
080000
380000
23ff00
202000
404000
788000
48fe00
080200
080200
080200
080200
080400
301800
000000
000000
ENDCHAR
STARTCHAR 2365
ENCODING 9061
SWIDTH 1500 0
DWIDTH 18 0
BBX 18 19 0 -1
BITMAP
000000
000800
181000
062000
01c000
013000
060c00
180200
600000
000000
048000
044000
244400
240200
240900
440900
03f800
000000
000000
ENDCHAR
STARTCHAR 2366
ENCODING 9062
SWIDTH 1500 0
DWIDTH 18 0
BBX 18 19 0 -1
BITMAP
000000
100000
10fe00
101000
581000
541000
541000
501000
11ff00
101000
101000
101000
101000
101000
101000
101000
101000
000000
000000
ENDCHAR
STARTCHAR 2367
ENCODING 9063
SWIDTH 1500 0
DWIDTH 18 0
BBX 18 19 0 -1
BITMAP
000000
101000
109000
109000
589000
549e00
54f200
539200
109200
109200
109200
109400
109000
108100
108100
108100
107f00
000000
000000
ENDCHAR
STARTCHAR 2368
ENCODING 9064
SWIDTH 1500 0
DWIDTH 18 0
BBX 18 19 0 -1
BITMAP
000000
100000
11fe00
102200
582200
542200
542200
512200
10a200
106200
102200
105200
104a00
108200
110200
120400
143800
000000
000000
ENDCHAR
STARTCHAR 2369
ENCODING 9065
SWIDTH 1500 0
DWIDTH 18 0
BBX 18 19 0 -1
BITMAP
000000
100000
11f800
110800
590800
550800
550800
510800
110800
116800
110800
110800
110800
110900
120900
120900
140700
000000
000000
ENDCHAR
STARTCHAR 236a
ENCODING 9066
SWIDTH 1500 0
DWIDTH 18 0
BBX 18 19 0 -1
BITMAP
000000
011000
010800
010000
3ffe00
010000
010000
1ffc00
010000
010000
7fff00
008400
005800
002000
00d100
070d00
380300
000000
000000
ENDCHAR
STARTCHAR 236b
ENCODING 9067
SWIDTH 1500 0
DWIDTH 18 0
BBX 18 19 0 -1
BITMAP
000000
002000
002800
7c2400
042200
042000
05ff00
442000
242100
182200
082400
141800
121000
222900
204500
418300
060100
000000
000000
ENDCHAR
STARTCHAR 236c
ENCODING 9068
SWIDTH 1500 0
DWIDTH 18 0
BBX 18 19 0 -1
BITMAP
000000
100000
11fe00
100000
7c0000
100000
13ff00
102000
104000
1c8000
70fe00
100200
100200
100200
100200
100400
301800
000000
000000
ENDCHAR
STARTCHAR 236d
ENCODING 9069
SWIDTH 1500 0
DWIDTH 18 0
BBX 18 19 0 -1
BITMAP
000000
100000
13f800
108800
7c8800
108800
108800
108800
13f800
1c8800
708800
108800
108900
108500
108500
108300
308100
000000
000000
ENDCHAR
STARTCHAR 236e
ENCODING 9070
SWIDTH 1500 0
DWIDTH 18 0
BBX 18 19 0 -1
BITMAP
000000
104000
104000
104000
7c4000
13fc00
104400
104400
114400
1cc400
706400
105400
104400
108500
108500
110500
320300
000000
000000
ENDCHAR
STARTCHAR 236f
ENCODING 9071
SWIDTH 1500 0
DWIDTH 18 0
BBX 18 19 0 -1
BITMAP
000000
102000
102000
102000
7c2000
102000
102000
13fe00
102000
1c2000
702000
102000
102000
102000
102000
17ff00
300000
000000
000000
ENDCHAR
STARTCHAR 2370
ENCODING 9072
SWIDTH 1500 0
DWIDTH 18 0
BBX 18 19 0 -1
BITMAP
000000
010000
008000
7fff00
041000
022000
01c000
063000
180c00
600300
041000
041000
041000
081000
081000
101000
201000
000000
000000
ENDCHAR
STARTCHAR 2371
ENCODING 9073
SWIDTH 1500 0
DWIDTH 18 0
BBX 18 19 0 -1
BITMAP
000000
101000
081000
081000
7f1000
101000
101000
101000
1e2800
122800
122800
122400
124400
224400
224200
428200
0d0100
000000
000000
ENDCHAR
STARTCHAR 2372
ENCODING 9074
SWIDTH 1500 0
DWIDTH 18 0
BBX 18 19 0 -1
BITMAP
000000
000000
01fe00
7c2200
442200
442200
442200
442200
7c2200
442200
444200
444200
444200
7c8200
448200
010400
021800
000000
000000
ENDCHAR
STARTCHAR 2373
ENCODING 9075
SWIDTH 1500 0
DWIDTH 18 0
BBX 18 19 0 -1
BITMAP
000000
001000
001000
7c1000
441000
441000
441000
45ff00
7c1000
441000
441000
441000
441000
7c1000
441000
001000
001000
000000
000000
ENDCHAR
STARTCHAR 2374
ENCODING 9076
SWIDTH 1500 0
DWIDTH 18 0
BBX 18 19 0 -1
BITMAP
000000
008000
008000
008000
1ffc00
108400
108400
1ffc00
108400
108400
1ffc00
008000
014000
022000
041000
080c00
300300
000000
000000
ENDCHAR
STARTCHAR 2375
ENCODING 9077
SWIDTH 1500 0
DWIDTH 18 0
BBX 18 19 0 -1
BITMAP
000000
080000
09fe00
082200
7f2200
082200
082200
182200
1c2200
2a2200
294200
484200
484200
088200
088200
090400
0a1800
000000
000000
ENDCHAR
STARTCHAR 2376
ENCODING 9078
SWIDTH 1500 0
DWIDTH 18 0
BBX 18 19 0 -1
BITMAP
000000
080000
09fe00
084200
7e4200
084400
084800
184f00
1c4100
2a4100
294100
484100
488100
088100
090100
090200
0a1c00
000000
000000
ENDCHAR
STARTCHAR 2377
ENCODING 9079
SWIDTH 1500 0
DWIDTH 18 0
BBX 18 19 0 -1
BITMAP
000000
081000
081000
081000
7f1000
081000
081000
181000
1c2800
2a2800
292800
482400
484400
084400
084200
088200
090100
000000
000000
ENDCHAR
STARTCHAR 2378
ENCODING 9080
SWIDTH 1500 0
DWIDTH 18 0
BBX 18 19 0 -1
BITMAP
000000
000000
3ff000
041000
042000
047e00
080200
100200
208c00
008000
7fff00
008000
088800
108400
208200
408100
008000
000000
000000
ENDCHAR
STARTCHAR 2379
ENCODING 9081
SWIDTH 1500 0
DWIDTH 18 0
BBX 18 19 0 -1
BITMAP
000000
004000
004000
7c4000
048000
04ff00
049100
451200
251000
181000
082800
142800
124400
224400
208200
410200
020100
000000
000000
ENDCHAR
STARTCHAR 237a
ENCODING 9082
SWIDTH 1500 0
DWIDTH 18 0
BBX 18 19 0 -1
BITMAP
000000
100000
100000
1ffe00
200000
200000
5ffc00
108400
108400
108400
7fff00
210400
210400
210400
3fff00
000800
007000
000000
000000
ENDCHAR
STARTCHAR 237b
ENCODING 9083
SWIDTH 1500 0
DWIDTH 18 0
BBX 18 19 0 -1
BITMAP
000000
0c0000
71fc00
104400
104800
105000
7c5e00
104200
104200
108200
7e8200
110200
110200
121c00
100100
100100
0fff00
000000
000000
ENDCHAR
STARTCHAR 237c
ENCODING 9084
SWIDTH 1500 0
DWIDTH 18 0
BBX 18 19 0 -1
BITMAP
000000
003c00
21e000
102000
002000
402000
202000
002000
17ff00
102000
102000
202000
202000
202000
402000
402000
002000
000000
000000
ENDCHAR
STARTCHAR 237d
ENCODING 9085
SWIDTH 1500 0
DWIDTH 18 0
BBX 18 19 0 -1
BITMAP
000000
003c00
23c000
104000
004000
404000
204000
07fe00
104000
104000
104000
204000
204100
204100
404100
403f00
000000
000000
000000
ENDCHAR
STARTCHAR 237e
ENCODING 9086
SWIDTH 1500 0
DWIDTH 18 0
BBX 18 19 0 -1
BITMAP
000000
008000
208000
108000
00fc00
410400
210400
028400
148800
108800
105000
205000
202000
205000
408800
430400
0c0300
000000
000000
ENDCHAR
STARTCHAR 2421
ENCODING 9249
SWIDTH 1500 0
DWIDTH 18 0
BBX 18 19 0 -1
BITMAP
000000
008000
008800
3ed000
02a000
049000
188c00
608300
038000
000000
008000
008000
014000
022000
041000
080c00
300300
000000
000000
ENDCHAR
STARTCHAR 2422
ENCODING 9250
SWIDTH 1500 0
DWIDTH 18 0
BBX 18 19 0 -1
BITMAP
000000
082000
082000
102000
102100
27a200
30a400
50b000
50a800
112800
112400
112400
122200
122100
142000
102000
10e000
000000
000000
ENDCHAR
STARTCHAR 2423
ENCODING 9251
SWIDTH 1500 0
DWIDTH 18 0
BBX 18 19 0 -1
BITMAP
000000
000000
23fe00
104000
004000
404000
27ff00
008000
108000
110000
11fe00
200200
200200
200200
400200
400400
003800
000000
000000
ENDCHAR
STARTCHAR 2424
ENCODING 9252
SWIDTH 1500 0
DWIDTH 18 0
BBX 18 19 0 -1
BITMAP
000000
200000
11fe00
080200
400200
200200
100200
000200
09fe00
090200
110000
110000
210000
210000
410100
410100
00ff00
000000
000000
ENDCHAR
STARTCHAR 2425
ENCODING 9253
SWIDTH 1500 0
DWIDTH 18 0
BBX 18 19 0 -1
BITMAP
000000
000000
23fe00
100400
000800
401000
202000
002000
17ff00
102000
102000
202000
202000
202000
402000
402000
00e000
000000
000000
ENDCHAR
STARTCHAR 2426
ENCODING 9254
SWIDTH 1500 0
DWIDTH 18 0
BBX 18 19 0 -1
BITMAP
000000
100000
13ff00
101000
101000
541000
541000
581000
101000
101000
101000
101000
281000
241000
241000
401000
407000
000000
000000
ENDCHAR
STARTCHAR 2427
ENCODING 9255
SWIDTH 1500 0
DWIDTH 18 0
BBX 18 19 0 -1
BITMAP
000000
040200
040200
042200
04a200
44a200
252200
262200
142200
042200
042200
042200
0a2200
092200
108200
208200
400e00
000000
000000
ENDCHAR
STARTCHAR 2428
ENCODING 9256
SWIDTH 1500 0
DWIDTH 18 0
BBX 18 19 0 -1
BITMAP
000000
008000
108400
088800
089000
016000
061800
180600
600100
042000
042000
042000
042000
082100
082100
102100
201f00
000000
000000
ENDCHAR
STARTCHAR 2429
ENCODING 9257
SWIDTH 1500 0
DWIDTH 18 0
BBX 18 19 0 -1
BITMAP
000000
000000
3fff00
200000
204000
204000
284400
244800
225000
224000
20a000
20a000
211000
211000
420800
440400
180300
000000
000000
ENDCHAR
STARTCHAR 242a
ENCODING 9258
SWIDTH 1500 0
DWIDTH 18 0
BBX 18 19 0 -1
BITMAP
000000
000000
1ffc00
100400
108400
108400
149400
149400
12a400
12c400
108400
114500
114500
222500
222300
441100
080800
000000
000000
ENDCHAR
STARTCHAR 242b
ENCODING 9259
SWIDTH 1500 0
DWIDTH 18 0
BBX 18 19 0 -1
BITMAP
000000
080000
080000
0fff00
100100
108100
208100
408900
089100
04a100
048200
014c00
014000
022000
041000
080c00
300300
000000
000000
ENDCHAR
STARTCHAR 242c
ENCODING 9260
SWIDTH 1500 0
DWIDTH 18 0
BBX 18 19 0 -1
BITMAP
000000
004000
444000
284000
104000
2bfc00
484400
084400
094400
18c400
286400
485400
084400
088500
088500
090500
320300
000000
000000
ENDCHAR
STARTCHAR 242d
ENCODING 9261
SWIDTH 1500 0
DWIDTH 18 0
BBX 18 19 0 -1
BITMAP
000000
000800
440800
280800
100800
29ff00
480800
080800
081800
182800
284800
488800
090800
0a0800
080800
080800
703800
000000
000000
ENDCHAR
STARTCHAR 242e
ENCODING 9262
SWIDTH 1500 0
DWIDTH 18 0
BBX 18 19 0 -1
BITMAP
000000
000000
001000
7c1000
101000
101000
102000
7c2000
102000
104000
104000
104400
1e8200
708200
011d00
01e100
000100
000000
000000
ENDCHAR
STARTCHAR 242f
ENCODING 9263
SWIDTH 1500 0
DWIDTH 18 0
BBX 18 19 0 -1
BITMAP
000000
002000
002000
7c2000
102000
13fe00
102200
7c2200
102200
102200
102200
104200
1e4200
708200
008200
010400
021800
000000
000000
ENDCHAR
STARTCHAR 2430
ENCODING 9264
SWIDTH 1500 0
DWIDTH 18 0
BBX 18 19 0 -1
BITMAP
000000
002000
002000
7f2000
082000
083000
082800
3e2400
082200
082100
082000
082000
0f2000
782000
002000
002000
002000
000000
000000
ENDCHAR
STARTCHAR 2431
ENCODING 9265
SWIDTH 1500 0
DWIDTH 18 0
BBX 18 19 0 -1
BITMAP
000000
000200
000200
7f2200
082200
082200
082200
082200
3e2200
082200
082200
082200
082200
0f2200
780200
000200
000e00
000000
000000
ENDCHAR
STARTCHAR 2432
ENCODING 9266
SWIDTH 1500 0
DWIDTH 18 0
BBX 18 19 0 -1
BITMAP
000000
000000
7fff00
020000
022000
041000
040800
080800
100000
2ffc00
480400
080400
080400
080400
080400
0ffc00
080400
000000
000000
ENDCHAR
STARTCHAR 2433
ENCODING 9267
SWIDTH 1500 0
DWIDTH 18 0
BBX 18 19 0 -1
BITMAP
000000
102000
082000
082000
7f2000
022000
042000
082000
082000
1c2000
2a2000
492000
082000
082100
082100
082100
081f00
000000
000000
ENDCHAR
STARTCHAR 2434
ENCODING 9268
SWIDTH 1500 0
DWIDTH 18 0
BBX 18 19 0 -1
BITMAP
000000
010000
008000
008000
3ffe00
080800
041000
041000
022000
7fff00
008000
008000
008000
008000
008000
008000
008000
000000
000000
ENDCHAR
STARTCHAR 2435
ENCODING 9269
SWIDTH 1500 0
DWIDTH 18 0
BBX 18 19 0 -1
BITMAP
000000
004000
3c4000
244000
244000
25f800
344800
2c4800
244800
244800
2c4800
344800
244900
244900
248900
448700
4d0000
000000
000000
ENDCHAR
STARTCHAR 2436
ENCODING 9270
SWIDTH 1500 0
DWIDTH 18 0
BBX 18 19 0 -1
BITMAP
000000
000000
200000
3fff00
400100
400200
0ff800
080800
0b0800
08c800
080800
083800
08c800
170800
100800
200800
403800
000000
000000
ENDCHAR
STARTCHAR 2437
ENCODING 9271
SWIDTH 1500 0
DWIDTH 18 0
BBX 18 19 0 -1
BITMAP
000000
080800
080800
7f7f00
080800
080800
000000
7fff00
020000
040000
07fc00
000400
000400
000400
000400
000800
007000
000000
000000
ENDCHAR
STARTCHAR 2438
ENCODING 9272
SWIDTH 1500 0
DWIDTH 18 0
BBX 18 19 0 -1
BITMAP
000000
080800
080800
7f7f00
080800
080800
010000
010000
7ffe00
010200
010200
020200
020200
040200
080200
100400
603800
000000
000000
ENDCHAR
STARTCHAR 2439
ENCODING 9273
SWIDTH 1500 0
DWIDTH 18 0
BBX 18 19 0 -1
BITMAP
000000
080800
080800
7f7f00
080800
080800
008000
004000
004000
022000
022000
041000
041000
080800
080400
100200
200100
000000
000000
ENDCHAR
STARTCHAR 243a
ENCODING 9274
SWIDTH 1500 0
DWIDTH 18 0
BBX 18 19 0 -1
BITMAP
000000
008000
008000
008000
3ffe00
008000
008000
008000
7fff00
000000
180c00
043000
00c000
030000
040000
1b8000
207f00
000000
000000
ENDCHAR
STARTCHAR 243b
ENCODING 9275
SWIDTH 1500 0
DWIDTH 18 0
BBX 18 19 0 -1
BITMAP
000000
000000
204000
104000
084000
03fe00
704200
104200
104200
208200
708200
110200
120400
141800
200000
580000
07ff00
000000
000000
ENDCHAR
STARTCHAR 243c
ENCODING 9276
SWIDTH 1500 0
DWIDTH 18 0
BBX 18 19 0 -1
BITMAP
000000
080000
083f00
082100
492100
492200
492400
492200
492100
492100
492100
492100
492100
7f2e00
412000
002000
002000
000000
000000
ENDCHAR
STARTCHAR 243d
ENCODING 9277
SWIDTH 1500 0
DWIDTH 18 0
BBX 18 19 0 -1
BITMAP
000000
100000
103f00
112100
112200
7fa400
112800
112400
212200
212100
422100
222100
142100
082600
142000
222000
412000
000000
000000
ENDCHAR
STARTCHAR 243e
ENCODING 9278
SWIDTH 1500 0
DWIDTH 18 0
BBX 18 19 0 -1
BITMAP
000000
000000
7cfe00
440200
480400
480800
501000
481000
49ff00
441000
441000
441000
581000
401000
401000
401000
407000
000000
000000
ENDCHAR
STARTCHAR 243f
ENCODING 9279
SWIDTH 1500 0
DWIDTH 18 0
BBX 18 19 0 -1
BITMAP
000000
000000
7fff00
022000
022000
022000
3ffe00
222200
222200
252200
255200
284a00
288a00
308a00
210200
200200
200600
000000
000000
ENDCHAR
STARTCHAR 2440
ENCODING 9280
SWIDTH 1500 0
DWIDTH 18 0
BBX 18 19 0 -1
BITMAP
000000
039000
3c1000
041000
041000
041000
7fd000
041000
041000
041000
3f9000
209000
209000
209100
209100
3f9100
208f00
000000
000000
ENDCHAR
STARTCHAR 2441
ENCODING 9281
SWIDTH 1500 0
DWIDTH 18 0
BBX 18 19 0 -1
BITMAP
000000
000000
03fc00
020400
020400
7a0400
020400
020400
03fc00
029400
009000
009000
791000
011100
021100
041100
080f00
000000
000000
ENDCHAR
STARTCHAR 2442
ENCODING 9282
SWIDTH 1500 0
DWIDTH 18 0
BBX 18 19 0 -1
BITMAP
000000
000000
3ffe00
022000
022000
022000
3ffe00
222200
222200
222200
3ffe00
222200
022000
022000
022000
7fff00
000000
000000
000000
ENDCHAR
STARTCHAR 2443
ENCODING 9283
SWIDTH 1500 0
DWIDTH 18 0
BBX 18 19 0 -1
BITMAP
000000
082000
082000
102000
13fe00
202000
302000
502000
57ff00
102000
107000
10a800
112400
122200
142100
102000
102000
000000
000000
ENDCHAR
STARTCHAR 2444
ENCODING 9284
SWIDTH 1500 0
DWIDTH 18 0
BBX 18 19 0 -1
BITMAP
000000
081000
081000
11ff00
111100
211100
311200
511000
51fe00
114200
114200
114400
112800
121000
122800
144400
118300
000000
000000
ENDCHAR
STARTCHAR 2445
ENCODING 9285
SWIDTH 1500 0
DWIDTH 18 0
BBX 18 19 0 -1
BITMAP
000000
080000
09fc00
110400
110400
210400
31fc00
510400
510400
110400
11fc00
110400
110400
110400
110400
17ff00
100000
000000
000000
ENDCHAR
STARTCHAR 2446
ENCODING 9286
SWIDTH 1500 0
DWIDTH 18 0
BBX 18 19 0 -1
BITMAP
000000
082000
082000
102000
102000
23fe00
322200
522200
522200
122200
13fe00
122200
122200
122200
122200
13fe00
120200
000000
000000
ENDCHAR
STARTCHAR 2447
ENCODING 9287
SWIDTH 1500 0
DWIDTH 18 0
BBX 18 19 0 -1
BITMAP
000000
088800
088800
108800
110800
213f00
322900
514900
50c900
108900
110900
110900
124900
14c900
172900
101100
102600
000000
000000
ENDCHAR
STARTCHAR 2448
ENCODING 9288
SWIDTH 1500 0
DWIDTH 18 0
BBX 18 19 0 -1
BITMAP
000000
080000
09ff00
110100
110100
21ff00
310000
512000
512000
112000
113f00
112000
112000
122100
122100
141f00
100000
000000
000000
ENDCHAR
STARTCHAR 2449
ENCODING 9289
SWIDTH 1500 0
DWIDTH 18 0
BBX 18 19 0 -1
BITMAP
000000
080000
0bfe00
102000
102000
202000
302000
512000
513e00
112000
112000
112000
112000
112000
112000
17ff00
100000
000000
000000
ENDCHAR
STARTCHAR 244a
ENCODING 9290
SWIDTH 1500 0
DWIDTH 18 0
BBX 18 19 0 -1
BITMAP
000000
080000
0bfe00
102000
102000
202000
33fe00
522200
525200
125200
128a00
128600
130200
120200
120200
120200
120e00
000000
000000
ENDCHAR
STARTCHAR 244b
ENCODING 9291
SWIDTH 1500 0
DWIDTH 18 0
BBX 18 19 0 -1
BITMAP
000000
090400
090400
110400
110400
27ff00
310400
510400
510400
110400
11fc00
110400
110400
110400
110400
11fc00
110400
000000
000000
ENDCHAR
STARTCHAR 244c
ENCODING 9292
SWIDTH 1500 0
DWIDTH 18 0
BBX 18 19 0 -1
BITMAP
000000
080000
09fe00
102200
102200
204200
304200
508200
510c00
120000
11fe00
110200
110200
110200
110200
11fe00
110200
000000
000000
ENDCHAR
STARTCHAR 244d
ENCODING 9293
SWIDTH 1500 0
DWIDTH 18 0
BBX 18 19 0 -1
BITMAP
000000
080000
09fc00
110400
114400
212400
312400
510400
57ff00
120400
124400
122400
122400
120400
13ff00
100400
101800
000000
000000
ENDCHAR
STARTCHAR 244e
ENCODING 9294
SWIDTH 1500 0
DWIDTH 18 0
BBX 18 19 0 -1
BITMAP
000000
080000
09fe00
110200
110200
210200
31fe00
510000
510000
110000
11fe00
110200
110200
110200
110200
11fe00
110000
000000
000000
ENDCHAR
STARTCHAR 244f
ENCODING 9295
SWIDTH 1500 0
DWIDTH 18 0
BBX 18 19 0 -1
BITMAP
000000
080000
080000
13ff00
124900
224900
324900
524900
524900
124900
124900
128700
130100
120100
120100
13ff00
100000
000000
000000
ENDCHAR
STARTCHAR 2450
ENCODING 9296
SWIDTH 1500 0
DWIDTH 18 0
BBX 18 19 0 -1
BITMAP
000000
082000
082000
105000
108800
208400
312200
522100
542000
102000
112800
112400
122200
122100
142000
102000
10e000
000000
000000
ENDCHAR
STARTCHAR 2451
ENCODING 9297
SWIDTH 1500 0
DWIDTH 18 0
BBX 18 19 0 -1
BITMAP
000000
081000
042000
024000
1ff800
100800
100800
100800
100800
1ff800
042000
042000
082000
082200
102200
202200
401e00
000000
000000
ENDCHAR
STARTCHAR 2452
ENCODING 9298
SWIDTH 1500 0
DWIDTH 18 0
BBX 18 19 0 -1
BITMAP
000000
000000
1ff800
040800
040800
087000
100000
3ffc00
108400
108400
1ffc00
014000
024000
044000
084200
104200
603e00
000000
000000
ENDCHAR
STARTCHAR 2453
ENCODING 9299
SWIDTH 1500 0
DWIDTH 18 0
BBX 18 19 0 -1
BITMAP
000000
000000
11fc00
110400
110400
11fc00
110400
110400
11fc00
110400
000000
022000
022000
022200
042200
082200
301e00
000000
000000
ENDCHAR
STARTCHAR 2454
ENCODING 9300
SWIDTH 1500 0
DWIDTH 18 0
BBX 18 19 0 -1
BITMAP
000000
007c00
1f8000
008000
008000
1ffc00
108400
108400
108400
1ffc00
012000
012800
022400
022400
042100
082100
301f00
000000
000000
ENDCHAR
STARTCHAR 2455
ENCODING 9301
SWIDTH 1500 0
DWIDTH 18 0
BBX 18 19 0 -1
BITMAP
000000
000000
3ffe00
208200
208200
28a200
249200
249200
249200
2aaa00
2aaa00
29a600
28a200
30c200
208200
208200
208600
000000
000000
ENDCHAR
STARTCHAR 2456
ENCODING 9302
SWIDTH 1500 0
DWIDTH 18 0
BBX 18 19 0 -1
BITMAP
000000
000000
1ffc00
100400
108400
108400
108400
114400
112400
121400
141400
100400
7fff00
000000
080800
100400
200200
000000
000000
ENDCHAR
STARTCHAR 2457
ENCODING 9303
SWIDTH 1500 0
DWIDTH 18 0
BBX 18 19 0 -1
BITMAP
000000
000000
200000
3fff00
400100
400200
0ff800
080800
080800
0ff800
080800
080800
0ff800
080800
080800
7fff00
000000
000000
000000
ENDCHAR
STARTCHAR 2458
ENCODING 9304
SWIDTH 1500 0
DWIDTH 18 0
BBX 18 19 0 -1
BITMAP
000000
000000
07ff00
404000
204000
204000
008000
008000
11fe00
130200
150200
290200
210200
210200
410200
41fe00
010200
000000
000000
ENDCHAR
STARTCHAR 2459
ENCODING 9305
SWIDTH 1500 0
DWIDTH 18 0
BBX 18 19 0 -1
BITMAP
000000
000000
03fc00
420400
220400
220400
020400
020400
13fc00
129400
109000
209000
209000
211000
421100
441100
180f00
000000
000000
ENDCHAR
STARTCHAR 245a
ENCODING 9306
SWIDTH 1500 0
DWIDTH 18 0
BBX 18 19 0 -1
BITMAP
000000
002000
002000
422200
212200
212400
002000
03fe00
102000
102000
102000
27ff00
202000
202000
402000
402000
002000
000000
000000
ENDCHAR
STARTCHAR 245b
ENCODING 9307
SWIDTH 1500 0
DWIDTH 18 0
BBX 18 19 0 -1
BITMAP
000000
000000
1ffc00
100400
100400
17f400
100400
100400
13e400
122400
122400
13e400
122500
222500
23e300
422100
000000
000000
000000
ENDCHAR
STARTCHAR 245c
ENCODING 9308
SWIDTH 1500 0
DWIDTH 18 0
BBX 18 19 0 -1
BITMAP
000000
000000
080100
081100
101100
111100
209100
239100
7c5100
001100
3f9100
209100
209100
208100
208100
3f8100
208700
000000
000000
ENDCHAR
STARTCHAR 245d
ENCODING 9309
SWIDTH 1500 0
DWIDTH 18 0
BBX 18 19 0 -1
BITMAP
000000
080000
080000
08ff00
3e1100
081100
081100
081100
081100
7f1100
102100
102100
242100
224100
4e4200
728200
010c00
000000
000000
ENDCHAR
STARTCHAR 245e
ENCODING 9310
SWIDTH 1500 0
DWIDTH 18 0
BBX 18 19 0 -1
BITMAP
000000
040200
040200
042200
1f2200
042200
042200
042200
042200
7fa200
082200
082200
122200
110200
268200
788200
000e00
000000
000000
ENDCHAR
STARTCHAR 245f
ENCODING 9311
SWIDTH 1500 0
DWIDTH 18 0
BBX 18 19 0 -1
BITMAP
000000
000200
7f0200
092200
092200
112200
112200
212200
462200
002200
3f2200
212200
212200
210200
210200
3f0200
210e00
000000
000000
ENDCHAR
STARTCHAR 2460
ENCODING 9312
SWIDTH 1500 0
DWIDTH 18 0
BBX 18 19 0 -1
BITMAP
000000
000000
3f8100
209100
209100
209100
3f9100
081100
081100
7f9100
089100
089100
089100
108100
108100
210100
460600
000000
000000
ENDCHAR
STARTCHAR 2461
ENCODING 9313
SWIDTH 1500 0
DWIDTH 18 0
BBX 18 19 0 -1
BITMAP
000000
000000
3de100
252500
252500
252500
252500
252500
7ff500
252500
252500
252500
252500
252100
252100
252100
2d6300
000000
000000
ENDCHAR
STARTCHAR 2462
ENCODING 9314
SWIDTH 1500 0
DWIDTH 18 0
BBX 18 19 0 -1
BITMAP
000000
010200
208400
108800
101000
000000
7fff00
410100
410200
010000
1ffc00
020400
020400
040400
080400
100800
203000
000000
000000
ENDCHAR
STARTCHAR 2463
ENCODING 9315
SWIDTH 1500 0
DWIDTH 18 0
BBX 18 19 0 -1
BITMAP
000000
041000
041000
7fff00
041000
041000
200000
3fff00
410100
410200
010000
1ffc00
020400
040400
080400
100800
203000
000000
000000
ENDCHAR
STARTCHAR 2464
ENCODING 9316
SWIDTH 1500 0
DWIDTH 18 0
BBX 18 19 0 -1
BITMAP
000000
081000
081000
491000
491000
497f00
491100
7f1100
081100
491100
491100
491100
491100
492100
7f2100
414100
008600
000000
000000
ENDCHAR
STARTCHAR 2465
ENCODING 9317
SWIDTH 1500 0
DWIDTH 18 0
BBX 18 19 0 -1
BITMAP
000000
3ffe00
200000
208000
210800
223400
27c400
200000
211000
211000
2ffe00
211000
211000
221000
241000
200000
3fff00
000000
000000
ENDCHAR
STARTCHAR 2466
ENCODING 9318
SWIDTH 1500 0
DWIDTH 18 0
BBX 18 19 0 -1
BITMAP
000000
000000
7fff00
220000
220000
23fc00
244000
284000
204000
2ffe00
208000
211800
220400
2c0200
200000
1fff00
000000
000000
000000
ENDCHAR
STARTCHAR 2467
ENCODING 9319
SWIDTH 1500 0
DWIDTH 18 0
BBX 18 19 0 -1
BITMAP
000000
040000
041f00
041100
3f9100
041100
041100
041100
041100
7fd100
081100
081100
121100
111700
269000
789000
001000
000000
000000
ENDCHAR
STARTCHAR 2468
ENCODING 9320
SWIDTH 1500 0
DWIDTH 18 0
BBX 18 19 0 -1
BITMAP
000000
000000
3fff00
200000
208000
204000
2ffe00
200000
200400
240400
220800
210800
211000
209000
40a000
5fff00
000000
000000
000000
ENDCHAR
STARTCHAR 2469
ENCODING 9321
SWIDTH 1500 0
DWIDTH 18 0
BBX 18 19 0 -1
BITMAP
000000
000000
3fff00
204000
204000
204000
2ffe00
204000
204000
204000
27fc00
240400
240400
240400
440400
47fc00
040400
000000
000000
ENDCHAR
STARTCHAR 246a
ENCODING 9322
SWIDTH 1500 0
DWIDTH 18 0
BBX 18 19 0 -1
BITMAP
000000
000000
3fff00
200000
200000
2ffe00
284200
284200
2ffe00
284200
284200
2ffe00
204000
204000
404000
404000
004000
000000
000000
ENDCHAR
STARTCHAR 246b
ENCODING 9323
SWIDTH 1500 0
DWIDTH 18 0
BBX 18 19 0 -1
BITMAP
000000
004000
002000
782000
4bff00
484000
484000
487e00
484200
484200
484200
784200
488200
008200
010200
020400
0c1800
000000
000000
ENDCHAR
STARTCHAR 246c
ENCODING 9324
SWIDTH 1500 0
DWIDTH 18 0
BBX 18 19 0 -1
BITMAP
000000
001000
001000
7c1e00
44f000
441000
441000
441000
44fe00
441000
441000
7c1000
45ff00
001000
001000
001000
001000
000000
000000
ENDCHAR
STARTCHAR 246d
ENCODING 9325
SWIDTH 1500 0
DWIDTH 18 0
BBX 18 19 0 -1
BITMAP
000000
000000
01fe00
780000
480000
480000
480000
4bff00
482000
482000
484000
784400
488200
008200
011f00
03e100
000100
000000
000000
ENDCHAR
STARTCHAR 246e
ENCODING 9326
SWIDTH 1500 0
DWIDTH 18 0
BBX 18 19 0 -1
BITMAP
000000
002000
002000
782000
482000
4bfe00
482000
487000
48a800
48a800
492400
792400
4a2200
042100
002000
002000
002000
000000
000000
ENDCHAR
STARTCHAR 246f
ENCODING 9327
SWIDTH 1500 0
DWIDTH 18 0
BBX 18 19 0 -1
BITMAP
000000
002000
002400
782200
482200
482000
4bff00
482000
482000
485000
485000
789000
489000
011100
021100
041100
080f00
000000
000000
ENDCHAR
STARTCHAR 2470
ENCODING 9328
SWIDTH 1500 0
DWIDTH 18 0
BBX 18 19 0 -1
BITMAP
000000
000000
00f800
788800
488800
488800
490f00
4a0000
49fc00
480400
488800
784800
485000
002000
005000
008c00
030300
000000
000000
ENDCHAR
STARTCHAR 2471
ENCODING 9329
SWIDTH 1500 0
DWIDTH 18 0
BBX 18 19 0 -1
BITMAP
000000
001000
000800
784800
484400
488400
488200
490200
4a2100
482000
484000
784000
488400
008200
010f00
01f100
000000
000000
000000
ENDCHAR
STARTCHAR 2472
ENCODING 9330
SWIDTH 1500 0
DWIDTH 18 0
BBX 18 19 0 -1
BITMAP
000000
010000
008000
008000
3ffe00
208200
214200
222200
241200
280a00
27f200
241200
241200
241200
27f200
200200
200e00
000000
000000
ENDCHAR
STARTCHAR 2473
ENCODING 9331
SWIDTH 1500 0
DWIDTH 18 0
BBX 18 19 0 -1
BITMAP
000000
3ff800
040800
041000
083f00
080100
108100
208e00
408000
3ffe00
008000
008000
1ffc00
100400
100400
1ffc00
100400
000000
000000
ENDCHAR
STARTCHAR 2474
ENCODING 9332
SWIDTH 1500 0
DWIDTH 18 0
BBX 18 19 0 -1
BITMAP
000000
000400
000400
7c4400
442400
441400
440400
448400
444400
442400
440400
7c0400
45ff00
000400
000400
000400
000400
000000
000000
ENDCHAR
STARTCHAR 2475
ENCODING 9333
SWIDTH 1500 0
DWIDTH 18 0
BBX 18 19 0 -1
BITMAP
000000
002000
001000
780800
484000
484000
484000
484000
494200
494200
494100
7a4100
424100
024400
004400
003c00
000000
000000
000000
ENDCHAR
STARTCHAR 2476
ENCODING 9334
SWIDTH 1500 0
DWIDTH 18 0
BBX 18 19 0 -1
BITMAP
000000
000000
01fe00
782200
482200
482200
4bff00
482200
482200
482200
49fe00
782200
484000
004000
008000
010000
020000
000000
000000
ENDCHAR
STARTCHAR 2477
ENCODING 9335
SWIDTH 1500 0
DWIDTH 18 0
BBX 18 19 0 -1
BITMAP
000000
000000
01f200
781200
481200
481200
49f200
490200
490200
4a0200
4bf200
781200
481200
001200
001200
002200
01c200
000000
000000
ENDCHAR
STARTCHAR 2478
ENCODING 9336
SWIDTH 1500 0
DWIDTH 18 0
BBX 18 19 0 -1
BITMAP
000000
002000
002000
782000
49fc00
482000
482000
482000
4bfe00
482000
485000
785000
488800
008800
010400
020200
040100
000000
000000
ENDCHAR
STARTCHAR 2479
ENCODING 9337
SWIDTH 1500 0
DWIDTH 18 0
BBX 18 19 0 -1
BITMAP
000000
010800
010800
790800
490800
490800
49ef00
490800
490800
490800
490800
790800
490800
010800
012900
014900
018700
000000
000000
ENDCHAR
STARTCHAR 247a
ENCODING 9338
SWIDTH 1500 0
DWIDTH 18 0
BBX 18 19 0 -1
BITMAP
000000
000000
010100
790100
490500
494500
492500
492900
491100
492900
494500
798300
490100
010100
01ff00
010100
000000
000000
000000
ENDCHAR
STARTCHAR 247b
ENCODING 9339
SWIDTH 1500 0
DWIDTH 18 0
BBX 18 19 0 -1
BITMAP
000000
000000
1ffc00
100400
100400
1ffc00
000000
000000
1ffc00
008000
008000
7fff00
014000
022000
041000
080c00
300300
000000
000000
ENDCHAR
STARTCHAR 247c
ENCODING 9340
SWIDTH 1500 0
DWIDTH 18 0
BBX 18 19 0 -1
BITMAP
000000
000000
0ff800
080800
080800
080800
0ff800
040000
080000
1ffc00
000400
000800
7fff00
040000
081800
100400
200200
000000
000000
ENDCHAR
STARTCHAR 247d
ENCODING 9341
SWIDTH 1500 0
DWIDTH 18 0
BBX 18 19 0 -1
BITMAP
000000
002000
002000
002000
7bfe00
4a2200
4a2200
4a5200
4a5200
4a8a00
4a8a00
7b0600
4a0200
420200
020200
020200
020e00
000000
000000
ENDCHAR
STARTCHAR 247e
ENCODING 9342
SWIDTH 1500 0
DWIDTH 18 0
BBX 18 19 0 -1
BITMAP
000000
000000
048000
044000
244400
240200
440900
440900
03f800
000000
000000
1ffc00
100400
100400
100400
1ffc00
100400
000000
000000
ENDCHAR
STARTCHAR 2521
ENCODING 9505
SWIDTH 1500 0
DWIDTH 18 0
BBX 18 19 0 -1
BITMAP
000000
008000
088000
088000
0ffc00
108000
208000
008000
7fff00
008000
008000
1ffc00
100400
100400
100400
1ffc00
100400
000000
000000
ENDCHAR
STARTCHAR 2522
ENCODING 9506
SWIDTH 1500 0
DWIDTH 18 0
BBX 18 19 0 -1
BITMAP
000000
007c00
1f8000
008000
008000
7fff00
014000
022000
041000
180c00
600300
0ff800
080800
080800
080800
0ff800
080800
000000
000000
ENDCHAR
STARTCHAR 2523
ENCODING 9507
SWIDTH 1500 0
DWIDTH 18 0
BBX 18 19 0 -1
BITMAP
000000
004000
004000
7c4000
447f00
448400
448400
448400
454400
444400
442800
7c2800
441000
002800
004400
008200
010100
000000
000000
ENDCHAR
STARTCHAR 2524
ENCODING 9508
SWIDTH 1500 0
DWIDTH 18 0
BBX 18 19 0 -1
BITMAP
000000
001c00
01e000
1e0000
100000
1fff00
100100
100100
1fff00
100000
100000
17fe00
140200
240200
240200
47fe00
040200
000000
000000
ENDCHAR
STARTCHAR 2525
ENCODING 9509
SWIDTH 1500 0
DWIDTH 18 0
BBX 18 19 0 -1
BITMAP
000000
000000
01fe00
7c2000
442000
442000
442000
45fc00
444400
444400
444400
7c4400
444400
004400
004400
03ff00
000000
000000
000000
ENDCHAR
STARTCHAR 2526
ENCODING 9510
SWIDTH 1500 0
DWIDTH 18 0
BBX 18 19 0 -1
BITMAP
000000
000000
3ffe00
200200
200200
27f200
200200
200200
2ffa00
210200
222200
241200
2fea00
200a00
200200
3ffe00
200200
000000
000000
ENDCHAR
STARTCHAR 2527
ENCODING 9511
SWIDTH 1500 0
DWIDTH 18 0
BBX 18 19 0 -1
BITMAP
000000
000000
3ffe00
200200
222200
222200
2ffa00
222200
222200
222200
3ffe00
222200
222200
242200
200200
3ffe00
200200
000000
000000
ENDCHAR
STARTCHAR 2528
ENCODING 9512
SWIDTH 1500 0
DWIDTH 18 0
BBX 18 19 0 -1
BITMAP
000000
000000
3ffe00
204200
212a00
28aa00
249200
222200
214200
208200
214200
222200
241200
280a00
200200
3ffe00
200200
000000
000000
ENDCHAR
STARTCHAR 2529
ENCODING 9513
SWIDTH 1500 0
DWIDTH 18 0
BBX 18 19 0 -1
BITMAP
000000
000000
3ffe00
200200
200200
2ffa00
208200
208200
27f200
208200
208200
208200
2ffa00
200200
200200
3ffe00
200200
000000
000000
ENDCHAR
STARTCHAR 252a
ENCODING 9514
SWIDTH 1500 0
DWIDTH 18 0
BBX 18 19 0 -1
BITMAP
000000
000000
3ffe00
200200
200200
27f200
200200
200200
3ffe00
222200
222200
222a00
242a00
241a00
280200
3ffe00
200200
000000
000000
ENDCHAR
STARTCHAR 252b
ENCODING 9515
SWIDTH 1500 0
DWIDTH 18 0
BBX 18 19 0 -1
BITMAP
000000
000000
3ffe00
222200
222200
222200
23e200
222200
222200
222200
23e200
222200
222200
222200
222200
3ffe00
200200
000000
000000
ENDCHAR
STARTCHAR 252c
ENCODING 9516
SWIDTH 1500 0
DWIDTH 18 0
BBX 18 19 0 -1
BITMAP
000000
000000
3ffe00
200200
208200
209200
20a200
2ec200
22a200
22a200
249200
288a00
308600
238200
200200
3ffe00
200200
000000
000000
ENDCHAR
STARTCHAR 252d
ENCODING 9517
SWIDTH 1500 0
DWIDTH 18 0
BBX 18 19 0 -1
BITMAP
000000
100000
100000
11ff00
110100
7d0100
114a00
104800
104800
104800
104800
104800
1c8800
708900
010900
020900
040700
000000
000000
ENDCHAR
STARTCHAR 252e
ENCODING 9518
SWIDTH 1500 0
DWIDTH 18 0
BBX 18 19 0 -1
BITMAP
000000
100000
11fc00
100400
108800
7c5000
102000
101000
13ff00
102100
102200
102400
1c2000
702000
002000
002000
00e000
000000
000000
ENDCHAR
STARTCHAR 252f
ENCODING 9519
SWIDTH 1500 0
DWIDTH 18 0
BBX 18 19 0 -1
BITMAP
000000
100000
10f800
108800
108800
7c8800
110700
120000
11fc00
100400
108400
108800
1c5000
702000
005000
018c00
060300
000000
000000
ENDCHAR
STARTCHAR 2530
ENCODING 9520
SWIDTH 1500 0
DWIDTH 18 0
BBX 18 19 0 -1
BITMAP
000000
101000
102000
105000
108800
7d0400
120200
148900
108800
108800
108800
108800
1c8800
710800
010800
020800
040800
000000
000000
ENDCHAR
STARTCHAR 2531
ENCODING 9521
SWIDTH 1500 0
DWIDTH 18 0
BBX 18 19 0 -1
BITMAP
000000
000000
0ff800
080800
080800
0ff800
080800
080800
0ff800
008000
008000
1ffc00
008000
008000
008000
7fff00
000000
000000
000000
ENDCHAR
STARTCHAR 2532
ENCODING 9522
SWIDTH 1500 0
DWIDTH 18 0
BBX 18 19 0 -1
BITMAP
000000
041000
041000
3ffe00
041000
041000
041000
7fff00
081000
101000
209000
008000
1ffc00
008000
008000
7fff00
000000
000000
000000
ENDCHAR
STARTCHAR 2533
ENCODING 9523
SWIDTH 1500 0
DWIDTH 18 0
BBX 18 19 0 -1
BITMAP
000000
000000
1ffc00
000000
000000
7fff00
022000
042100
182100
601f00
008000
008000
1ffc00
008000
008000
7fff00
000000
000000
000000
ENDCHAR
STARTCHAR 2534
ENCODING 9524
SWIDTH 1500 0
DWIDTH 18 0
BBX 18 19 0 -1
BITMAP
000000
100400
100400
104400
102400
7c1400
100400
108400
104400
102400
100400
100400
1dff00
700400
000400
000400
000400
000000
000000
ENDCHAR
STARTCHAR 2535
ENCODING 9525
SWIDTH 1500 0
DWIDTH 18 0
BBX 18 19 0 -1
BITMAP
000000
102000
101000
101000
13ff00
7c0400
108400
108400
108400
104400
104800
102800
1c1000
702800
004400
008200
030100
000000
000000
ENDCHAR
STARTCHAR 2536
ENCODING 9526
SWIDTH 1500 0
DWIDTH 18 0
BBX 18 19 0 -1
BITMAP
000000
100000
11fe00
100000
100000
7c0000
100000
13ff00
104800
104800
104800
104800
1c8800
708800
010900
020900
040700
000000
000000
ENDCHAR
STARTCHAR 2537
ENCODING 9527
SWIDTH 1500 0
DWIDTH 18 0
BBX 18 19 0 -1
BITMAP
000000
100000
13fe00
108000
108000
7c8000
10fc00
108400
110400
110400
110400
11fc00
1c0800
700800
000800
07ff00
000000
000000
000000
ENDCHAR
STARTCHAR 2538
ENCODING 9528
SWIDTH 1500 0
DWIDTH 18 0
BBX 18 19 0 -1
BITMAP
000000
102000
102000
102000
11fe00
7c2200
102200
102200
102200
13ff00
102000
102000
1c4800
704400
008200
010100
020100
000000
000000
ENDCHAR
STARTCHAR 2539
ENCODING 9529
SWIDTH 1500 0
DWIDTH 18 0
BBX 18 19 0 -1
BITMAP
000000
110800
110800
110800
110800
7d0800
11ef00
110800
110800
110800
110800
110800
1d0800
710900
012900
014900
018700
000000
000000
ENDCHAR
STARTCHAR 253a
ENCODING 9530
SWIDTH 1500 0
DWIDTH 18 0
BBX 18 19 0 -1
BITMAP
000000
100000
101e00
10f000
102000
7c2000
102000
11fe00
102000
102000
102000
13ff00
1c2000
702000
002100
002100
001f00
000000
000000
ENDCHAR
STARTCHAR 253b
ENCODING 9531
SWIDTH 1500 0
DWIDTH 18 0
BBX 18 19 0 -1
BITMAP
000000
108000
108000
10ff00
110000
7d2000
122000
102000
10fe00
102200
102200
102200
1c4200
704200
008200
010400
021800
000000
000000
ENDCHAR
STARTCHAR 253c
ENCODING 9532
SWIDTH 1500 0
DWIDTH 18 0
BBX 18 19 0 -1
BITMAP
000000
104000
104000
104000
107f00
7c8400
108400
110400
104400
104400
102800
102800
1e1000
702800
004400
008200
030100
000000
000000
ENDCHAR
STARTCHAR 253d
ENCODING 9533
SWIDTH 1500 0
DWIDTH 18 0
BBX 18 19 0 -1
BITMAP
000000
108000
108000
108000
11ff00
7d0100
122100
102100
104100
104100
109100
110900
1df500
700500
000100
000200
000c00
000000
000000
ENDCHAR
STARTCHAR 253e
ENCODING 9534
SWIDTH 1500 0
DWIDTH 18 0
BBX 18 19 0 -1
BITMAP
000000
108000
108000
108000
10ff00
7d2900
112900
122900
104900
104900
108900
111100
1c1100
702100
004100
008200
000c00
000000
000000
ENDCHAR
STARTCHAR 253f
ENCODING 9535
SWIDTH 1500 0
DWIDTH 18 0
BBX 18 19 0 -1
BITMAP
000000
100000
108000
10bf00
108100
7d2100
112100
124100
114100
108100
108100
110100
1d2100
72e100
031100
000200
000c00
000000
000000
ENDCHAR
STARTCHAR 2540
ENCODING 9536
SWIDTH 1500 0
DWIDTH 18 0
BBX 18 19 0 -1
BITMAP
000000
100000
10ff00
108000
108000
7c8000
10fe00
108200
10a200
10a200
10a200
111400
1d1400
710800
021400
042200
00c100
000000
000000
ENDCHAR
STARTCHAR 2541
ENCODING 9537
SWIDTH 1500 0
DWIDTH 18 0
BBX 18 19 0 -1
BITMAP
000000
008000
008800
3ed000
02a000
049000
088c00
108300
638000
000000
008000
008000
1ffc00
008000
008000
7fff00
000000
000000
000000
ENDCHAR
STARTCHAR 2542
ENCODING 9538
SWIDTH 1500 0
DWIDTH 18 0
BBX 18 19 0 -1
BITMAP
000000
003c00
0fc800
088800
088800
088400
108400
108200
208200
400100
008000
008000
1ffc00
008000
008000
7fff00
000000
000000
000000
ENDCHAR
STARTCHAR 2543
ENCODING 9539
SWIDTH 1500 0
DWIDTH 18 0
BBX 18 19 0 -1
BITMAP
000000
008000
008000
3ffe00
008000
008000
1ffc00
000000
3fff00
400100
480200
08f000
0f0000
080200
080200
07fe00
000000
000000
000000
ENDCHAR
STARTCHAR 2544
ENCODING 9540
SWIDTH 1500 0
DWIDTH 18 0
BBX 18 19 0 -1
BITMAP
000000
008000
008000
3ffe00
008000
008000
1ffc00
000000
3fff00
400100
422200
022000
022000
042200
082200
102200
601e00
000000
000000
ENDCHAR
STARTCHAR 2545
ENCODING 9541
SWIDTH 1500 0
DWIDTH 18 0
BBX 18 19 0 -1
BITMAP
000000
008000
008000
7fff00
008000
008000
1ffc00
000000
3ffe00
208200
208200
3ffe00
200000
200000
200000
400000
400000
000000
000000
ENDCHAR
STARTCHAR 2546
ENCODING 9542
SWIDTH 1500 0
DWIDTH 18 0
BBX 18 19 0 -1
BITMAP
000000
020000
041000
080800
3ffc00
022400
042000
182000
611f00
020000
0bf000
041000
0a1000
312000
00c000
033800
3c0700
000000
000000
ENDCHAR
STARTCHAR 2547
ENCODING 9543
SWIDTH 1500 0
DWIDTH 18 0
BBX 18 19 0 -1
BITMAP
000000
008000
008000
3ffe00
008000
1ffc00
008000
7fff00
020000
120000
0bf000
041000
0a1000
312000
00c000
033800
3c0700
000000
000000
ENDCHAR
STARTCHAR 2548
ENCODING 9544
SWIDTH 1500 0
DWIDTH 18 0
BBX 18 19 0 -1
BITMAP
000000
00c000
030000
0c0000
3ffe00
210200
210200
21fa00
220a00
250a00
28d200
202200
20c200
230200
200200
3ffe00
200200
000000
000000
ENDCHAR
STARTCHAR 2549
ENCODING 9545
SWIDTH 1500 0
DWIDTH 18 0
BBX 18 19 0 -1
BITMAP
000000
010000
010000
7fff00
022000
041000
080800
100400
67f300
000000
000000
3ffe00
010800
020400
043a00
1fc200
000000
000000
000000
ENDCHAR
STARTCHAR 254a
ENCODING 9546
SWIDTH 1500 0
DWIDTH 18 0
BBX 18 19 0 -1
BITMAP
000000
010000
010000
7fff00
022000
041000
080800
108400
608300
008000
3ffe00
008000
049000
088800
108400
208200
008000
000000
000000
ENDCHAR
STARTCHAR 254b
ENCODING 9547
SWIDTH 1500 0
DWIDTH 18 0
BBX 18 19 0 -1
BITMAP
000000
202000
201000
241000
7efe00
240000
240000
247c00
244400
244400
444400
344400
084400
144500
228500
410500
020300
000000
000000
ENDCHAR
STARTCHAR 254c
ENCODING 9548
SWIDTH 1500 0
DWIDTH 18 0
BBX 18 19 0 -1
BITMAP
000000
204400
204400
244400
7e4400
25ff00
244400
244400
244400
244400
45ff00
344400
084400
148400
228400
410400
020400
000000
000000
ENDCHAR
STARTCHAR 254d
ENCODING 9549
SWIDTH 1500 0
DWIDTH 18 0
BBX 18 19 0 -1
BITMAP
000000
201000
201400
241200
7e1200
241000
24ff00
241000
241000
242800
442800
342800
084800
144900
228900
410900
020700
000000
000000
ENDCHAR
STARTCHAR 254e
ENCODING 9550
SWIDTH 1500 0
DWIDTH 18 0
BBX 18 19 0 -1
BITMAP
000000
201000
201000
241000
7efe00
241200
241200
241200
241200
25ff00
441000
341000
082000
142400
224200
408100
010100
000000
000000
ENDCHAR
STARTCHAR 254f
ENCODING 9551
SWIDTH 1500 0
DWIDTH 18 0
BBX 18 19 0 -1
BITMAP
000000
204000
204000
244000
7eff00
248100
250100
240100
24fd00
240100
440100
34fd00
080100
140100
220100
400200
000c00
000000
000000
ENDCHAR
STARTCHAR 2550
ENCODING 9552
SWIDTH 1500 0
DWIDTH 18 0
BBX 18 19 0 -1
BITMAP
000000
200000
21fe00
244200
7e4200
244400
244800
247f00
244100
244100
44a200
34a200
089400
150800
211400
422200
00c100
000000
000000
ENDCHAR
STARTCHAR 2551
ENCODING 9553
SWIDTH 1500 0
DWIDTH 18 0
BBX 18 19 0 -1
BITMAP
000000
1ffc00
100400
100400
1ffc00
100400
100400
1ffc00
020000
021000
7fff00
041000
041000
0fa000
007000
038c00
3c0200
000000
000000
ENDCHAR
STARTCHAR 2552
ENCODING 9554
SWIDTH 1500 0
DWIDTH 18 0
BBX 18 19 0 -1
BITMAP
000000
200000
20fe00
248200
7e8200
248200
25ff00
248200
248200
248200
45ff00
348200
088200
148200
228200
408200
008e00
000000
000000
ENDCHAR
STARTCHAR 2553
ENCODING 9555
SWIDTH 1500 0
DWIDTH 18 0
BBX 18 19 0 -1
BITMAP
000000
008000
108400
108400
1ffc00
108400
008000
3ffe00
020000
021000
7fff00
041000
041000
0fa000
007000
038c00
3c0200
000000
000000
ENDCHAR
STARTCHAR 2554
ENCODING 9556
SWIDTH 1500 0
DWIDTH 18 0
BBX 18 19 0 -1
BITMAP
000000
200000
200000
25ff00
7f0100
250100
257a00
244800
244800
244800
444800
344800
084800
148900
228900
410900
020700
000000
000000
ENDCHAR
STARTCHAR 2555
ENCODING 9557
SWIDTH 1500 0
DWIDTH 18 0
BBX 18 19 0 -1
BITMAP
000000
201000
201000
241000
7eff00
249100
249100
249200
241000
241800
442800
342800
084800
144800
228900
410900
020700
000000
000000
ENDCHAR
STARTCHAR 2556
ENCODING 9558
SWIDTH 1500 0
DWIDTH 18 0
BBX 18 19 0 -1
BITMAP
000000
200000
200000
25ff00
7e0800
240800
241000
241000
242400
245200
449100
351100
081000
141000
221000
401000
001000
000000
000000
ENDCHAR
STARTCHAR 2557
ENCODING 9559
SWIDTH 1500 0
DWIDTH 18 0
BBX 18 19 0 -1
BITMAP
000000
200000
200e00
247000
7e1000
241000
241000
24fe00
241000
241000
441000
35ff00
081000
141000
221100
401100
000f00
000000
000000
ENDCHAR
STARTCHAR 2558
ENCODING 9560
SWIDTH 1500 0
DWIDTH 18 0
BBX 18 19 0 -1
BITMAP
000000
010000
008000
3ffe00
041000
022000
01c000
0e3800
700700
07f000
002000
004000
008000
7fff00
008000
008000
038000
000000
000000
ENDCHAR
STARTCHAR 2559
ENCODING 9561
SWIDTH 1500 0
DWIDTH 18 0
BBX 18 19 0 -1
BITMAP
000000
010000
208000
3fff00
400100
410200
008000
1ffc00
000800
001000
006000
018000
060000
180000
660000
01ff00
000000
000000
000000
ENDCHAR
STARTCHAR 255a
ENCODING 9562
SWIDTH 1500 0
DWIDTH 18 0
BBX 18 19 0 -1
BITMAP
000000
010000
208000
3fff00
400100
410200
008000
008000
3ffe00
000000
040000
041000
080800
080400
100400
200200
400200
000000
000000
ENDCHAR
STARTCHAR 255b
ENCODING 9563
SWIDTH 1500 0
DWIDTH 18 0
BBX 18 19 0 -1
BITMAP
000000
010000
208000
3fff00
400100
404200
022000
041000
080800
110400
210200
020000
021000
040800
08f400
1f0400
000400
000000
000000
ENDCHAR
STARTCHAR 255c
ENCODING 9564
SWIDTH 1500 0
DWIDTH 18 0
BBX 18 19 0 -1
BITMAP
000000
200400
100400
100400
7e0400
01ff00
040400
040400
444400
242400
142400
082400
140400
120400
220400
400400
001c00
000000
000000
ENDCHAR
STARTCHAR 255d
ENCODING 9565
SWIDTH 1500 0
DWIDTH 18 0
BBX 18 19 0 -1
BITMAP
000000
008000
008000
3ffe00
008000
1ffc00
010000
7fff00
021000
041000
7fff00
101000
221000
411000
011000
001000
007000
000000
000000
ENDCHAR
STARTCHAR 255e
ENCODING 9566
SWIDTH 1500 0
DWIDTH 18 0
BBX 18 19 0 -1
BITMAP
000000
007c00
1f8000
000400
010400
108800
089000
080000
002000
002000
7fff00
002000
082000
042000
042000
002000
00e000
000000
000000
ENDCHAR
STARTCHAR 255f
ENCODING 9567
SWIDTH 1500 0
DWIDTH 18 0
BBX 18 19 0 -1
BITMAP
000000
000000
7f0000
12fe00
121000
121000
121000
127c00
121000
121000
121000
121000
12fe00
120100
220100
21ff00
400000
000000
000000
ENDCHAR
STARTCHAR 2560
ENCODING 9568
SWIDTH 1500 0
DWIDTH 18 0
BBX 18 19 0 -1
BITMAP
000000
101000
101000
101000
541000
55ff00
551100
551100
551100
551100
55ff00
551100
7c1000
441000
001000
001000
001000
000000
000000
ENDCHAR
STARTCHAR 2561
ENCODING 9569
SWIDTH 1500 0
DWIDTH 18 0
BBX 18 19 0 -1
BITMAP
000000
100000
10fe00
108200
548200
548200
54fe00
548200
548200
548200
54fe00
548200
7c8200
450200
010200
020200
040e00
000000
000000
ENDCHAR
STARTCHAR 2562
ENCODING 9570
SWIDTH 1500 0
DWIDTH 18 0
BBX 18 19 0 -1
BITMAP
000000
103000
100800
100800
548400
548400
550200
560100
55fc00
544400
544400
544400
7c4400
448400
008400
010800
023000
000000
000000
ENDCHAR
STARTCHAR 2563
ENCODING 9571
SWIDTH 1500 0
DWIDTH 18 0
BBX 18 19 0 -1
BITMAP
000000
008000
208200
208200
3ffe00
200200
000000
3ffe00
208200
208200
3ffe00
200000
200000
200100
200100
1fff00
000000
000000
000000
ENDCHAR
STARTCHAR 2564
ENCODING 9572
SWIDTH 1500 0
DWIDTH 18 0
BBX 18 19 0 -1
BITMAP
000000
008000
208200
208200
3ffe00
200200
010000
008000
7fff00
080800
040800
021000
012000
00c000
033000
0c0c00
300300
000000
000000
ENDCHAR
STARTCHAR 2565
ENCODING 9573
SWIDTH 1500 0
DWIDTH 18 0
BBX 18 19 0 -1
BITMAP
000000
102000
101000
101000
55ff00
540200
544200
544200
544200
544400
542400
542800
7c1000
442800
004400
008200
030100
000000
000000
ENDCHAR
STARTCHAR 2566
ENCODING 9574
SWIDTH 1500 0
DWIDTH 18 0
BBX 18 19 0 -1
BITMAP
000000
100000
10ff00
108000
548000
548000
54fe00
548200
54a200
54a200
54a200
549400
7d1400
450800
011400
022200
04c100
000000
000000
ENDCHAR
STARTCHAR 2567
ENCODING 9575
SWIDTH 1500 0
DWIDTH 18 0
BBX 18 19 0 -1
BITMAP
000000
007e00
1f8000
100000
100000
1fff00
100000
100000
13fe00
122200
122200
13fe00
120000
220100
220100
420100
01ff00
000000
000000
ENDCHAR
STARTCHAR 2568
ENCODING 9576
SWIDTH 1500 0
DWIDTH 18 0
BBX 18 19 0 -1
BITMAP
000000
103000
100800
100800
7c8400
548400
550200
560100
55fc00
544400
544400
544400
544400
108400
108400
110800
123000
000000
000000
ENDCHAR
STARTCHAR 2569
ENCODING 9577
SWIDTH 1500 0
DWIDTH 18 0
BBX 18 19 0 -1
BITMAP
000000
100800
101000
102800
7c4400
548200
550100
544400
544400
544400
544400
544400
544400
108400
108400
110400
120400
000000
000000
ENDCHAR
STARTCHAR 256a
ENCODING 9578
SWIDTH 1500 0
DWIDTH 18 0
BBX 18 19 0 -1
BITMAP
000000
010000
010000
1fe800
011000
012000
7fff00
010000
068000
188000
6ff800
088800
088800
088800
089800
008000
008000
000000
000000
ENDCHAR
STARTCHAR 256b
ENCODING 9579
SWIDTH 1500 0
DWIDTH 18 0
BBX 18 19 0 -1
BITMAP
000000
003c00
3fc000
204000
3ffe00
204000
202000
231200
2c0a00
308600
008200
1ffc00
108400
108400
108c00
008000
008000
000000
000000
ENDCHAR
STARTCHAR 256c
ENCODING 9580
SWIDTH 1500 0
DWIDTH 18 0
BBX 18 19 0 -1
BITMAP
000000
010000
008000
3fff00
200000
209000
208800
208000
2ffe00
208000
208400
208800
205000
202000
40d200
430a00
0c0600
000000
000000
ENDCHAR
STARTCHAR 256d
ENCODING 9581
SWIDTH 1500 0
DWIDTH 18 0
BBX 18 19 0 -1
BITMAP
000000
010000
008000
3fff00
200000
204000
204000
204000
27fc00
204000
204000
204800
204400
204400
404000
4ffe00
000000
000000
000000
ENDCHAR
STARTCHAR 256e
ENCODING 9582
SWIDTH 1500 0
DWIDTH 18 0
BBX 18 19 0 -1
BITMAP
000000
008000
004000
3fff00
200000
203c00
27c000
240000
27fe00
240200
240200
27fe00
240000
240000
440000
480000
100000
000000
000000
ENDCHAR
STARTCHAR 256f
ENCODING 9583
SWIDTH 1500 0
DWIDTH 18 0
BBX 18 19 0 -1
BITMAP
000000
010000
008000
7fff00
020000
040800
080400
107a00
3f8200
000000
041000
041000
7fff00
041000
081000
101000
601000
000000
000000
ENDCHAR
STARTCHAR 2570
ENCODING 9584
SWIDTH 1500 0
DWIDTH 18 0
BBX 18 19 0 -1
BITMAP
000000
002000
782000
082000
082000
0bff00
382000
202000
404800
784800
485000
089000
08a200
092100
094700
0a7900
300100
000000
000000
ENDCHAR
STARTCHAR 2571
ENCODING 9585
SWIDTH 1500 0
DWIDTH 18 0
BBX 18 19 0 -1
BITMAP
000000
004000
7c4000
047f00
049100
049100
3c9100
211200
401000
7c1000
442800
042800
044400
044400
048200
050200
3a0100
000000
000000
ENDCHAR
STARTCHAR 2572
ENCODING 9586
SWIDTH 1500 0
DWIDTH 18 0
BBX 18 19 0 -1
BITMAP
000000
100000
080000
080800
7f1000
002000
024400
220800
221000
222000
144200
140400
081800
146000
220000
418000
007f00
000000
000000
ENDCHAR
STARTCHAR 2573
ENCODING 9587
SWIDTH 1500 0
DWIDTH 18 0
BBX 18 19 0 -1
BITMAP
000000
104000
102000
101000
588000
548000
548000
508000
108400
128200
128200
128100
148100
148900
108800
107800
100000
000000
000000
ENDCHAR
STARTCHAR 2574
ENCODING 9588
SWIDTH 1500 0
DWIDTH 18 0
BBX 18 19 0 -1
BITMAP
000000
102800
102400
102200
582000
55fe00
542000
502000
102000
105000
105000
105000
109000
109000
111100
121100
140f00
000000
000000
ENDCHAR
STARTCHAR 2575
ENCODING 9589
SWIDTH 1500 0
DWIDTH 18 0
BBX 18 19 0 -1
BITMAP
000000
104000
107f00
108000
588000
557e00
540000
500000
10fe00
100200
100c00
103000
104000
108000
110100
110100
10ff00
000000
000000
ENDCHAR
STARTCHAR 2576
ENCODING 9590
SWIDTH 1500 0
DWIDTH 18 0
BBX 18 19 0 -1
BITMAP
000000
100800
101000
102800
584400
548200
550100
504400
104400
104400
104400
104400
104400
108400
108400
110400
120400
000000
000000
ENDCHAR
STARTCHAR 2577
ENCODING 9591
SWIDTH 1500 0
DWIDTH 18 0
BBX 18 19 0 -1
BITMAP
000000
008000
004000
3fff00
200000
200000
204000
202000
211000
210000
210400
250200
250100
290500
490400
40fc00
000000
000000
000000
ENDCHAR
STARTCHAR 2578
ENCODING 9592
SWIDTH 1500 0
DWIDTH 18 0
BBX 18 19 0 -1
BITMAP
000000
007c00
1f8000
008000
008000
7fff00
008000
008000
008000
000000
048000
044000
244400
240200
240900
440900
03f800
000000
000000
ENDCHAR
STARTCHAR 2579
ENCODING 9593
SWIDTH 1500 0
DWIDTH 18 0
BBX 18 19 0 -1
BITMAP
000000
104000
102000
102000
5bff00
544000
544000
504000
107e00
104200
104200
108200
108200
110200
110200
120400
141800
000000
000000
ENDCHAR
STARTCHAR 257a
ENCODING 9594
SWIDTH 1500 0
DWIDTH 18 0
BBX 18 19 0 -1
BITMAP
000000
104000
102000
102000
5bfe00
540000
540000
50f800
108800
108800
108800
108800
108800
110900
110900
120900
140700
000000
000000
ENDCHAR
STARTCHAR 257b
ENCODING 9595
SWIDTH 1500 0
DWIDTH 18 0
BBX 18 19 0 -1
BITMAP
000000
104000
102000
102000
5bff00
540400
548400
508400
108400
108800
104800
105000
102000
105000
108800
110400
160300
000000
000000
ENDCHAR
STARTCHAR 257c
ENCODING 9596
SWIDTH 1500 0
DWIDTH 18 0
BBX 18 19 0 -1
BITMAP
000000
100000
10fe00
100200
584400
542800
541000
500800
11ff00
101100
101100
101200
101000
101000
101000
101000
107000
000000
000000
ENDCHAR
STARTCHAR 257d
ENCODING 9597
SWIDTH 1500 0
DWIDTH 18 0
BBX 18 19 0 -1
BITMAP
000000
100000
10fe00
100000
580000
540000
540000
51ff00
102000
102000
104000
104400
108200
108200
111d00
11e100
100000
000000
000000
ENDCHAR
STARTCHAR 257e
ENCODING 9598
SWIDTH 1500 0
DWIDTH 18 0
BBX 18 19 0 -1
BITMAP
000000
101000
101400
101200
581000
541000
55ff00
501000
101000
102800
102800
104800
104400
108400
110200
120200
140100
000000
000000
ENDCHAR
STARTCHAR 2621
ENCODING 9761
SWIDTH 1500 0
DWIDTH 18 0
BBX 18 19 0 -1
BITMAP
000000
102000
102000
102000
582000
542000
57fe00
502000
102000
105000
105000
104800
108800
108400
114400
122200
140100
000000
000000
ENDCHAR
STARTCHAR 2622
ENCODING 9762
SWIDTH 1500 0
DWIDTH 18 0
BBX 18 19 0 -1
BITMAP
000000
104000
104000
13f800
584800
544800
544900
508900
108900
112700
122000
102000
17ff00
102000
102000
102000
102000
000000
000000
ENDCHAR
STARTCHAR 2623
ENCODING 9763
SWIDTH 1500 0
DWIDTH 18 0
BBX 18 19 0 -1
BITMAP
000000
100000
100000
11fc00
582000
542000
542000
542000
502000
57ff00
102000
102000
102000
102000
102000
13fe00
100000
000000
000000
ENDCHAR
STARTCHAR 2624
ENCODING 9764
SWIDTH 1500 0
DWIDTH 18 0
BBX 18 19 0 -1
BITMAP
000000
103000
100800
100800
588400
548400
550200
520100
11fc00
104400
104400
104400
104400
108400
108400
110800
123000
000000
000000
ENDCHAR
STARTCHAR 2625
ENCODING 9765
SWIDTH 1500 0
DWIDTH 18 0
BBX 18 19 0 -1
BITMAP
000000
004800
004400
004000
7fff00
004000
004000
3e4100
224200
222400
222800
221000
3e3000
004900
018500
060300
180100
000000
000000
ENDCHAR
STARTCHAR 2626
ENCODING 9766
SWIDTH 1500 0
DWIDTH 18 0
BBX 18 19 0 -1
BITMAP
000000
004800
004400
004000
7fff00
004000
084000
084000
124100
112200
272400
791800
001000
0f2900
70c500
030300
0c0100
000000
000000
ENDCHAR
STARTCHAR 2627
ENCODING 9767
SWIDTH 1500 0
DWIDTH 18 0
BBX 18 19 0 -1
BITMAP
000000
004800
004400
004400
3fff00
204000
204000
3fc200
224200
224400
222400
222800
221000
222900
4e4500
408300
030100
000000
000000
ENDCHAR
STARTCHAR 2628
ENCODING 9768
SWIDTH 1500 0
DWIDTH 18 0
BBX 18 19 0 -1
BITMAP
000000
003e00
1fc000
100000
1ffe00
100200
100200
1ffe00
102000
102000
102000
17ff00
105000
208800
210400
420200
040100
000000
000000
ENDCHAR
STARTCHAR 2629
ENCODING 9769
SWIDTH 1500 0
DWIDTH 18 0
BBX 18 19 0 -1
BITMAP
000000
000000
7e3f00
022000
022000
3e3e00
222200
222200
222200
222200
3e3e00
022000
042000
042000
082000
102000
202000
000000
000000
ENDCHAR
STARTCHAR 262a
ENCODING 9770
SWIDTH 1500 0
DWIDTH 18 0
BBX 18 19 0 -1
BITMAP
000000
100000
100000
11ff00
7c1000
101000
101000
101000
101000
1cfe00
701000
101000
101000
101000
101000
11ff00
300000
000000
000000
ENDCHAR
STARTCHAR 262b
ENCODING 9771
SWIDTH 1500 0
DWIDTH 18 0
BBX 18 19 0 -1
BITMAP
000000
100000
11fe00
110800
7d0800
110800
120800
120800
13ff00
1c2800
704800
104800
108800
110800
120800
140800
303800
000000
000000
ENDCHAR
STARTCHAR 262c
ENCODING 9772
SWIDTH 1500 0
DWIDTH 18 0
BBX 18 19 0 -1
BITMAP
000000
102000
102400
102200
7c2000
102000
13ff00
102000
102000
1c5000
705000
104800
108800
108400
110400
120200
340100
000000
000000
ENDCHAR
STARTCHAR 262d
ENCODING 9773
SWIDTH 1500 0
DWIDTH 18 0
BBX 18 19 0 -1
BITMAP
000000
100000
101c00
10e000
7c2000
102000
102000
11fe00
102000
1c2000
702000
13ff00
102000
102000
102100
102100
301f00
000000
000000
ENDCHAR
STARTCHAR 262e
ENCODING 9774
SWIDTH 1500 0
DWIDTH 18 0
BBX 18 19 0 -1
BITMAP
000000
108200
108200
108200
7c8200
10fe00
108000
108000
108000
1cfe00
708200
108200
108200
108200
110200
110200
320200
000000
000000
ENDCHAR
STARTCHAR 262f
ENCODING 9775
SWIDTH 1500 0
DWIDTH 18 0
BBX 18 19 0 -1
BITMAP
000000
102000
101000
100800
7c4000
104000
104000
104000
104200
1d4200
714100
114100
124100
124400
124400
103c00
300000
000000
000000
ENDCHAR
STARTCHAR 2630
ENCODING 9776
SWIDTH 1500 0
DWIDTH 18 0
BBX 18 19 0 -1
BITMAP
000000
102000
101000
101000
7dff00
102000
102000
102000
103e00
1c2200
702200
104200
104200
108200
108200
110400
321800
000000
000000
ENDCHAR
STARTCHAR 2631
ENCODING 9777
SWIDTH 1500 0
DWIDTH 18 0
BBX 18 19 0 -1
BITMAP
000000
100000
10ff00
108100
7c8100
108100
108100
10ff00
109000
1c9000
709000
108800
108800
110400
110400
120200
340100
000000
000000
ENDCHAR
STARTCHAR 2632
ENCODING 9778
SWIDTH 1500 0
DWIDTH 18 0
BBX 18 19 0 -1
BITMAP
000000
100000
11fe00
110200
7d0200
110200
110e00
110000
11fe00
1d4200
712200
112400
111400
110800
111400
112200
314100
000000
000000
ENDCHAR
STARTCHAR 2633
ENCODING 9779
SWIDTH 1500 0
DWIDTH 18 0
BBX 18 19 0 -1
BITMAP
000000
110800
110800
110800
7d1e00
17ca00
114a00
114a00
1d4a00
714a00
114a00
115200
115200
124400
124100
123f00
340000
000000
000000
ENDCHAR
STARTCHAR 2634
ENCODING 9780
SWIDTH 1500 0
DWIDTH 18 0
BBX 18 19 0 -1
BITMAP
000000
102000
102000
102000
7dff00
104000
104000
107e00
104200
1c4200
70a200
10a400
111400
110800
121400
142200
30c100
000000
000000
ENDCHAR
STARTCHAR 2635
ENCODING 9781
SWIDTH 1500 0
DWIDTH 18 0
BBX 18 19 0 -1
BITMAP
000000
101e00
11f000
101000
7c1000
101000
11fe00
101000
101000
1c1000
73ff00
101000
101000
101000
101000
101000
307000
000000
000000
ENDCHAR
STARTCHAR 2636
ENCODING 9782
SWIDTH 1500 0
DWIDTH 18 0
BBX 18 19 0 -1
BITMAP
000000
100400
107400
11c400
7c4400
104400
104400
104400
13ff00
1c4400
704400
104400
104400
108400
108400
110400
320400
000000
000000
ENDCHAR
STARTCHAR 2637
ENCODING 9783
SWIDTH 1500 0
DWIDTH 18 0
BBX 18 19 0 -1
BITMAP
000000
108000
108000
108000
7dff00
110100
120100
102100
102100
1c4900
704500
108d00
11f500
100500
100100
100200
300c00
000000
000000
ENDCHAR
STARTCHAR 2638
ENCODING 9784
SWIDTH 1500 0
DWIDTH 18 0
BBX 18 19 0 -1
BITMAP
000000
100000
108000
109f00
7c8100
112100
112100
124100
114100
1c8100
708100
112100
111100
127100
139100
100200
300c00
000000
000000
ENDCHAR
STARTCHAR 2639
ENCODING 9785
SWIDTH 1500 0
DWIDTH 18 0
BBX 18 19 0 -1
BITMAP
000000
101000
102800
104400
7c8200
110100
120000
100000
103000
1c0800
700400
100000
100000
106000
101000
100800
300400
000000
000000
ENDCHAR
STARTCHAR 263a
ENCODING 9786
SWIDTH 1500 0
DWIDTH 18 0
BBX 18 19 0 -1
BITMAP
000000
004000
004000
7c4000
108000
10ff00
108400
114400
7e4400
104400
102800
102800
101000
102800
104400
108200
330100
000000
000000
ENDCHAR
STARTCHAR 263b
ENCODING 9787
SWIDTH 1500 0
DWIDTH 18 0
BBX 18 19 0 -1
BITMAP
000000
010000
008000
7fff00
041000
022000
01c000
063000
188c00
608300
0ff800
008000
008000
3ffe00
008000
008000
008000
000000
000000
ENDCHAR
STARTCHAR 263c
ENCODING 9788
SWIDTH 1500 0
DWIDTH 18 0
BBX 18 19 0 -1
BITMAP
000000
004000
004000
7c8000
44ff00
450000
460000
44fe00
7c0400
440800
441000
442000
444000
7c8100
450100
010100
00ff00
000000
000000
ENDCHAR
STARTCHAR 263d
ENCODING 9789
SWIDTH 1500 0
DWIDTH 18 0
BBX 18 19 0 -1
BITMAP
000000
000800
000800
7c0800
440800
45ff00
440800
440800
7c8800
444800
444800
440800
440800
7c0800
440800
000800
003800
000000
000000
ENDCHAR
STARTCHAR 263e
ENCODING 9790
SWIDTH 1500 0
DWIDTH 18 0
BBX 18 19 0 -1
BITMAP
000000
1ffc00
100400
100400
1ffc00
100400
100400
1ffc00
000000
000000
7fff00
022000
022000
042000
082000
102000
201f00
000000
000000
ENDCHAR
STARTCHAR 263f
ENCODING 9791
SWIDTH 1500 0
DWIDTH 18 0
BBX 18 19 0 -1
BITMAP
000000
000000
1ffc00
100400
100400
1ffc00
100400
100400
1ffc00
008000
008000
00fe00
008000
008000
008000
7fff00
000000
000000
000000
ENDCHAR
STARTCHAR 2640
ENCODING 9792
SWIDTH 1500 0
DWIDTH 18 0
BBX 18 19 0 -1
BITMAP
000000
1ffc00
100400
1ffc00
100400
1ffc00
000000
000000
1ff800
001000
006000
008000
7fff00
008000
008000
008000
038000
000000
000000
ENDCHAR
STARTCHAR 2641
ENCODING 9793
SWIDTH 1500 0
DWIDTH 18 0
BBX 18 19 0 -1
BITMAP
000000
009000
008800
008000
1ffc00
108400
108400
1ffc00
108400
108400
1ffc00
008800
009000
006000
01a100
061900
380700
000000
000000
ENDCHAR
STARTCHAR 2642
ENCODING 9794
SWIDTH 1500 0
DWIDTH 18 0
BBX 18 19 0 -1
BITMAP
000000
080000
08fe00
080200
7f0200
080200
087e00
184000
1c4000
2a8000
28ff00
480100
480100
080100
080100
080200
081c00
000000
000000
ENDCHAR
STARTCHAR 2643
ENCODING 9795
SWIDTH 1500 0
DWIDTH 18 0
BBX 18 19 0 -1
BITMAP
000000
081000
081000
081000
7e1000
081000
081000
185400
1c5200
2a9200
289100
491100
4a1100
081000
081000
081000
087000
000000
000000
ENDCHAR
STARTCHAR 2644
ENCODING 9796
SWIDTH 1500 0
DWIDTH 18 0
BBX 18 19 0 -1
BITMAP
000000
080000
080e00
087000
7e1000
081000
081000
181000
1c1000
2aff00
281000
481000
481000
081000
081100
081100
080f00
000000
000000
ENDCHAR
STARTCHAR 2645
ENCODING 9797
SWIDTH 1500 0
DWIDTH 18 0
BBX 18 19 0 -1
BITMAP
000000
080000
09ff00
081100
7e1100
081100
089100
185100
1c3100
2a1100
281100
482100
482100
084100
084100
088200
090c00
000000
000000
ENDCHAR
STARTCHAR 2646
ENCODING 9798
SWIDTH 1500 0
DWIDTH 18 0
BBX 18 19 0 -1
BITMAP
000000
080000
09fc00
084400
7e4400
084400
084400
184400
1dfc00
2a4400
284400
484400
484500
084500
084500
084300
084100
000000
000000
ENDCHAR
STARTCHAR 2647
ENCODING 9799
SWIDTH 1500 0
DWIDTH 18 0
BBX 18 19 0 -1
BITMAP
000000
000000
3ffe00
200200
200200
3ffe00
200000
204000
204000
2ffe00
204000
204000
224800
244400
484200
504100
004000
000000
000000
ENDCHAR
STARTCHAR 2648
ENCODING 9800
SWIDTH 1500 0
DWIDTH 18 0
BBX 18 19 0 -1
BITMAP
000000
080000
080e00
08f000
7e1000
081000
081000
181000
1dff00
2a1000
281000
481000
481000
081000
081000
081000
081000
000000
000000
ENDCHAR
STARTCHAR 2649
ENCODING 9801
SWIDTH 1500 0
DWIDTH 18 0
BBX 18 19 0 -1
BITMAP
000000
080000
084100
084900
7e4900
084900
084900
184900
1c4900
2a4900
284900
484900
484900
084900
088900
088900
090100
000000
000000
ENDCHAR
STARTCHAR 264a
ENCODING 9802
SWIDTH 1500 0
DWIDTH 18 0
BBX 18 19 0 -1
BITMAP
000000
040000
040000
0ff800
140800
221000
01e000
061800
780700
008000
008000
3ffe00
008000
049000
088800
108400
208200
000000
000000
ENDCHAR
STARTCHAR 264b
ENCODING 9803
SWIDTH 1500 0
DWIDTH 18 0
BBX 18 19 0 -1
BITMAP
000000
000800
210800
108800
004800
400800
220800
010800
108800
100800
100800
27ff00
200800
200800
400800
400800
000800
000000
000000
ENDCHAR
STARTCHAR 264c
ENCODING 9804
SWIDTH 1500 0
DWIDTH 18 0
BBX 18 19 0 -1
BITMAP
000000
000000
23fc00
100800
005000
402000
201000
07ff00
102100
102200
202400
202000
202000
202000
402000
402000
00e000
000000
000000
ENDCHAR
STARTCHAR 264d
ENCODING 9805
SWIDTH 1500 0
DWIDTH 18 0
BBX 18 19 0 -1
BITMAP
000000
000000
23fc00
104400
004400
404400
204400
004400
17ff00
108400
108400
208400
208400
208400
408400
4fff00
000000
000000
000000
ENDCHAR
STARTCHAR 264e
ENCODING 9806
SWIDTH 1500 0
DWIDTH 18 0
BBX 18 19 0 -1
BITMAP
000000
000000
27ff00
102000
002000
43fe00
222200
022200
122200
122200
122200
222200
222200
222200
422600
402000
002000
000000
000000
ENDCHAR
STARTCHAR 264f
ENCODING 9807
SWIDTH 1500 0
DWIDTH 18 0
BBX 18 19 0 -1
BITMAP
000000
004000
204400
104200
004000
47ff00
204000
004000
104200
104200
102400
202800
201000
202900
404500
418300
0e0100
000000
000000
ENDCHAR
STARTCHAR 2650
ENCODING 9808
SWIDTH 1500 0
DWIDTH 18 0
BBX 18 19 0 -1
BITMAP
000000
008000
208000
108000
01ff00
410100
220100
000100
11f900
100100
100100
21f900
200100
200100
400100
400200
001c00
000000
000000
ENDCHAR
STARTCHAR 2651
ENCODING 9809
SWIDTH 1500 0
DWIDTH 18 0
BBX 18 19 0 -1
BITMAP
000000
002000
212000
112000
03fe00
422000
242000
002000
102000
17ff00
102000
202000
202000
202000
402000
402000
002000
000000
000000
ENDCHAR
STARTCHAR 2652
ENCODING 9810
SWIDTH 1500 0
DWIDTH 18 0
BBX 18 19 0 -1
BITMAP
000000
008000
208000
108000
01ff00
410100
220100
002100
102100
104100
105100
208900
21f500
200500
400100
400200
000c00
000000
000000
ENDCHAR
STARTCHAR 2653
ENCODING 9811
SWIDTH 1500 0
DWIDTH 18 0
BBX 18 19 0 -1
BITMAP
000000
002000
205000
108800
010400
420200
24f900
000000
100000
13fe00
100200
200400
200400
200800
401000
402000
004000
000000
000000
ENDCHAR
STARTCHAR 2654
ENCODING 9812
SWIDTH 1500 0
DWIDTH 18 0
BBX 18 19 0 -1
BITMAP
000000
010000
208000
3fff00
400100
408200
008000
008400
3e8800
02d000
04a000
049000
088800
108400
608300
008000
038000
000000
000000
ENDCHAR
STARTCHAR 2655
ENCODING 9813
SWIDTH 1500 0
DWIDTH 18 0
BBX 18 19 0 -1
BITMAP
000000
008000
208200
208200
208200
3ffe00
000000
008000
008400
3e8800
02d000
04a000
049000
088800
108400
608300
038000
000000
000000
ENDCHAR
STARTCHAR 2656
ENCODING 9814
SWIDTH 1500 0
DWIDTH 18 0
BBX 18 19 0 -1
BITMAP
000000
000000
21fe00
110200
010200
410200
210200
01fe00
111000
111000
111000
210800
220800
220400
440400
480200
100100
000000
000000
ENDCHAR
STARTCHAR 2657
ENCODING 9815
SWIDTH 1500 0
DWIDTH 18 0
BBX 18 19 0 -1
BITMAP
000000
000000
220100
120500
028500
424900
222900
021100
122900
122900
124500
228500
220100
220100
43ff00
420100
000000
000000
000000
ENDCHAR
STARTCHAR 2658
ENCODING 9816
SWIDTH 1500 0
DWIDTH 18 0
BBX 18 19 0 -1
BITMAP
000000
008000
208000
108000
01ff00
410400
228400
048400
108400
108800
104800
205000
202000
205000
408800
410400
060300
000000
000000
ENDCHAR
STARTCHAR 2659
ENCODING 9817
SWIDTH 1500 0
DWIDTH 18 0
BBX 18 19 0 -1
BITMAP
000000
000000
21f800
110800
010800
410800
220700
040000
13fc00
110400
110400
208800
205000
202000
405000
418c00
060300
000000
000000
ENDCHAR
STARTCHAR 265a
ENCODING 9818
SWIDTH 1500 0
DWIDTH 18 0
BBX 18 19 0 -1
BITMAP
000000
010000
210000
11fe00
022200
422200
242400
002000
102000
102000
105000
205000
208800
208800
410400
420200
0c0100
000000
000000
ENDCHAR
STARTCHAR 265b
ENCODING 9819
SWIDTH 1500 0
DWIDTH 18 0
BBX 18 19 0 -1
BITMAP
000000
000f00
21f000
110000
010000
41ff00
210100
010100
110100
11ff00
110100
210000
210000
220000
420000
440000
080000
000000
000000
ENDCHAR
STARTCHAR 265c
ENCODING 9820
SWIDTH 1500 0
DWIDTH 18 0
BBX 18 19 0 -1
BITMAP
000000
000000
201e00
11e400
012400
412400
212400
012400
112400
112400
112400
212400
222200
222200
442200
442100
080100
000000
000000
ENDCHAR
STARTCHAR 265d
ENCODING 9821
SWIDTH 1500 0
DWIDTH 18 0
BBX 18 19 0 -1
BITMAP
000000
001000
200800
108800
008400
410400
210200
022200
142100
104000
104000
208000
208800
210400
421e00
43e200
000200
000000
000000
ENDCHAR
STARTCHAR 265e
ENCODING 9822
SWIDTH 1500 0
DWIDTH 18 0
BBX 18 19 0 -1
BITMAP
000000
100000
101e00
11e000
102000
142000
582000
502000
502000
13ff00
102000
102000
282000
242000
442100
402100
001f00
000000
000000
ENDCHAR
STARTCHAR 265f
ENCODING 9823
SWIDTH 1500 0
DWIDTH 18 0
BBX 18 19 0 -1
BITMAP
000000
008000
108400
088800
089000
016000
061800
180400
600200
041000
041000
041000
7fff00
041000
081000
101000
201000
000000
000000
ENDCHAR
STARTCHAR 2660
ENCODING 9824
SWIDTH 1500 0
DWIDTH 18 0
BBX 18 19 0 -1
BITMAP
000000
010000
208000
3fff00
400100
408200
008000
108400
088800
089000
014000
014000
022000
041000
080800
100400
200300
000000
000000
ENDCHAR
STARTCHAR 2661
ENCODING 9825
SWIDTH 1500 0
DWIDTH 18 0
BBX 18 19 0 -1
BITMAP
000000
101000
101000
101f00
102100
142100
584100
50a100
511200
100a00
100400
100400
280800
241000
242000
40c000
430000
000000
000000
ENDCHAR
STARTCHAR 2662
ENCODING 9826
SWIDTH 1500 0
DWIDTH 18 0
BBX 18 19 0 -1
BITMAP
000000
000000
1ffc00
000400
7fff00
000400
1ffc00
000000
008000
108400
088800
089000
014000
022000
041800
080400
300300
000000
000000
ENDCHAR
STARTCHAR 2663
ENCODING 9827
SWIDTH 1500 0
DWIDTH 18 0
BBX 18 19 0 -1
BITMAP
000000
008000
008000
1ffc00
008000
008000
7fff00
000000
008000
108400
088800
089000
014000
022000
041800
080400
300300
000000
000000
ENDCHAR
STARTCHAR 2664
ENCODING 9828
SWIDTH 1500 0
DWIDTH 18 0
BBX 18 19 0 -1
BITMAP
000000
082000
281000
281000
29ff00
3e8000
488000
488000
088000
0e8000
788000
088000
088000
088000
088000
087f00
080000
000000
000000
ENDCHAR
STARTCHAR 2665
ENCODING 9829
SWIDTH 1500 0
DWIDTH 18 0
BBX 18 19 0 -1
BITMAP
000000
080000
280000
28fe00
3e1000
481000
481000
081000
081000
09ff00
0e1000
781000
081000
081000
081000
081000
081000
000000
000000
ENDCHAR
STARTCHAR 2666
ENCODING 9830
SWIDTH 1500 0
DWIDTH 18 0
BBX 18 19 0 -1
BITMAP
000000
001000
441000
29ff00
101000
281000
49ff00
091100
091100
191100
291100
491100
091100
091100
091600
081000
701000
000000
000000
ENDCHAR
STARTCHAR 2667
ENCODING 9831
SWIDTH 1500 0
DWIDTH 18 0
BBX 18 19 0 -1
BITMAP
000000
000000
45e800
282800
104800
288800
488800
088800
08a800
18c800
2b8800
488800
088800
088800
088900
088900
330700
000000
000000
ENDCHAR
STARTCHAR 2668
ENCODING 9832
SWIDTH 1500 0
DWIDTH 18 0
BBX 18 19 0 -1
BITMAP
000000
002000
442000
282000
102000
2bfe00
482000
087000
08a800
18a800
292400
492400
0a2200
0c2100
082000
082000
702000
000000
000000
ENDCHAR
STARTCHAR 2669
ENCODING 9833
SWIDTH 1500 0
DWIDTH 18 0
BBX 18 19 0 -1
BITMAP
000000
002400
442200
282200
102000
2bff00
482000
082000
085000
185000
285000
485000
085000
089000
089100
091100
320f00
000000
000000
ENDCHAR
STARTCHAR 266a
ENCODING 9834
SWIDTH 1500 0
DWIDTH 18 0
BBX 18 19 0 -1
BITMAP
000000
001000
441200
281100
101000
281000
49ff00
081000
081000
182800
282800
482800
084400
084400
088200
090200
320100
000000
000000
ENDCHAR
STARTCHAR 266b
ENCODING 9835
SWIDTH 1500 0
DWIDTH 18 0
BBX 18 19 0 -1
BITMAP
000000
081000
081200
481100
281000
181000
09ff00
081000
081000
082800
182800
282800
484400
084400
088200
090200
0a0100
000000
000000
ENDCHAR
STARTCHAR 266c
ENCODING 9836
SWIDTH 1500 0
DWIDTH 18 0
BBX 18 19 0 -1
BITMAP
000000
002000
442000
2bfe00
102000
282000
492400
092400
092400
192400
292400
49fc00
092400
082000
082100
082100
301f00
000000
000000
ENDCHAR
STARTCHAR 266d
ENCODING 9837
SWIDTH 1500 0
DWIDTH 18 0
BBX 18 19 0 -1
BITMAP
000000
000e00
44f000
288000
108000
288000
48ff00
088800
088800
188800
288800
488800
088800
088800
090800
090800
720800
000000
000000
ENDCHAR
STARTCHAR 266e
ENCODING 9838
SWIDTH 1500 0
DWIDTH 18 0
BBX 18 19 0 -1
BITMAP
000000
000000
00fe00
7c0200
100200
100200
100200
7c0200
10fe00
108200
108000
108000
1e8000
708000
008100
008100
007f00
000000
000000
ENDCHAR
STARTCHAR 266f
ENCODING 9839
SWIDTH 1500 0
DWIDTH 18 0
BBX 18 19 0 -1
BITMAP
000000
000000
00fe00
7c0200
100400
100800
101000
7c1000
11ff00
101000
101000
101000
1e1000
701000
001000
001000
007000
000000
000000
ENDCHAR
STARTCHAR 2670
ENCODING 9840
SWIDTH 1500 0
DWIDTH 18 0
BBX 18 19 0 -1
BITMAP
000000
000000
01fe00
7c0000
100000
100000
13ff00
104000
7c4000
108000
10fe00
100200
1e0200
700200
000200
000400
001800
000000
000000
ENDCHAR
STARTCHAR 2671
ENCODING 9841
SWIDTH 1500 0
DWIDTH 18 0
BBX 18 19 0 -1
BITMAP
000000
000000
01fc00
7c4400
104400
104400
114400
10c400
7c6400
105400
105400
104400
1e4400
708400
008500
010500
020300
000000
000000
ENDCHAR
STARTCHAR 2672
ENCODING 9842
SWIDTH 1500 0
DWIDTH 18 0
BBX 18 19 0 -1
BITMAP
000000
002000
002000
7c2000
542000
542000
542000
542000
7c5000
545000
545000
544800
548800
7c8800
410400
020200
040100
000000
000000
ENDCHAR
STARTCHAR 2673
ENCODING 9843
SWIDTH 1500 0
DWIDTH 18 0
BBX 18 19 0 -1
BITMAP
000000
008000
004000
1fff00
100000
500000
33f800
108800
109000
309e00
508200
108200
110200
210200
220200
440400
083800
000000
000000
ENDCHAR
STARTCHAR 2674
ENCODING 9844
SWIDTH 1500 0
DWIDTH 18 0
BBX 18 19 0 -1
BITMAP
000000
010000
020000
1ffc00
100400
100400
1ffc00
100400
100400
1ffc00
080000
087c00
0f8000
080000
080200
07fe00
000000
000000
000000
ENDCHAR
STARTCHAR 2675
ENCODING 9845
SWIDTH 1500 0
DWIDTH 18 0
BBX 18 19 0 -1
BITMAP
000000
010000
020000
1ffc00
100400
100400
1ffc00
100400
100400
1ffc00
010000
020000
040800
080400
107a00
3f8200
000200
000000
000000
ENDCHAR
STARTCHAR 2676
ENCODING 9846
SWIDTH 1500 0
DWIDTH 18 0
BBX 18 19 0 -1
BITMAP
000000
010000
020000
1ffc00
100400
100400
1ffc00
100400
100400
1ffc00
022000
022000
042000
042100
082100
102100
201f00
000000
000000
ENDCHAR
STARTCHAR 2677
ENCODING 9847
SWIDTH 1500 0
DWIDTH 18 0
BBX 18 19 0 -1
BITMAP
000000
008000
008000
00c000
00a000
009000
008800
008000
008000
008000
000000
3ffe00
222200
222200
222200
7fff00
000000
000000
000000
ENDCHAR
STARTCHAR 2678
ENCODING 9848
SWIDTH 1500 0
DWIDTH 18 0
BBX 18 19 0 -1
BITMAP
000000
000000
3ff000
021000
022000
043e00
040200
080200
100200
201c00
000000
3ffe00
222200
222200
222200
7fff00
000000
000000
000000
ENDCHAR
STARTCHAR 2679
ENCODING 9849
SWIDTH 1500 0
DWIDTH 18 0
BBX 18 19 0 -1
BITMAP
000000
000000
7dff00
442000
442000
444000
7c4000
448000
44fe00
440200
7c0200
440200
440200
440200
7c0200
440400
003800
000000
000000
ENDCHAR
STARTCHAR 267a
ENCODING 9850
SWIDTH 1500 0
DWIDTH 18 0
BBX 18 19 0 -1
BITMAP
000000
004000
7f4000
104000
104000
104300
104c00
207000
3e4000
524000
524000
524000
124000
124000
1e4100
104100
003f00
000000
000000
ENDCHAR
STARTCHAR 267b
ENCODING 9851
SWIDTH 1500 0
DWIDTH 18 0
BBX 18 19 0 -1
BITMAP
000000
000000
7eff00
100800
100800
100800
100800
200800
3e0800
520800
520800
520800
120800
120800
1e0800
100800
003800
000000
000000
ENDCHAR
STARTCHAR 267c
ENCODING 9852
SWIDTH 1500 0
DWIDTH 18 0
BBX 18 19 0 -1
BITMAP
000000
000200
7f8200
082200
082200
102200
102200
202200
3f2200
512200
512200
112200
112200
110200
1f0200
100200
000e00
000000
000000
ENDCHAR
STARTCHAR 267d
ENCODING 9853
SWIDTH 1500 0
DWIDTH 18 0
BBX 18 19 0 -1
BITMAP
000000
060000
39fc00
084400
084400
7e4800
084800
084f00
184900
2c4100
2a4100
488100
488100
088100
090100
090200
0a0c00
000000
000000
ENDCHAR
STARTCHAR 267e
ENCODING 9854
SWIDTH 1500 0
DWIDTH 18 0
BBX 18 19 0 -1
BITMAP
000000
000000
10f800
088800
7e8800
008800
248800
248800
248800
248800
248800
088800
108800
0e8800
710900
020900
040700
000000
000000
ENDCHAR
STARTCHAR 2721
ENCODING 10017
SWIDTH 1500 0
DWIDTH 18 0
BBX 18 19 0 -1
BITMAP
000000
001000
101000
081000
7e1000
001000
241000
25ff00
241000
241000
241000
081000
101000
0e1000
701000
001000
001000
000000
000000
ENDCHAR
STARTCHAR 2722
ENCODING 10018
SWIDTH 1500 0
DWIDTH 18 0
BBX 18 19 0 -1
BITMAP
000000
084000
104000
204000
444000
284000
104000
244000
244000
4a4000
704000
044000
524000
4a4000
484100
404100
003f00
000000
000000
ENDCHAR
STARTCHAR 2723
ENCODING 10019
SWIDTH 1500 0
DWIDTH 18 0
BBX 18 19 0 -1
BITMAP
000000
000000
3cfe00
240000
240000
240000
35ff00
2c2000
242000
2c4000
347e00
240200
240200
240200
240200
440400
4c1800
000000
000000
ENDCHAR
STARTCHAR 2724
ENCODING 10020
SWIDTH 1500 0
DWIDTH 18 0
BBX 18 19 0 -1
BITMAP
000000
002000
3c2000
244000
247f00
248100
350100
2c0100
244100
2c2100
341100
241100
240100
240100
240100
440100
4c0e00
000000
000000
ENDCHAR
STARTCHAR 2725
ENCODING 10021
SWIDTH 1500 0
DWIDTH 18 0
BBX 18 19 0 -1
BITMAP
000000
002000
3c2000
242200
242200
25ff00
344200
2c4200
244200
2c8200
348400
24e400
241800
241400
242200
444100
4d8000
000000
000000
ENDCHAR
STARTCHAR 2726
ENCODING 10022
SWIDTH 1500 0
DWIDTH 18 0
BBX 18 19 0 -1
BITMAP
000000
001000
3c1000
249000
249300
249d00
34f100
2d9100
249100
2c9200
349000
249000
249000
248100
248100
447f00
4c0000
000000
000000
ENDCHAR
STARTCHAR 2727
ENCODING 10023
SWIDTH 1500 0
DWIDTH 18 0
BBX 18 19 0 -1
BITMAP
000000
080800
080800
7f7f00
080800
080800
008000
008000
008000
089000
088800
108400
108200
208100
408100
008000
038000
000000
000000
ENDCHAR
STARTCHAR 2728
ENCODING 10024
SWIDTH 1500 0
DWIDTH 18 0
BBX 18 19 0 -1
BITMAP
000000
080800
080800
7f7f00
080800
080800
010000
008800
088800
041000
022000
014000
008000
014000
023000
0c0c00
300300
000000
000000
ENDCHAR
STARTCHAR 2729
ENCODING 10025
SWIDTH 1500 0
DWIDTH 18 0
BBX 18 19 0 -1
BITMAP
000000
080800
080800
7f7f00
080800
080800
000000
1ffc00
000000
7fff00
010000
020000
07fc00
040400
000400
000800
007000
000000
000000
ENDCHAR
STARTCHAR 272a
ENCODING 10026
SWIDTH 1500 0
DWIDTH 18 0
BBX 18 19 0 -1
BITMAP
000000
080800
080800
7f7f00
080800
080800
000000
3ffc00
000400
200400
200400
3ffc00
200000
200000
200100
200100
1ffe00
000000
000000
ENDCHAR
STARTCHAR 272b
ENCODING 10027
SWIDTH 1500 0
DWIDTH 18 0
BBX 18 19 0 -1
BITMAP
000000
080800
080800
7f7f00
080800
0a0800
020000
03fc00
040400
080400
130400
208800
005000
006000
018000
0e0000
700000
000000
000000
ENDCHAR
STARTCHAR 272c
ENCODING 10028
SWIDTH 1500 0
DWIDTH 18 0
BBX 18 19 0 -1
BITMAP
000000
080800
080800
7f7f00
080800
080800
040000
040000
07f800
080800
140800
221000
412000
00c000
033000
0c0c00
300300
000000
000000
ENDCHAR
STARTCHAR 272d
ENCODING 10029
SWIDTH 1500 0
DWIDTH 18 0
BBX 18 19 0 -1
BITMAP
000000
082000
082000
082000
7f2000
492000
492000
492000
492000
7f2000
082000
082000
0a2000
092100
0f2100
712100
001f00
000000
000000
ENDCHAR
STARTCHAR 272e
ENCODING 10030
SWIDTH 1500 0
DWIDTH 18 0
BBX 18 19 0 -1
BITMAP
000000
007c00
1f8000
008000
008000
008000
1ffc00
108400
108400
108400
1ffc00
108000
008800
008400
00fc00
3f8200
000200
000000
000000
ENDCHAR
STARTCHAR 272f
ENCODING 10031
SWIDTH 1500 0
DWIDTH 18 0
BBX 18 19 0 -1
BITMAP
000000
006000
018000
0e1800
006000
018000
0e0c00
007000
038000
1c8000
008000
08fc00
088000
088000
148000
128000
21ff00
000000
000000
ENDCHAR
STARTCHAR 2730
ENCODING 10032
SWIDTH 1500 0
DWIDTH 18 0
BBX 18 19 0 -1
BITMAP
000000
002000
402000
202000
102000
03fe00
702000
102000
105000
205000
708800
110800
120400
240200
300000
4c0000
03ff00
000000
000000
ENDCHAR
STARTCHAR 2731
ENCODING 10033
SWIDTH 1500 0
DWIDTH 18 0
BBX 18 19 0 -1
BITMAP
000000
000800
400800
200800
100800
07fe00
700800
110800
108800
204800
704800
100800
100800
200800
303800
4c0000
03ff00
000000
000000
ENDCHAR
STARTCHAR 2732
ENCODING 10034
SWIDTH 1500 0
DWIDTH 18 0
BBX 18 19 0 -1
BITMAP
000000
000000
41fc00
200400
100800
001000
702000
102000
13fe00
202000
702000
102000
102000
202000
306000
4c0000
03ff00
000000
000000
ENDCHAR
STARTCHAR 2733
ENCODING 10035
SWIDTH 1500 0
DWIDTH 18 0
BBX 18 19 0 -1
BITMAP
000000
000000
401c00
21e000
102000
002000
702000
102000
13fe00
202000
702000
102000
102000
202000
302000
4c0000
03ff00
000000
000000
ENDCHAR
STARTCHAR 2734
ENCODING 10036
SWIDTH 1500 0
DWIDTH 18 0
BBX 18 19 0 -1
BITMAP
000000
080000
083e00
082200
08a200
492400
492800
2a2400
282200
082200
082200
082200
122200
112200
20ac00
20a000
402000
000000
000000
ENDCHAR
STARTCHAR 2735
ENCODING 10037
SWIDTH 1500 0
DWIDTH 18 0
BBX 18 19 0 -1
BITMAP
000000
070000
383e00
202200
202200
202400
3fa800
222400
222200
222200
222200
222200
222200
222200
422c00
422000
022000
000000
000000
ENDCHAR
STARTCHAR 2736
ENCODING 10038
SWIDTH 1500 0
DWIDTH 18 0
BBX 18 19 0 -1
BITMAP
000000
000000
003e00
3f2200
002200
002400
002800
7fa400
082200
082200
102200
102200
222200
212200
4f2c00
712000
002000
000000
000000
ENDCHAR
STARTCHAR 2737
ENCODING 10039
SWIDTH 1500 0
DWIDTH 18 0
BBX 18 19 0 -1
BITMAP
000000
040000
043e00
042200
042200
7fa400
042800
0c2400
162200
152200
14a200
24a200
242200
442200
042c00
042000
042000
000000
000000
ENDCHAR
STARTCHAR 2738
ENCODING 10040
SWIDTH 1500 0
DWIDTH 18 0
BBX 18 19 0 -1
BITMAP
000000
000000
3f3e00
212200
212200
292400
252800
252400
212200
7fa200
212200
212200
212200
212200
212c00
412000
432000
000000
000000
ENDCHAR
STARTCHAR 2739
ENCODING 10041
SWIDTH 1500 0
DWIDTH 18 0
BBX 18 19 0 -1
BITMAP
000000
040000
041f00
7fd100
041100
249200
249400
249200
249100
249100
7f9100
249100
041100
045100
049600
051000
021000
000000
000000
ENDCHAR
STARTCHAR 273a
ENCODING 10042
SWIDTH 1500 0
DWIDTH 18 0
BBX 18 19 0 -1
BITMAP
000000
000400
3c0400
244400
242400
281400
280400
308400
284400
242400
240400
240400
25ff00
380400
200400
200400
200400
000000
000000
ENDCHAR
STARTCHAR 273b
ENCODING 10043
SWIDTH 1500 0
DWIDTH 18 0
BBX 18 19 0 -1
BITMAP
000000
001000
3c1000
241000
251100
291100
289200
309200
281000
242800
242800
242800
244400
384400
208200
210200
220100
000000
000000
ENDCHAR
STARTCHAR 273c
ENCODING 10044
SWIDTH 1500 0
DWIDTH 18 0
BBX 18 19 0 -1
BITMAP
000000
000000
3c0000
25ff00
240800
280800
281000
301000
282400
245200
249100
251100
241000
381000
201000
201000
201000
000000
000000
ENDCHAR
STARTCHAR 273d
ENCODING 10045
SWIDTH 1500 0
DWIDTH 18 0
BBX 18 19 0 -1
BITMAP
000000
000000
3cfe00
248200
248200
288200
288200
308200
28fe00
248200
248200
248200
248200
388200
20fe00
208200
200000
000000
000000
ENDCHAR
STARTCHAR 273e
ENCODING 10046
SWIDTH 1500 0
DWIDTH 18 0
BBX 18 19 0 -1
BITMAP
000000
000000
3cfe00
248200
248200
288200
28fe00
308200
288200
248200
24fe00
248200
248200
390200
210200
220200
240e00
000000
000000
ENDCHAR
STARTCHAR 273f
ENCODING 10047
SWIDTH 1500 0
DWIDTH 18 0
BBX 18 19 0 -1
BITMAP
000000
000400
3c7400
25c400
244400
284400
284400
304400
2bff00
244400
244400
244400
244400
388400
208400
210400
220400
000000
000000
ENDCHAR
STARTCHAR 2740
ENCODING 10048
SWIDTH 1500 0
DWIDTH 18 0
BBX 18 19 0 -1
BITMAP
000000
000000
7e7e00
000000
000000
000000
7e7e00
424200
424200
525200
525200
4a4a00
4a4a00
424200
424200
424200
464600
000000
000000
ENDCHAR
STARTCHAR 2741
ENCODING 10049
SWIDTH 1500 0
DWIDTH 18 0
BBX 18 19 0 -1
BITMAP
000000
000000
7cfe00
040400
282800
101000
080800
7eff00
121100
121100
141200
101000
101000
101000
101000
101000
307000
000000
000000
ENDCHAR
STARTCHAR 2742
ENCODING 10050
SWIDTH 1500 0
DWIDTH 18 0
BBX 18 19 0 -1
BITMAP
000000
010000
021000
040800
08f400
1f0400
081000
121200
212100
7f3f00
010100
000000
1ffc00
000000
000000
7fff00
000000
000000
000000
ENDCHAR
STARTCHAR 2743
ENCODING 10051
SWIDTH 1500 0
DWIDTH 18 0
BBX 18 19 0 -1
BITMAP
000000
082000
09fc00
102400
102400
23ff00
302400
502400
51fc00
102000
102000
13fe00
102000
102000
17ff00
102000
102000
000000
000000
ENDCHAR
STARTCHAR 2744
ENCODING 10052
SWIDTH 1500 0
DWIDTH 18 0
BBX 18 19 0 -1
BITMAP
000000
082000
082000
122100
112200
20a400
30a800
502000
53ff00
104800
104800
104800
108800
108800
110900
120900
140700
000000
000000
ENDCHAR
STARTCHAR 2745
ENCODING 10053
SWIDTH 1500 0
DWIDTH 18 0
BBX 18 19 0 -1
BITMAP
000000
082000
082000
103e00
13e000
202000
302000
53fe00
502000
102000
17ff00
102000
10a800
112400
122200
142100
102000
000000
000000
ENDCHAR
STARTCHAR 2746
ENCODING 10054
SWIDTH 1500 0
DWIDTH 18 0
BBX 18 19 0 -1
BITMAP
000000
080000
0bfc00
120400
120400
23fc00
324400
524400
527400
129400
135400
123400
121400
122500
124500
148300
140100
000000
000000
ENDCHAR
STARTCHAR 2747
ENCODING 10055
SWIDTH 1500 0
DWIDTH 18 0
BBX 18 19 0 -1
BITMAP
000000
088000
08fc00
110400
128800
245000
302000
50d800
532600
1c2100
13fc00
122000
122000
13fe00
102000
102000
102000
000000
000000
ENDCHAR
STARTCHAR 2748
ENCODING 10056
SWIDTH 1500 0
DWIDTH 18 0
BBX 18 19 0 -1
BITMAP
000000
082000
082000
122200
112400
20a800
302000
57ff00
502000
102000
10a800
112400
122200
142100
102000
102000
102000
000000
000000
ENDCHAR
STARTCHAR 2749
ENCODING 10057
SWIDTH 1500 0
DWIDTH 18 0
BBX 18 19 0 -1
BITMAP
000000
082000
082000
102000
13fe00
202000
322200
512400
50a800
102000
17ff00
105000
105000
108800
110400
120200
140100
000000
000000
ENDCHAR
STARTCHAR 274a
ENCODING 10058
SWIDTH 1500 0
DWIDTH 18 0
BBX 18 19 0 -1
BITMAP
000000
080000
0bfe00
102000
102000
23fe00
322200
522200
57ff00
122200
122200
17ff00
120200
120200
120200
120200
120e00
000000
000000
ENDCHAR
STARTCHAR 274b
ENCODING 10059
SWIDTH 1500 0
DWIDTH 18 0
BBX 18 19 0 -1
BITMAP
000000
080000
0bff00
104800
104800
204800
33ff00
524900
524900
124900
124900
124900
124900
124900
124900
13ff00
120100
000000
000000
ENDCHAR
STARTCHAR 274c
ENCODING 10060
SWIDTH 1500 0
DWIDTH 18 0
BBX 18 19 0 -1
BITMAP
000000
082000
082000
17ff00
104000
208000
30be00
510200
530400
150800
110800
117f00
110800
110800
110800
110800
111800
000000
000000
ENDCHAR
STARTCHAR 274d
ENCODING 10061
SWIDTH 1500 0
DWIDTH 18 0
BBX 18 19 0 -1
BITMAP
000000
080000
09fe00
110200
110200
210200
310200
51fe00
500000
100000
13ff00
120100
120100
120100
120100
13ff00
120100
000000
000000
ENDCHAR
STARTCHAR 274e
ENCODING 10062
SWIDTH 1500 0
DWIDTH 18 0
BBX 18 19 0 -1
BITMAP
000000
080000
0bfe00
120200
120200
220200
320200
520200
53fe00
100000
111100
111100
122200
144400
122200
111100
111100
000000
000000
ENDCHAR
STARTCHAR 274f
ENCODING 10063
SWIDTH 1500 0
DWIDTH 18 0
BBX 18 19 0 -1
BITMAP
000000
082000
084000
107f00
108100
210200
328400
544800
503000
104000
11ff00
168100
108100
108100
108100
10ff00
108100
000000
000000
ENDCHAR
STARTCHAR 2750
ENCODING 10064
SWIDTH 1500 0
DWIDTH 18 0
BBX 18 19 0 -1
BITMAP
000000
082000
084000
11fe00
110200
210200
310200
51fe00
510200
110200
110200
11fe00
110200
110200
110200
11fe00
110200
000000
000000
ENDCHAR
STARTCHAR 2751
ENCODING 10065
SWIDTH 1500 0
DWIDTH 18 0
BBX 18 19 0 -1
BITMAP
000000
008000
014000
063000
180c00
67f300
000000
0ff800
001000
002000
1ffc00
000000
7fff00
011000
020800
047400
0f8200
000000
000000
ENDCHAR
STARTCHAR 2752
ENCODING 10066
SWIDTH 1500 0
DWIDTH 18 0
BBX 18 19 0 -1
BITMAP
000000
010000
008000
7fff00
041000
080800
110400
221200
440900
087400
1f8400
022000
022000
042000
082100
102100
201f00
000000
000000
ENDCHAR
STARTCHAR 2753
ENCODING 10067
SWIDTH 1500 0
DWIDTH 18 0
BBX 18 19 0 -1
BITMAP
000000
000000
3ff000
041000
08e000
100000
3ffc00
508400
108400
108400
1ffc00
014000
015000
024800
044900
084100
303f00
000000
000000
ENDCHAR
STARTCHAR 2754
ENCODING 10068
SWIDTH 1500 0
DWIDTH 18 0
BBX 18 19 0 -1
BITMAP
000000
000000
0ff800
080800
080800
0ff800
080800
080800
0ff800
080800
080800
0ff800
000000
7fff00
041000
080800
100400
000000
000000
ENDCHAR
STARTCHAR 2755
ENCODING 10069
SWIDTH 1500 0
DWIDTH 18 0
BBX 18 19 0 -1
BITMAP
000000
000000
3ffe00
200200
3ffe00
200200
3ffe00
000000
000000
1ffc00
100400
1ffc00
100400
1ffc00
100400
200400
401c00
000000
000000
ENDCHAR
STARTCHAR 2756
ENCODING 10070
SWIDTH 1500 0
DWIDTH 18 0
BBX 18 19 0 -1
BITMAP
000000
000000
008800
408800
208800
13fe00
008800
008800
088800
088800
108800
17ff00
200000
208800
410400
420200
040100
000000
000000
ENDCHAR
STARTCHAR 2757
ENCODING 10071
SWIDTH 1500 0
DWIDTH 18 0
BBX 18 19 0 -1
BITMAP
000000
000000
03fe00
420200
220200
12fa00
020200
020200
0afa00
0a8a00
128a00
128a00
22fa00
220200
420200
420200
020600
000000
000000
ENDCHAR
STARTCHAR 2758
ENCODING 10072
SWIDTH 1500 0
DWIDTH 18 0
BBX 18 19 0 -1
BITMAP
000000
004000
002000
405000
208800
110400
020200
01fc00
082000
082000
102000
11fc00
202000
202000
402000
43fe00
000000
000000
000000
ENDCHAR
STARTCHAR 2759
ENCODING 10073
SWIDTH 1500 0
DWIDTH 18 0
BBX 18 19 0 -1
BITMAP
000000
080000
09fc00
102000
202000
57ff00
102000
102000
13fe00
100000
07f000
041000
041000
041000
081100
101100
200f00
000000
000000
ENDCHAR
STARTCHAR 275a
ENCODING 10074
SWIDTH 1500 0
DWIDTH 18 0
BBX 18 19 0 -1
BITMAP
000000
000000
1ff800
001000
002000
20c200
208200
2eba00
2a8a00
2aaa00
2a9200
2eaa00
20ca00
238200
200200
3ffe00
200200
000000
000000
ENDCHAR
STARTCHAR 275b
ENCODING 10075
SWIDTH 1500 0
DWIDTH 18 0
BBX 18 19 0 -1
BITMAP
000000
000000
7f8100
001100
001100
3f9100
209100
209100
3f9100
209100
209100
3f9100
001100
000100
07c100
780100
000700
000000
000000
ENDCHAR
STARTCHAR 275c
ENCODING 10076
SWIDTH 1500 0
DWIDTH 18 0
BBX 18 19 0 -1
BITMAP
000000
000000
7be100
108900
108900
108900
108900
108900
7be900
108900
108900
108900
108900
108100
208100
408100
008700
000000
000000
ENDCHAR
STARTCHAR 275d
ENCODING 10077
SWIDTH 1500 0
DWIDTH 18 0
BBX 18 19 0 -1
BITMAP
000000
080000
080000
08fc00
3e2400
082400
082400
082400
08a400
7f6400
103400
102c00
242700
224400
4e4400
728400
011800
000000
000000
ENDCHAR
STARTCHAR 275e
ENCODING 10078
SWIDTH 1500 0
DWIDTH 18 0
BBX 18 19 0 -1
BITMAP
000000
000200
7f0200
111200
121200
13d200
205200
205200
499200
081200
7f1200
081200
1a1200
291200
490200
080200
080e00
000000
000000
ENDCHAR
STARTCHAR 275f
ENCODING 10079
SWIDTH 1500 0
DWIDTH 18 0
BBX 18 19 0 -1
BITMAP
000000
020200
640200
182200
142200
222200
482200
082200
7f2200
082200
2a2200
2a2200
2a2200
2a0200
298200
480200
081c00
000000
000000
ENDCHAR
STARTCHAR 2760
ENCODING 10080
SWIDTH 1500 0
DWIDTH 18 0
BBX 18 19 0 -1
BITMAP
000000
101000
081000
7f1000
001000
127f00
211100
401100
021100
221100
141100
141100
081100
142100
222100
424100
008600
000000
000000
ENDCHAR
STARTCHAR 2761
ENCODING 10081
SWIDTH 1500 0
DWIDTH 18 0
BBX 18 19 0 -1
BITMAP
000000
008000
108400
088800
049000
1ffc00
010000
020000
7fff00
080800
110400
610300
1ff800
020800
040800
080800
307000
000000
000000
ENDCHAR
STARTCHAR 2762
ENCODING 10082
SWIDTH 1500 0
DWIDTH 18 0
BBX 18 19 0 -1
BITMAP
000000
082000
082000
7efc00
082400
08a400
0e6400
782500
085500
089500
390300
010000
3ffc00
020400
040400
080400
303800
000000
000000
ENDCHAR
STARTCHAR 2763
ENCODING 10083
SWIDTH 1500 0
DWIDTH 18 0
BBX 18 19 0 -1
BITMAP
000000
080800
041000
022000
1ffc00
108400
108400
1ffc00
108400
108400
1ffc00
008000
008000
7fff00
008000
008000
008000
000000
000000
ENDCHAR
STARTCHAR 2764
ENCODING 10084
SWIDTH 1500 0
DWIDTH 18 0
BBX 18 19 0 -1
BITMAP
000000
010000
010000
01fe00
010000
010000
3ffe00
200200
200200
27f200
241200
241200
27f200
200200
200200
3ffe00
200200
000000
000000
ENDCHAR
STARTCHAR 2765
ENCODING 10085
SWIDTH 1500 0
DWIDTH 18 0
BBX 18 19 0 -1
BITMAP
000000
080000
083f00
1f2100
212100
522100
0c2100
082100
142100
27a100
08a100
10a100
292100
062600
042000
182000
602000
000000
000000
ENDCHAR
STARTCHAR 2766
ENCODING 10086
SWIDTH 1500 0
DWIDTH 18 0
BBX 18 19 0 -1
BITMAP
000000
0ff000
002000
004400
3ea800
049000
088800
338600
000000
7fff00
000000
1ffc00
100400
100400
101d00
100100
0fff00
000000
000000
ENDCHAR
STARTCHAR 2767
ENCODING 10087
SWIDTH 1500 0
DWIDTH 18 0
BBX 18 19 0 -1
BITMAP
000000
000000
3fff00
204000
204000
27fc00
204000
204000
2ffe00
200000
204000
204000
27fc00
204000
404000
4ffe00
000000
000000
000000
ENDCHAR
STARTCHAR 2768
ENCODING 10088
SWIDTH 1500 0
DWIDTH 18 0
BBX 18 19 0 -1
BITMAP
000000
000000
3fff00
200000
204000
202000
2fff00
204000
208200
212400
232800
251000
291000
210800
412400
414200
018100
000000
000000
ENDCHAR
STARTCHAR 2769
ENCODING 10089
SWIDTH 1500 0
DWIDTH 18 0
BBX 18 19 0 -1
BITMAP
000000
010000
021000
040800
1ffc00
008200
010000
7fff00
022000
041000
180c00
6ffb00
000000
0ff800
000000
3ffe00
000000
000000
000000
ENDCHAR
STARTCHAR 276a
ENCODING 10090
SWIDTH 1500 0
DWIDTH 18 0
BBX 18 19 0 -1
BITMAP
000000
010000
021000
040800
1ffc00
008200
010000
7fff00
022000
041000
18cc00
630300
0c3000
01c000
0e0c00
007000
078000
000000
000000
ENDCHAR
STARTCHAR 276b
ENCODING 10091
SWIDTH 1500 0
DWIDTH 18 0
BBX 18 19 0 -1
BITMAP
000000
000000
7e7e00
020200
643400
180800
241400
426200
000000
7e7e00
020200
224200
242400
181800
141400
222200
014100
000000
000000
ENDCHAR
STARTCHAR 276c
ENCODING 10092
SWIDTH 1500 0
DWIDTH 18 0
BBX 18 19 0 -1
BITMAP
000000
010000
008000
3ffe00
000800
080800
041000
022000
7fff00
000000
000000
0ff800
080800
080800
080800
0ff800
080800
000000
000000
ENDCHAR
STARTCHAR 276d
ENCODING 10093
SWIDTH 1500 0
DWIDTH 18 0
BBX 18 19 0 -1
BITMAP
000000
002000
001000
7c1000
45ff00
440000
440200
448200
448200
448200
444400
7c4400
444400
002800
002800
01ff00
000000
000000
000000
ENDCHAR
STARTCHAR 276e
ENCODING 10094
SWIDTH 1500 0
DWIDTH 18 0
BBX 18 19 0 -1
BITMAP
000000
002000
001000
7c1000
45ff00
442000
442000
444000
448400
448800
445000
7c2000
444400
008200
010e00
01f100
000100
000000
000000
ENDCHAR
STARTCHAR 276f
ENCODING 10095
SWIDTH 1500 0
DWIDTH 18 0
BBX 18 19 0 -1
BITMAP
000000
000000
03ff00
7c4000
444000
447c00
444400
444400
446400
445400
449400
7c8400
448400
009d00
00e500
018300
000000
000000
000000
ENDCHAR
STARTCHAR 2770
ENCODING 10096
SWIDTH 1500 0
DWIDTH 18 0
BBX 18 19 0 -1
BITMAP
000000
002000
002000
782000
49fc00
492400
492400
492400
492400
492400
4fff00
782000
484800
008400
010200
020100
040100
000000
000000
ENDCHAR
STARTCHAR 2771
ENCODING 10097
SWIDTH 1500 0
DWIDTH 18 0
BBX 18 19 0 -1
BITMAP
000000
001000
009000
789000
48fe00
491000
4a1000
481000
481000
4bff00
481000
782800
482800
004400
008400
010200
060100
000000
000000
ENDCHAR
STARTCHAR 2772
ENCODING 10098
SWIDTH 1500 0
DWIDTH 18 0
BBX 18 19 0 -1
BITMAP
000000
0ff800
080800
080800
0ff800
008000
008000
1ffc00
108400
108400
1ffc00
108400
108400
1ffc00
008100
008100
007f00
000000
000000
ENDCHAR
STARTCHAR 2773
ENCODING 10099
SWIDTH 1500 0
DWIDTH 18 0
BBX 18 19 0 -1
BITMAP
000000
006000
001000
780000
49f000
481100
481200
4bd400
485800
485400
489400
789200
491200
021100
041100
081000
007000
000000
000000
ENDCHAR
STARTCHAR 2774
ENCODING 10100
SWIDTH 1500 0
DWIDTH 18 0
BBX 18 19 0 -1
BITMAP
000000
000000
00fe00
780000
480000
480000
480000
49ff00
481000
481000
489200
789200
491100
011100
021100
001000
001000
000000
000000
ENDCHAR
STARTCHAR 2775
ENCODING 10101
SWIDTH 1500 0
DWIDTH 18 0
BBX 18 19 0 -1
BITMAP
000000
002400
012400
792400
492400
492400
4fff00
492400
492400
492400
492400
793c00
492400
010000
010000
01ff00
000000
000000
000000
ENDCHAR
STARTCHAR 2776
ENCODING 10102
SWIDTH 1500 0
DWIDTH 18 0
BBX 18 19 0 -1
BITMAP
000000
000000
3e3e00
222200
222200
3e3e00
000000
000000
7fff00
020000
040000
07fc00
000400
000400
000400
000800
007000
000000
000000
ENDCHAR
STARTCHAR 2777
ENCODING 10103
SWIDTH 1500 0
DWIDTH 18 0
BBX 18 19 0 -1
BITMAP
000000
002000
002000
783c00
482000
482000
482000
4bff00
482000
483000
482800
782400
482200
002000
002000
002000
002000
000000
000000
ENDCHAR
STARTCHAR 2778
ENCODING 10104
SWIDTH 1500 0
DWIDTH 18 0
BBX 18 19 0 -1
BITMAP
000000
000000
01fe00
790200
490200
490200
490200
490200
49fe00
484800
484800
784800
488800
008800
010900
020900
040700
000000
000000
ENDCHAR
STARTCHAR 2779
ENCODING 10105
SWIDTH 1500 0
DWIDTH 18 0
BBX 18 19 0 -1
BITMAP
000000
000e00
00f000
7c1000
441000
441000
45ff00
441000
443800
443400
445400
7c5200
449200
009100
011000
001000
001000
000000
000000
ENDCHAR
STARTCHAR 277a
ENCODING 10106
SWIDTH 1500 0
DWIDTH 18 0
BBX 18 19 0 -1
BITMAP
000000
001000
002000
7c4000
44fe00
448200
448200
448200
448200
44fe00
448200
7c8200
448200
008200
008200
00fe00
008200
000000
000000
ENDCHAR
STARTCHAR 277b
ENCODING 10107
SWIDTH 1500 0
DWIDTH 18 0
BBX 18 19 0 -1
BITMAP
000000
000000
3ffe00
200200
200200
2ffa00
208200
208200
208200
27f200
20a200
209200
208200
2ffa00
200200
3ffe00
200200
000000
000000
ENDCHAR
STARTCHAR 277c
ENCODING 10108
SWIDTH 1500 0
DWIDTH 18 0
BBX 18 19 0 -1
BITMAP
000000
000000
3ffe00
200200
27fa00
240a00
240a00
27fa00
244200
27fa00
244200
242a00
259a00
260a00
200200
3ffe00
200200
000000
000000
ENDCHAR
STARTCHAR 277d
ENCODING 10109
SWIDTH 1500 0
DWIDTH 18 0
BBX 18 19 0 -1
BITMAP
000000
000000
3ffe00
200200
200200
2ffa00
208200
208200
24f200
248200
248200
248200
2ffa00
200200
200200
3ffe00
200200
000000
000000
ENDCHAR
STARTCHAR 277e
ENCODING 10110
SWIDTH 1500 0
DWIDTH 18 0
BBX 18 19 0 -1
BITMAP
000000
000000
3ffe00
200200
2ffa00
288a00
288a00
2ffa00
288a00
288a00
2ffa00
208200
208200
208200
208200
3ffe00
200200
000000
000000
ENDCHAR
STARTCHAR 2821
ENCODING 10273
SWIDTH 1500 0
DWIDTH 18 0
BBX 18 19 0 -1
BITMAP
000000
000000
3ffe00
210200
210200
222200
221200
27f200
201200
200200
27f200
241200
241200
27f200
200200
3ffe00
200200
000000
000000
ENDCHAR
STARTCHAR 2822
ENCODING 10274
SWIDTH 1500 0
DWIDTH 18 0
BBX 18 19 0 -1
BITMAP
000000
000000
3ffe00
222200
222200
242200
283e00
308200
208200
27f200
208200
208200
2ffa00
200200
200200
3ffe00
200200
000000
000000
ENDCHAR
STARTCHAR 2823
ENCODING 10275
SWIDTH 1500 0
DWIDTH 18 0
BBX 18 19 0 -1
BITMAP
000000
100000
10fc00
108400
108400
7c8400
10fc00
108400
108400
108400
10fc00
108400
1c8400
708400
008400
03ff00
000000
000000
000000
ENDCHAR
STARTCHAR 2824
ENCODING 10276
SWIDTH 1500 0
DWIDTH 18 0
BBX 18 19 0 -1
BITMAP
000000
104000
104000
107e00
109000
7c9000
111000
101000
101000
11ff00
101000
102800
1e2400
704200
004100
008100
010000
000000
000000
ENDCHAR
STARTCHAR 2825
ENCODING 10277
SWIDTH 1500 0
DWIDTH 18 0
BBX 18 19 0 -1
BITMAP
000000
008000
108400
088800
249000
3fff00
400100
408200
008000
008000
1ffc00
008000
008000
008000
008000
7fff00
000000
000000
000000
ENDCHAR
STARTCHAR 2826
ENCODING 10278
SWIDTH 1500 0
DWIDTH 18 0
BBX 18 19 0 -1
BITMAP
000000
100000
11ff00
102000
102000
7c2000
104000
104000
107e00
10c200
114200
104200
1e4200
704200
004200
007e00
004200
000000
000000
ENDCHAR
STARTCHAR 2827
ENCODING 10279
SWIDTH 1500 0
DWIDTH 18 0
BBX 18 19 0 -1
BITMAP
000000
101000
101000
10fe00
109200
7c9200
109200
11ff00
109200
109200
109200
11ff00
1c8200
708200
008200
008200
008e00
000000
000000
ENDCHAR
STARTCHAR 2828
ENCODING 10280
SWIDTH 1500 0
DWIDTH 18 0
BBX 18 19 0 -1
BITMAP
000000
102000
102000
104000
104400
7c8200
110e00
13f100
100100
100000
11fe00
110200
1d0200
710200
010200
01fe00
010200
000000
000000
ENDCHAR
STARTCHAR 2829
ENCODING 10281
SWIDTH 1500 0
DWIDTH 18 0
BBX 18 19 0 -1
BITMAP
000000
104000
104000
108000
10ff00
7d0100
120100
100100
10f900
108900
108900
108900
1cf900
708900
000100
000200
001c00
000000
000000
ENDCHAR
STARTCHAR 282a
ENCODING 10282
SWIDTH 1500 0
DWIDTH 18 0
BBX 18 19 0 -1
BITMAP
000000
004400
108400
108400
110400
7d0400
127f00
130400
150400
114400
112400
1d2400
710400
010400
010400
010400
011c00
000000
000000
ENDCHAR
STARTCHAR 282b
ENCODING 10283
SWIDTH 1500 0
DWIDTH 18 0
BBX 18 19 0 -1
BITMAP
000000
022000
022000
3e3e00
022000
022000
022100
0e2100
721f00
008000
008000
1ffc00
008000
008000
008000
7ffe00
000000
000000
000000
ENDCHAR
STARTCHAR 282c
ENCODING 10284
SWIDTH 1500 0
DWIDTH 18 0
BBX 18 19 0 -1
BITMAP
000000
008000
008800
008800
3e8800
229400
229400
229200
3ea200
008000
008000
1ffc00
008000
008000
008000
7fff00
000000
000000
000000
ENDCHAR
STARTCHAR 282d
ENCODING 10285
SWIDTH 1500 0
DWIDTH 18 0
BBX 18 19 0 -1
BITMAP
000000
008000
008000
3ffe00
008000
1ffc00
000000
7fff00
400100
5ffd00
000000
07f000
041000
041000
081100
101100
200f00
000000
000000
ENDCHAR
STARTCHAR 282e
ENCODING 10286
SWIDTH 1500 0
DWIDTH 18 0
BBX 18 19 0 -1
BITMAP
000000
010000
010000
7fff00
022000
041000
080800
100400
600300
1ffc00
108400
108400
1ffc00
108400
108400
1ffc00
100400
000000
000000
ENDCHAR
STARTCHAR 282f
ENCODING 10287
SWIDTH 1500 0
DWIDTH 18 0
BBX 18 19 0 -1
BITMAP
000000
008000
008000
00fe00
008000
008000
1ffc00
100400
100400
1ffc00
108400
008000
7fff00
010000
023000
0c0c00
700200
000000
000000
ENDCHAR
STARTCHAR 2830
ENCODING 10288
SWIDTH 1500 0
DWIDTH 18 0
BBX 18 19 0 -1
BITMAP
000000
200000
21ff00
241000
7e1000
249200
249200
245400
245400
241000
45ff00
341000
081000
141000
221000
401000
001000
000000
000000
ENDCHAR
STARTCHAR 2831
ENCODING 10289
SWIDTH 1500 0
DWIDTH 18 0
BBX 18 19 0 -1
BITMAP
000000
200000
21ff00
240800
7e1000
242000
242800
246400
24a200
252100
442000
342000
082000
142000
220000
41ff00
000000
000000
000000
ENDCHAR
STARTCHAR 2832
ENCODING 10290
SWIDTH 1500 0
DWIDTH 18 0
BBX 18 19 0 -1
BITMAP
000000
201000
201000
241000
7eff00
242000
242800
244800
24ff00
254900
444900
344900
084900
144900
224b00
400800
000800
000000
000000
ENDCHAR
STARTCHAR 2833
ENCODING 10291
SWIDTH 1500 0
DWIDTH 18 0
BBX 18 19 0 -1
BITMAP
000000
204000
204800
244400
7e4000
25ff00
244000
244400
24a400
24a400
452400
352800
0a1000
142800
224400
408200
010100
000000
000000
ENDCHAR
STARTCHAR 2834
ENCODING 10292
SWIDTH 1500 0
DWIDTH 18 0
BBX 18 19 0 -1
BITMAP
000000
200000
21ff00
240100
7e0100
24f900
240100
240100
24f900
248900
448900
348900
08f900
148900
220100
400100
000700
000000
000000
ENDCHAR
STARTCHAR 2835
ENCODING 10293
SWIDTH 1500 0
DWIDTH 18 0
BBX 18 19 0 -1
BITMAP
000000
200000
20fe00
248200
7e8200
248200
24fe00
248800
248800
248800
44ff00
348800
088800
148900
228500
40b300
00c100
000000
000000
ENDCHAR
STARTCHAR 2836
ENCODING 10294
SWIDTH 1500 0
DWIDTH 18 0
BBX 18 19 0 -1
BITMAP
000000
200000
20fe00
249200
7e9200
249200
249200
249200
24fe00
249200
449200
349200
089200
149200
22fe00
408200
000000
000000
000000
ENDCHAR
STARTCHAR 2837
ENCODING 10295
SWIDTH 1500 0
DWIDTH 18 0
BBX 18 19 0 -1
BITMAP
000000
200e00
21f000
242000
7e1000
241000
25fe00
240200
240400
240800
441000
342000
082000
144000
22a000
411000
000f00
000000
000000
ENDCHAR
STARTCHAR 2838
ENCODING 10296
SWIDTH 1500 0
DWIDTH 18 0
BBX 18 19 0 -1
BITMAP
000000
204000
204000
248000
7eff00
252000
252000
242000
243e00
242000
442000
342000
083e00
142000
222000
402000
002000
000000
000000
ENDCHAR
STARTCHAR 2839
ENCODING 10297
SWIDTH 1500 0
DWIDTH 18 0
BBX 18 19 0 -1
BITMAP
000000
204000
204000
244000
7efe00
248200
250200
24fa00
248a00
248a00
44fa00
348200
088c00
148000
228100
408100
007f00
000000
000000
ENDCHAR
STARTCHAR 283a
ENCODING 10298
SWIDTH 1500 0
DWIDTH 18 0
BBX 18 19 0 -1
BITMAP
000000
204000
204000
247e00
7e4200
248200
24c400
252800
241000
242800
444400
34b200
090900
140000
223000
400800
000400
000000
000000
ENDCHAR
STARTCHAR 283b
ENCODING 10299
SWIDTH 1500 0
DWIDTH 18 0
BBX 18 19 0 -1
BITMAP
000000
200000
201c00
24e000
7e8000
248000
248000
24fe00
248400
248400
448400
348400
088400
148400
248400
43ff00
000000
000000
000000
ENDCHAR
STARTCHAR 283c
ENCODING 10300
SWIDTH 1500 0
DWIDTH 18 0
BBX 18 19 0 -1
BITMAP
000000
01fe00
3e2000
084000
087e00
080200
0f0200
381c00
020000
021000
7fff00
041000
041000
0fa000
007000
038c00
3c0200
000000
000000
ENDCHAR
STARTCHAR 283d
ENCODING 10301
SWIDTH 1500 0
DWIDTH 18 0
BBX 18 19 0 -1
BITMAP
000000
100000
100000
7f7e00
114200
114200
217e00
2e4200
420000
021000
7fff00
041000
041000
0fa000
007000
038c00
3c0200
000000
000000
ENDCHAR
STARTCHAR 283e
ENCODING 10302
SWIDTH 1500 0
DWIDTH 18 0
BBX 18 19 0 -1
BITMAP
000000
1ffc00
108400
108400
1ffc00
108400
108400
1ffc00
020000
021000
7fff00
041000
041000
0fa000
007000
038c00
3c0200
000000
000000
ENDCHAR
STARTCHAR 283f
ENCODING 10303
SWIDTH 1500 0
DWIDTH 18 0
BBX 18 19 0 -1
BITMAP
000000
002000
201000
241000
25ff00
7e1000
241000
24fe00
249200
249200
449200
349200
089200
149200
229600
401000
001000
000000
000000
ENDCHAR
STARTCHAR 2840
ENCODING 10304
SWIDTH 1500 0
DWIDTH 18 0
BBX 18 19 0 -1
BITMAP
000000
000000
21ff00
240200
240200
7ef200
249200
249200
249200
249200
44f200
349200
080200
140200
220200
400200
000e00
000000
000000
ENDCHAR
STARTCHAR 2841
ENCODING 10305
SWIDTH 1500 0
DWIDTH 18 0
BBX 18 19 0 -1
BITMAP
000000
000000
21ff00
242000
242000
7e2000
244000
244000
247e00
24c200
454200
344200
084200
144200
224200
407e00
004200
000000
000000
ENDCHAR
STARTCHAR 2842
ENCODING 10306
SWIDTH 1500 0
DWIDTH 18 0
BBX 18 19 0 -1
BITMAP
000000
210000
210000
210000
2bef00
7d2900
292900
292900
292900
492900
492900
692900
112900
292f00
2a2900
422000
04c000
000000
000000
ENDCHAR
STARTCHAR 2843
ENCODING 10307
SWIDTH 1500 0
DWIDTH 18 0
BBX 18 19 0 -1
BITMAP
000000
000000
20fe00
248200
248200
7e8200
248200
24fe00
248000
248000
44ff00
348100
088100
148100
228100
40ff00
008000
000000
000000
ENDCHAR
STARTCHAR 2844
ENCODING 10308
SWIDTH 1500 0
DWIDTH 18 0
BBX 18 19 0 -1
BITMAP
000000
200000
23fc00
208400
288800
7c8f00
288100
290100
29f900
4a0900
481600
682000
13fe00
282000
282000
402000
00e000
000000
000000
ENDCHAR
STARTCHAR 2845
ENCODING 10309
SWIDTH 1500 0
DWIDTH 18 0
BBX 18 19 0 -1
BITMAP
000000
001000
209000
249000
24fe00
7e9000
251000
251000
241000
25ff00
441000
342800
082800
144400
224400
408200
010100
000000
000000
ENDCHAR
STARTCHAR 2846
ENCODING 10310
SWIDTH 1500 0
DWIDTH 18 0
BBX 18 19 0 -1
BITMAP
000000
000000
20ee00
24aa00
24aa00
7eaa00
24aa00
24aa00
24aa00
25ff00
44aa00
34aa00
08aa00
14aa00
22aa00
40aa00
016600
000000
000000
ENDCHAR
STARTCHAR 2847
ENCODING 10311
SWIDTH 1500 0
DWIDTH 18 0
BBX 18 19 0 -1
BITMAP
000000
001000
201000
242800
242400
7e4200
249100
251000
241000
245400
445200
349100
089100
151000
221000
401000
003000
000000
000000
ENDCHAR
STARTCHAR 2848
ENCODING 10312
SWIDTH 1500 0
DWIDTH 18 0
BBX 18 19 0 -1
BITMAP
000000
7ffe00
000200
3ff200
000200
1fc200
104200
1fc200
001c00
000000
0ff000
006000
008000
7fff00
008000
008000
038000
000000
000000
ENDCHAR
STARTCHAR 2849
ENCODING 10313
SWIDTH 1500 0
DWIDTH 18 0
BBX 18 19 0 -1
BITMAP
000000
000000
3e3f00
220100
320200
2a0400
2a0800
220800
7f7f00
220800
320800
4a0800
4a0800
420800
7f0800
020800
0c3800
000000
000000
ENDCHAR
STARTCHAR 284a
ENCODING 10314
SWIDTH 1500 0
DWIDTH 18 0
BBX 18 19 0 -1
BITMAP
000000
010000
208000
3fff00
400100
400200
1f1000
011000
011000
1f1000
102000
3f2000
012400
014200
014e00
027200
1c0200
000000
000000
ENDCHAR
STARTCHAR 284b
ENCODING 10315
SWIDTH 1500 0
DWIDTH 18 0
BBX 18 19 0 -1
BITMAP
000000
010000
208000
3fff00
400100
444200
024000
114000
084000
044000
008000
7fff00
012000
021000
040800
080400
300300
000000
000000
ENDCHAR
STARTCHAR 284c
ENCODING 10316
SWIDTH 1500 0
DWIDTH 18 0
BBX 18 19 0 -1
BITMAP
000000
010000
208000
3fff00
400100
410200
008000
1ffc00
008000
008000
008000
0ff800
008000
008000
008000
3ffe00
000000
000000
000000
ENDCHAR
STARTCHAR 284d
ENCODING 10317
SWIDTH 1500 0
DWIDTH 18 0
BBX 18 19 0 -1
BITMAP
000000
010000
208000
3fff00
400100
408200
008000
1ffc00
008000
0ff800
008000
7fff00
014000
022000
041000
080c00
300300
000000
000000
ENDCHAR
STARTCHAR 284e
ENCODING 10318
SWIDTH 1500 0
DWIDTH 18 0
BBX 18 19 0 -1
BITMAP
000000
010000
208000
3fff00
400100
400200
1ffc00
008000
008000
008000
0ff800
008000
009000
008800
008800
3ffe00
000000
000000
000000
ENDCHAR
STARTCHAR 284f
ENCODING 10319
SWIDTH 1500 0
DWIDTH 18 0
BBX 18 19 0 -1
BITMAP
000000
010000
208000
3fff00
400100
408200
008000
3ffe00
008000
008000
008000
1ffc00
100400
100400
100400
1ffc00
100400
000000
000000
ENDCHAR
STARTCHAR 2850
ENCODING 10320
SWIDTH 1500 0
DWIDTH 18 0
BBX 18 19 0 -1
BITMAP
000000
000200
3f8200
200200
200200
2f7f00
290200
290200
292200
291200
290a00
2f0200
200200
200200
3f8200
200200
000e00
000000
000000
ENDCHAR
STARTCHAR 2851
ENCODING 10321
SWIDTH 1500 0
DWIDTH 18 0
BBX 18 19 0 -1
BITMAP
000000
008000
06b000
188c00
608300
008000
3ffe00
200200
200200
27f200
241200
241200
241200
27f200
241200
200200
200c00
000000
000000
ENDCHAR
STARTCHAR 2852
ENCODING 10322
SWIDTH 1500 0
DWIDTH 18 0
BBX 18 19 0 -1
BITMAP
000000
000000
1ffe00
100200
100200
1ffe00
100000
108000
104000
17fe00
100000
120400
110800
210800
209000
4fff00
000000
000000
000000
ENDCHAR
STARTCHAR 2853
ENCODING 10323
SWIDTH 1500 0
DWIDTH 18 0
BBX 18 19 0 -1
BITMAP
000000
000000
1ffe00
100200
100200
1ffe00
100000
104000
104000
175c00
104000
104000
175c00
204000
204100
404100
003f00
000000
000000
ENDCHAR
STARTCHAR 2854
ENCODING 10324
SWIDTH 1500 0
DWIDTH 18 0
BBX 18 19 0 -1
BITMAP
000000
000000
1ffe00
100200
100200
1ffe00
100000
104800
124800
124800
1ffe00
124800
124800
227800
220000
420000
03fe00
000000
000000
ENDCHAR
STARTCHAR 2855
ENCODING 10325
SWIDTH 1500 0
DWIDTH 18 0
BBX 18 19 0 -1
BITMAP
000000
000000
1ffe00
100200
100200
1ffe00
100000
102000
102000
13fe00
122200
122200
13fe00
222200
222200
43fe00
000000
000000
000000
ENDCHAR
STARTCHAR 2856
ENCODING 10326
SWIDTH 1500 0
DWIDTH 18 0
BBX 18 19 0 -1
BITMAP
000000
000000
10fe00
108200
548200
548200
54fe00
548000
54a000
54a000
54be00
54a000
7ca000
44a100
012100
011f00
020000
000000
000000
ENDCHAR
STARTCHAR 2857
ENCODING 10327
SWIDTH 1500 0
DWIDTH 18 0
BBX 18 19 0 -1
BITMAP
000000
000600
10f800
108800
548800
548800
548800
54fe00
548800
548800
548800
548900
7ca500
44c500
000300
00f900
000000
000000
000000
ENDCHAR
STARTCHAR 2858
ENCODING 10328
SWIDTH 1500 0
DWIDTH 18 0
BBX 18 19 0 -1
BITMAP
000000
008000
208200
208200
3ffe00
000000
070000
383e00
222200
222200
222200
222200
2e2200
322e00
042000
082000
302000
000000
000000
ENDCHAR
STARTCHAR 2859
ENCODING 10329
SWIDTH 1500 0
DWIDTH 18 0
BBX 18 19 0 -1
BITMAP
000000
007800
1f8000
008000
008000
7fff00
02a000
049800
188400
608200
000000
008000
208200
208200
208200
3ffe00
200200
000000
000000
ENDCHAR
STARTCHAR 285a
ENCODING 10330
SWIDTH 1500 0
DWIDTH 18 0
BBX 18 19 0 -1
BITMAP
000000
000000
10ff00
108000
548000
54be00
548800
548800
548800
548800
54ff00
548800
7c8800
448800
010800
010800
020800
000000
000000
ENDCHAR
STARTCHAR 285b
ENCODING 10331
SWIDTH 1500 0
DWIDTH 18 0
BBX 18 19 0 -1
BITMAP
000000
000000
11ff00
100200
540200
54f200
549200
549200
549200
549200
54f200
549200
7c0200
440200
000200
000200
000e00
000000
000000
ENDCHAR
STARTCHAR 285c
ENCODING 10332
SWIDTH 1500 0
DWIDTH 18 0
BBX 18 19 0 -1
BITMAP
000000
000000
11fe00
102200
542200
542200
544200
544200
548c00
550000
54fe00
548200
7c8200
448200
008200
00fe00
008200
000000
000000
ENDCHAR
STARTCHAR 285d
ENCODING 10333
SWIDTH 1500 0
DWIDTH 18 0
BBX 18 19 0 -1
BITMAP
000000
004000
104000
108000
54ff00
552000
552000
542000
543e00
542000
542000
542000
7c3e00
442000
002000
002000
002000
000000
000000
ENDCHAR
STARTCHAR 285e
ENCODING 10334
SWIDTH 1500 0
DWIDTH 18 0
BBX 18 19 0 -1
BITMAP
000000
000000
101c00
10e000
548000
548000
548000
54fe00
548400
548400
548400
548400
7c8400
448400
008400
03ff00
000000
000000
000000
ENDCHAR
STARTCHAR 285f
ENCODING 10335
SWIDTH 1500 0
DWIDTH 18 0
BBX 18 19 0 -1
BITMAP
000000
008000
208200
3ffe00
21c200
022000
041000
080800
17f400
600300
000000
1ff800
001000
022000
014000
008000
004000
000000
000000
ENDCHAR
STARTCHAR 2860
ENCODING 10336
SWIDTH 1500 0
DWIDTH 18 0
BBX 18 19 0 -1
BITMAP
000000
000000
7f3e00
092200
092200
092200
112200
112200
263e00
402200
3f2000
212000
212000
212100
212100
3f2100
211f00
000000
000000
ENDCHAR
STARTCHAR 2861
ENCODING 10337
SWIDTH 1500 0
DWIDTH 18 0
BBX 18 19 0 -1
BITMAP
000000
101000
101000
101000
7dff00
541000
541000
541000
54fe00
541000
543800
545400
545200
109100
111000
101000
101000
000000
000000
ENDCHAR
STARTCHAR 2862
ENCODING 10338
SWIDTH 1500 0
DWIDTH 18 0
BBX 18 19 0 -1
BITMAP
000000
084800
104400
104000
37ff00
502000
101000
108900
108700
008000
3ffe00
208200
208200
208200
208e00
008000
008000
000000
000000
ENDCHAR
STARTCHAR 2863
ENCODING 10339
SWIDTH 1500 0
DWIDTH 18 0
BBX 18 19 0 -1
BITMAP
000000
020200
040400
080800
3e3e00
080800
080800
080800
080800
7f7f00
080800
080800
080800
100800
100800
200800
400800
000000
000000
ENDCHAR
STARTCHAR 2864
ENCODING 10340
SWIDTH 1500 0
DWIDTH 18 0
BBX 18 19 0 -1
BITMAP
000000
008000
004000
3fff00
200000
200000
23f800
220800
220800
23f800
220800
220800
23f800
220800
420800
4ffe00
000000
000000
000000
ENDCHAR
STARTCHAR 2865
ENCODING 10341
SWIDTH 1500 0
DWIDTH 18 0
BBX 18 19 0 -1
BITMAP
000000
008000
004000
3fff00
200000
200000
27fc00
244400
244400
27fc00
244400
244400
27fc00
204000
404000
404000
004000
000000
000000
ENDCHAR
STARTCHAR 2866
ENCODING 10342
SWIDTH 1500 0
DWIDTH 18 0
BBX 18 19 0 -1
BITMAP
000000
008000
004000
3fff00
200000
21c000
261e00
249200
249200
249200
249200
259200
269200
249600
411000
421000
041000
000000
000000
ENDCHAR
STARTCHAR 2867
ENCODING 10343
SWIDTH 1500 0
DWIDTH 18 0
BBX 18 19 0 -1
BITMAP
000000
008000
004000
3fff00
200000
204000
204000
27fc00
244400
244400
244400
27fc00
244400
244400
444400
47fc00
000000
000000
000000
ENDCHAR
STARTCHAR 2868
ENCODING 10344
SWIDTH 1500 0
DWIDTH 18 0
BBX 18 19 0 -1
BITMAP
000000
008000
004000
3fff00
208000
208000
20fc00
210400
228800
245000
202000
205000
218c00
266300
401000
40c000
003000
000000
000000
ENDCHAR
STARTCHAR 2869
ENCODING 10345
SWIDTH 1500 0
DWIDTH 18 0
BBX 18 19 0 -1
BITMAP
000000
002000
782000
082000
0bfe00
122200
222200
7a2200
0bfe00
0a2200
0a2200
4a2200
2bfe00
100000
2c0000
43ff00
000000
000000
000000
ENDCHAR
STARTCHAR 286a
ENCODING 10346
SWIDTH 1500 0
DWIDTH 18 0
BBX 18 19 0 -1
BITMAP
000000
000000
79fe00
090200
090200
117a00
214a00
794a00
094a00
097a00
090200
490200
290e00
100000
2c0000
43ff00
000000
000000
000000
ENDCHAR
STARTCHAR 286b
ENCODING 10347
SWIDTH 1500 0
DWIDTH 18 0
BBX 18 19 0 -1
BITMAP
000000
002000
784000
09fe00
090200
110200
210200
79fe00
090200
090200
090200
49fe00
290200
100000
2c0000
43ff00
000000
000000
000000
ENDCHAR
STARTCHAR 286c
ENCODING 10348
SWIDTH 1500 0
DWIDTH 18 0
BBX 18 19 0 -1
BITMAP
000000
122400
122400
122400
122400
3f7e00
122400
122400
122400
122400
7f7f00
122400
122400
122400
224400
224400
428400
000000
000000
ENDCHAR
STARTCHAR 286d
ENCODING 10349
SWIDTH 1500 0
DWIDTH 18 0
BBX 18 19 0 -1
BITMAP
000000
008000
008000
0ff800
008000
008000
3ffe00
020800
040400
3ffa00
000200
041000
041000
7fff00
041000
081000
301000
000000
000000
ENDCHAR
STARTCHAR 286e
ENCODING 10350
SWIDTH 1500 0
DWIDTH 18 0
BBX 18 19 0 -1
BITMAP
000000
000000
7dfe00
048000
048000
3c8000
20fe00
208200
408200
7c8200
448200
04fe00
048200
048000
048000
048000
39ff00
000000
000000
ENDCHAR
STARTCHAR 286f
ENCODING 10351
SWIDTH 1500 0
DWIDTH 18 0
BBX 18 19 0 -1
BITMAP
000000
008000
788000
09ff00
090000
3a1000
209000
209e00
40f200
7b9200
489200
089400
089000
089100
088100
088100
307f00
000000
000000
ENDCHAR
STARTCHAR 2870
ENCODING 10352
SWIDTH 1500 0
DWIDTH 18 0
BBX 18 19 0 -1
BITMAP
000000
004000
784000
088000
08ff00
391000
221000
201000
401000
785400
489200
089200
091100
0a1100
081000
081000
307000
000000
000000
ENDCHAR
STARTCHAR 2871
ENCODING 10353
SWIDTH 1500 0
DWIDTH 18 0
BBX 18 19 0 -1
BITMAP
000000
000000
1ff800
000800
000800
0ff800
000800
000800
7fff00
008000
308600
0cd800
01a000
069800
188400
608200
038000
000000
000000
ENDCHAR
STARTCHAR 2872
ENCODING 10354
SWIDTH 1500 0
DWIDTH 18 0
BBX 18 19 0 -1
BITMAP
000000
080200
080200
100400
100800
221000
212200
468200
788400
000800
3f1100
212100
210200
210400
210800
3f1000
216000
000000
000000
ENDCHAR
STARTCHAR 2873
ENCODING 10355
SWIDTH 1500 0
DWIDTH 18 0
BBX 18 19 0 -1
BITMAP
000000
110200
110200
110400
3f8800
111000
190200
150200
150400
110800
7fd000
110100
110100
110200
210400
210800
413000
000000
000000
ENDCHAR
STARTCHAR 2874
ENCODING 10356
SWIDTH 1500 0
DWIDTH 18 0
BBX 18 19 0 -1
BITMAP
000000
081000
101000
201000
401000
09ff00
091100
111100
111100
211100
51ff00
111100
111100
111100
111100
11ff00
110100
000000
000000
ENDCHAR
STARTCHAR 2875
ENCODING 10357
SWIDTH 1500 0
DWIDTH 18 0
BBX 18 19 0 -1
BITMAP
000000
080000
11fe00
200200
408400
084800
083000
10cc00
130300
201000
501000
11fe00
101000
101000
101000
13ff00
100000
000000
000000
ENDCHAR
STARTCHAR 2876
ENCODING 10358
SWIDTH 1500 0
DWIDTH 18 0
BBX 18 19 0 -1
BITMAP
000000
082000
112000
212000
412000
09fe00
0a2000
122000
142000
202000
51fc00
102000
102000
102000
102000
17ff00
100000
000000
000000
ENDCHAR
STARTCHAR 2877
ENCODING 10359
SWIDTH 1500 0
DWIDTH 18 0
BBX 18 19 0 -1
BITMAP
000000
102000
101000
101000
5bff00
542000
542000
504000
108400
108800
105000
102000
104400
108200
110e00
11f100
100100
000000
000000
ENDCHAR
STARTCHAR 2878
ENCODING 10360
SWIDTH 1500 0
DWIDTH 18 0
BBX 18 19 0 -1
BITMAP
000000
100000
13ff00
110000
590000
550000
55fe00
510200
110200
110200
11fe00
110200
110000
110000
110000
13ff00
100000
000000
000000
ENDCHAR
STARTCHAR 2879
ENCODING 10361
SWIDTH 1500 0
DWIDTH 18 0
BBX 18 19 0 -1
BITMAP
000000
108400
108400
108400
588400
57ff00
548400
508400
108400
108400
10fc00
108400
108400
108400
108400
10fc00
108400
000000
000000
ENDCHAR
STARTCHAR 287a
ENCODING 10362
SWIDTH 1500 0
DWIDTH 18 0
BBX 18 19 0 -1
BITMAP
000000
101000
101000
11ff00
591100
551100
551200
511000
11fe00
110200
114200
114400
112800
121000
122800
144400
118300
000000
000000
ENDCHAR
STARTCHAR 287b
ENCODING 10363
SWIDTH 1500 0
DWIDTH 18 0
BBX 18 19 0 -1
BITMAP
000000
000000
1ffc00
008000
008000
7fff00
012000
021000
0c0c00
310300
408000
044400
240200
240900
440900
43f800
000000
000000
000000
ENDCHAR
STARTCHAR 287c
ENCODING 10364
SWIDTH 1500 0
DWIDTH 18 0
BBX 18 19 0 -1
BITMAP
000000
000000
1ffc00
108000
208000
3ffe00
012000
062100
182100
611f00
008000
044400
240200
240900
440900
43f800
000000
000000
000000
ENDCHAR
STARTCHAR 287d
ENCODING 10365
SWIDTH 1500 0
DWIDTH 18 0
BBX 18 19 0 -1
BITMAP
000000
000000
3ffc00
020800
021000
07fe00
050400
088800
107000
218c00
460300
008000
044000
244200
240900
240900
43f800
000000
000000
ENDCHAR
STARTCHAR 287e
ENCODING 10366
SWIDTH 1500 0
DWIDTH 18 0
BBX 18 19 0 -1
BITMAP
000000
006000
041000
040800
080400
110200
221000
040800
08f400
1f0400
000000
008000
044000
244200
240900
240900
43f800
000000
000000
ENDCHAR
STARTCHAR 2921
ENCODING 10529
SWIDTH 1500 0
DWIDTH 18 0
BBX 18 19 0 -1
BITMAP
000000
101000
101000
101000
58fe00
541000
541000
501000
11ff00
101000
103800
105400
109200
111100
121000
101000
101000
000000
000000
ENDCHAR
STARTCHAR 2922
ENCODING 10530
SWIDTH 1500 0
DWIDTH 18 0
BBX 18 19 0 -1
BITMAP
000000
102400
112400
112400
592400
552400
57ff00
512400
112400
112400
112400
113c00
112400
110000
110000
11ff00
100000
000000
000000
ENDCHAR
STARTCHAR 2923
ENCODING 10531
SWIDTH 1500 0
DWIDTH 18 0
BBX 18 19 0 -1
BITMAP
000000
101000
101000
101000
59ff00
541000
543000
505800
105400
109200
111100
121000
10fe00
101000
101000
101000
101000
000000
000000
ENDCHAR
STARTCHAR 2924
ENCODING 10532
SWIDTH 1500 0
DWIDTH 18 0
BBX 18 19 0 -1
BITMAP
000000
101000
101000
101000
581000
55ff00
542000
502000
104000
107e00
10c200
114200
124200
104200
104200
107e00
104200
000000
000000
ENDCHAR
STARTCHAR 2925
ENCODING 10533
SWIDTH 1500 0
DWIDTH 18 0
BBX 18 19 0 -1
BITMAP
000000
101000
101000
101000
7cfe00
101000
101000
101000
11ff00
1c1000
703800
105400
109200
111100
121000
101000
301000
000000
000000
ENDCHAR
STARTCHAR 2926
ENCODING 10534
SWIDTH 1500 0
DWIDTH 18 0
BBX 18 19 0 -1
BITMAP
000000
100000
13ff00
100200
7c0200
11f200
111200
111200
111200
1d1200
71f200
111200
100200
100200
100200
100200
300e00
000000
000000
ENDCHAR
STARTCHAR 2927
ENCODING 10535
SWIDTH 1500 0
DWIDTH 18 0
BBX 18 19 0 -1
BITMAP
000000
101000
101000
11ff00
7c2000
104400
104200
109e00
11e200
1c0000
704800
104800
104800
104900
108900
110900
320700
000000
000000
ENDCHAR
STARTCHAR 2928
ENCODING 10536
SWIDTH 1500 0
DWIDTH 18 0
BBX 18 19 0 -1
BITMAP
000000
100000
11ff00
100400
7c0800
101000
103800
105400
109200
1d1100
701000
101000
101000
101000
100000
11ff00
300000
000000
000000
ENDCHAR
STARTCHAR 2929
ENCODING 10537
SWIDTH 1500 0
DWIDTH 18 0
BBX 18 19 0 -1
BITMAP
000000
102000
102000
103c00
7c2000
102000
102000
13ff00
102000
1c3000
702800
102400
102200
102000
102000
102000
302000
000000
000000
ENDCHAR
STARTCHAR 292a
ENCODING 10538
SWIDTH 1500 0
DWIDTH 18 0
BBX 18 19 0 -1
BITMAP
000000
100000
11fe00
110200
7d0200
110200
110200
110200
110200
1dfe00
710200
100000
104800
108400
108200
110100
320000
000000
000000
ENDCHAR
STARTCHAR 292b
ENCODING 10539
SWIDTH 1500 0
DWIDTH 18 0
BBX 18 19 0 -1
BITMAP
000000
100000
13ff00
108000
7c8000
10fc00
108400
108400
10a400
1c9400
709400
110400
110400
110500
117500
138300
300000
000000
000000
ENDCHAR
STARTCHAR 292c
ENCODING 10540
SWIDTH 1500 0
DWIDTH 18 0
BBX 18 19 0 -1
BITMAP
000000
10c000
130f00
120900
7a4900
124900
124900
124900
124900
1e4900
724900
12c900
134b00
104800
108800
110800
320800
000000
000000
ENDCHAR
STARTCHAR 292d
ENCODING 10541
SWIDTH 1500 0
DWIDTH 18 0
BBX 18 19 0 -1
BITMAP
000000
100e00
11f400
112400
7d2400
112400
112400
112400
112400
1d2400
712400
112400
114200
115200
124a00
12f900
340900
000000
000000
ENDCHAR
STARTCHAR 292e
ENCODING 10542
SWIDTH 1500 0
DWIDTH 18 0
BBX 18 19 0 -1
BITMAP
000000
102000
101000
11ff00
7d0100
110100
104000
104000
104000
1c4e00
707000
104000
104000
104000
104100
104100
303f00
000000
000000
ENDCHAR
STARTCHAR 292f
ENCODING 10543
SWIDTH 1500 0
DWIDTH 18 0
BBX 18 19 0 -1
BITMAP
000000
101000
100800
100800
7dff00
110000
110800
110800
110800
1d1000
711000
111400
112200
112200
114d00
127100
320100
000000
000000
ENDCHAR
STARTCHAR 2930
ENCODING 10544
SWIDTH 1500 0
DWIDTH 18 0
BBX 18 19 0 -1
BITMAP
000000
100000
11ff00
101000
7c1000
10fe00
101000
101000
10fe00
1c1000
701000
11ff00
101000
101000
101000
101000
301000
000000
000000
ENDCHAR
STARTCHAR 2931
ENCODING 10545
SWIDTH 1500 0
DWIDTH 18 0
BBX 18 19 0 -1
BITMAP
000000
100000
11ff00
101000
7c1000
101000
11ff00
111100
111100
1d2900
714500
118300
110100
110100
110100
110100
310700
000000
000000
ENDCHAR
STARTCHAR 2932
ENCODING 10546
SWIDTH 1500 0
DWIDTH 18 0
BBX 18 19 0 -1
BITMAP
000000
110000
110000
110000
7d0f00
17e900
112900
112900
112900
1d2900
712900
112900
112900
112f00
122900
122000
34c000
000000
000000
ENDCHAR
STARTCHAR 2933
ENCODING 10547
SWIDTH 1500 0
DWIDTH 18 0
BBX 18 19 0 -1
BITMAP
000000
100000
11fc00
110400
7d0400
110400
110400
11fc00
110400
1d0400
710400
110400
11fc00
100000
100000
17ff00
300000
000000
000000
ENDCHAR
STARTCHAR 2934
ENCODING 10548
SWIDTH 1500 0
DWIDTH 18 0
BBX 18 19 0 -1
BITMAP
000000
100000
11fe00
110200
7d0200
110200
110200
110200
11fe00
1c4800
704800
104800
104800
108800
108900
110900
320700
000000
000000
ENDCHAR
STARTCHAR 2935
ENCODING 10549
SWIDTH 1500 0
DWIDTH 18 0
BBX 18 19 0 -1
BITMAP
000000
100400
110400
110400
7d0400
110400
110400
110400
110400
1d4400
712400
113400
114800
118a00
111100
122100
30c100
000000
000000
ENDCHAR
STARTCHAR 2936
ENCODING 10550
SWIDTH 1500 0
DWIDTH 18 0
BBX 18 19 0 -1
BITMAP
000000
100000
110000
110e00
7d0a00
11ea00
112a00
112a00
122a00
1d4a00
714a00
108a00
109300
114000
112000
121f00
340000
000000
000000
ENDCHAR
STARTCHAR 2937
ENCODING 10551
SWIDTH 1500 0
DWIDTH 18 0
BBX 18 19 0 -1
BITMAP
000000
100000
103c00
11c000
7d0000
110000
110000
11fe00
110400
1d0400
710400
110400
110400
110400
110400
17ff00
300000
000000
000000
ENDCHAR
STARTCHAR 2938
ENCODING 10552
SWIDTH 1500 0
DWIDTH 18 0
BBX 18 19 0 -1
BITMAP
000000
101c00
11e000
110000
7dfe00
110200
110200
11fe00
110000
1d7e00
710400
110800
111000
122100
124100
147f00
300000
000000
000000
ENDCHAR
STARTCHAR 2939
ENCODING 10553
SWIDTH 1500 0
DWIDTH 18 0
BBX 18 19 0 -1
BITMAP
000000
010000
008000
7fff00
041000
022000
01c000
063000
180c00
680b00
0ff800
080800
080800
0ff800
080800
100800
200800
000000
000000
ENDCHAR
STARTCHAR 293a
ENCODING 10554
SWIDTH 1500 0
DWIDTH 18 0
BBX 18 19 0 -1
BITMAP
000000
000400
3f0400
002400
001400
000400
000400
7fa400
121400
120400
120400
12ff00
120400
128400
230400
220400
400400
000000
000000
ENDCHAR
STARTCHAR 293b
ENCODING 10555
SWIDTH 1500 0
DWIDTH 18 0
BBX 18 19 0 -1
BITMAP
000000
0e0e00
307000
204000
204000
204000
3f7f00
244400
244400
244400
244400
244400
244400
248400
448400
450400
040400
000000
000000
ENDCHAR
STARTCHAR 293c
ENCODING 10556
SWIDTH 1500 0
DWIDTH 18 0
BBX 18 19 0 -1
BITMAP
000000
201000
101000
102800
7c2400
204200
208100
214400
3c4400
244400
244400
244400
244400
244400
248400
448400
590400
000000
000000
ENDCHAR
STARTCHAR 293d
ENCODING 10557
SWIDTH 1500 0
DWIDTH 18 0
BBX 18 19 0 -1
BITMAP
000000
001000
001000
7c1000
44fe00
441000
441000
441000
7dff00
441000
441000
442800
442400
7c4400
004200
008200
010100
000000
000000
ENDCHAR
STARTCHAR 293e
ENCODING 10558
SWIDTH 1500 0
DWIDTH 18 0
BBX 18 19 0 -1
BITMAP
000000
004000
004000
7c8000
44fe00
451000
451000
441000
7c1000
47ff00
441000
441000
441000
7c1000
001000
001000
001000
000000
000000
ENDCHAR
STARTCHAR 293f
ENCODING 10559
SWIDTH 1500 0
DWIDTH 18 0
BBX 18 19 0 -1
BITMAP
000000
000000
3ffe00
004000
008000
039800
0c8400
308200
008000
000000
1ffc00
100400
100400
1ffc00
100400
100400
1ffc00
000000
000000
ENDCHAR
STARTCHAR 2940
ENCODING 10560
SWIDTH 1500 0
DWIDTH 18 0
BBX 18 19 0 -1
BITMAP
000000
000000
1ffc00
100400
100400
1ffc00
100400
100400
1ffc00
010000
008000
7fff00
000000
041000
080800
100400
200200
000000
000000
ENDCHAR
STARTCHAR 2941
ENCODING 10561
SWIDTH 1500 0
DWIDTH 18 0
BBX 18 19 0 -1
BITMAP
000000
1ffc00
100400
1ffc00
100400
1ffc00
010000
008000
7fff00
020000
020000
03fc00
040400
040400
080400
100400
603800
000000
000000
ENDCHAR
STARTCHAR 2942
ENCODING 10562
SWIDTH 1500 0
DWIDTH 18 0
BBX 18 19 0 -1
BITMAP
000000
001000
001000
79ff00
481000
481000
49ff00
491100
791100
491100
491100
491100
491100
791100
011600
001000
001000
000000
000000
ENDCHAR
STARTCHAR 2943
ENCODING 10563
SWIDTH 1500 0
DWIDTH 18 0
BBX 18 19 0 -1
BITMAP
000000
008000
7fff00
008000
108400
1ffc00
008100
008100
007f00
000000
1ffc00
100400
100400
1ffc00
100400
100400
1ffc00
000000
000000
ENDCHAR
STARTCHAR 2944
ENCODING 10564
SWIDTH 1500 0
DWIDTH 18 0
BBX 18 19 0 -1
BITMAP
000000
004000
3c4000
248000
24fe00
251000
3d1000
241000
241000
27ff00
3c1000
241000
241000
241000
241000
441000
4c1000
000000
000000
ENDCHAR
STARTCHAR 2945
ENCODING 10565
SWIDTH 1500 0
DWIDTH 18 0
BBX 18 19 0 -1
BITMAP
000000
001800
3c0400
244400
244200
248200
3c8100
250000
24fe00
242200
3c2200
242200
242200
244200
244200
448200
4d0c00
000000
000000
ENDCHAR
STARTCHAR 2946
ENCODING 10566
SWIDTH 1500 0
DWIDTH 18 0
BBX 18 19 0 -1
BITMAP
000000
081000
081000
081000
7efe00
081200
081200
181200
1c1200
2bff00
281000
481000
482400
082200
084200
088100
090100
000000
000000
ENDCHAR
STARTCHAR 2947
ENCODING 10567
SWIDTH 1500 0
DWIDTH 18 0
BBX 18 19 0 -1
BITMAP
000000
080000
081000
081000
7e1000
081000
089000
189000
1c9e00
2a9000
289000
489000
489000
089000
089000
0bff00
080000
000000
000000
ENDCHAR
STARTCHAR 2948
ENCODING 10568
SWIDTH 1500 0
DWIDTH 18 0
BBX 18 19 0 -1
BITMAP
000000
080000
080e00
08f000
7e1000
081000
081000
181000
1dff00
2a1000
282800
482800
484400
084400
088200
090200
0a0100
000000
000000
ENDCHAR
STARTCHAR 2949
ENCODING 10569
SWIDTH 1500 0
DWIDTH 18 0
BBX 18 19 0 -1
BITMAP
000000
080000
08fe00
088200
7e8200
088200
08fe00
188200
1c8200
2a8200
28fe00
488200
488200
088200
090200
090200
0a0e00
000000
000000
ENDCHAR
STARTCHAR 294a
ENCODING 10570
SWIDTH 1500 0
DWIDTH 18 0
BBX 18 19 0 -1
BITMAP
000000
100000
106f00
11c900
7d0900
110900
110900
310900
390900
550900
510900
112900
114900
118e00
100800
100800
100800
000000
000000
ENDCHAR
STARTCHAR 294b
ENCODING 10571
SWIDTH 1500 0
DWIDTH 18 0
BBX 18 19 0 -1
BITMAP
000000
082000
082000
084000
7e4400
088200
088100
190700
1df900
2a4900
284800
484800
488800
088800
090900
090900
0a0700
000000
000000
ENDCHAR
STARTCHAR 294c
ENCODING 10572
SWIDTH 1500 0
DWIDTH 18 0
BBX 18 19 0 -1
BITMAP
000000
008000
008000
7fff00
008000
3ffe00
208200
21c600
06b000
188c00
608300
030000
00c000
002000
030000
00c000
002000
000000
000000
ENDCHAR
STARTCHAR 294d
ENCODING 10573
SWIDTH 1500 0
DWIDTH 18 0
BBX 18 19 0 -1
BITMAP
000000
081000
081000
081e00
7ef000
081000
081000
181000
1cfe00
2a1000
281000
481000
49ff00
081000
081000
081000
081000
000000
000000
ENDCHAR
STARTCHAR 294e
ENCODING 10574
SWIDTH 1500 0
DWIDTH 18 0
BBX 18 19 0 -1
BITMAP
000000
100000
13ff00
110000
7d0200
112200
112200
311400
391400
550800
511400
112200
114200
110000
110000
10ff00
100000
000000
000000
ENDCHAR
STARTCHAR 294f
ENCODING 10575
SWIDTH 1500 0
DWIDTH 18 0
BBX 18 19 0 -1
BITMAP
000000
100000
10fc00
108400
7c8400
108400
13ff00
308400
388400
548400
53ff00
108400
108400
108400
108400
108400
109c00
000000
000000
ENDCHAR
STARTCHAR 2950
ENCODING 10576
SWIDTH 1500 0
DWIDTH 18 0
BBX 18 19 0 -1
BITMAP
000000
088200
088200
088200
7e8200
08fe00
088000
188000
1c8000
2afe00
288200
488200
488200
088200
090200
090200
0a0200
000000
000000
ENDCHAR
STARTCHAR 2951
ENCODING 10577
SWIDTH 1500 0
DWIDTH 18 0
BBX 18 19 0 -1
BITMAP
000000
080800
080800
080f00
7e7800
084800
084800
188800
1cff00
2a0900
281900
482900
484900
088e00
090800
080800
080800
000000
000000
ENDCHAR
STARTCHAR 2952
ENCODING 10578
SWIDTH 1500 0
DWIDTH 18 0
BBX 18 19 0 -1
BITMAP
000000
006000
041000
040800
080400
110200
221000
040800
08f400
1f0400
008000
008000
7fff00
049000
088800
108400
008000
000000
000000
ENDCHAR
STARTCHAR 2953
ENCODING 10579
SWIDTH 1500 0
DWIDTH 18 0
BBX 18 19 0 -1
BITMAP
000000
082000
082000
143f00
124900
214900
404900
3e8a00
000800
000800
3f1400
011400
021400
022200
042200
084200
008100
000000
000000
ENDCHAR
STARTCHAR 2954
ENCODING 10580
SWIDTH 1500 0
DWIDTH 18 0
BBX 18 19 0 -1
BITMAP
000000
002000
7f2000
203f00
204900
224900
324900
2a8a00
240800
240800
2a1400
291400
301400
202200
202200
1f4200
008100
000000
000000
ENDCHAR
STARTCHAR 2955
ENCODING 10581
SWIDTH 1500 0
DWIDTH 18 0
BBX 18 19 0 -1
BITMAP
000000
008000
008000
08fc00
088000
088000
088000
7fff00
008000
008000
088000
08fc00
088000
088000
148000
128000
21ff00
000000
000000
ENDCHAR
STARTCHAR 2956
ENCODING 10582
SWIDTH 1500 0
DWIDTH 18 0
BBX 18 19 0 -1
BITMAP
000000
008000
088000
08fc00
088000
088000
088000
7fff00
008000
049800
088400
108200
208500
409900
006000
038000
3c0000
000000
000000
ENDCHAR
STARTCHAR 2957
ENCODING 10583
SWIDTH 1500 0
DWIDTH 18 0
BBX 18 19 0 -1
BITMAP
000000
000000
7f7e00
104200
104200
1e4200
127e00
124200
124200
2a4200
267e00
424200
044200
048200
088200
110200
220e00
000000
000000
ENDCHAR
STARTCHAR 2958
ENCODING 10584
SWIDTH 1500 0
DWIDTH 18 0
BBX 18 19 0 -1
BITMAP
000000
000000
7f7c00
104400
104400
1e4400
128300
130000
12fe00
2a0200
264400
424400
042800
041000
082800
104400
218300
000000
000000
ENDCHAR
STARTCHAR 2959
ENCODING 10585
SWIDTH 1500 0
DWIDTH 18 0
BBX 18 19 0 -1
BITMAP
000000
000000
7f3c00
202400
202400
222400
324300
2a8000
247e00
240200
2a2200
292400
301400
200800
201400
1f2200
004100
000000
000000
ENDCHAR
STARTCHAR 295a
ENCODING 10586
SWIDTH 1500 0
DWIDTH 18 0
BBX 18 19 0 -1
BITMAP
000000
000800
3e0800
224800
324b00
2a4d00
2a7900
22c900
7f4900
224a00
324800
4a4800
4a4800
424100
7f4100
023f00
0c0000
000000
000000
ENDCHAR
STARTCHAR 295b
ENCODING 10587
SWIDTH 1500 0
DWIDTH 18 0
BBX 18 19 0 -1
BITMAP
000000
000000
0c0e00
707000
101000
101000
101000
7cfe00
101000
101000
101000
7eff00
101000
101000
111100
111100
0f0f00
000000
000000
ENDCHAR
STARTCHAR 295c
ENCODING 10588
SWIDTH 1500 0
DWIDTH 18 0
BBX 18 19 0 -1
BITMAP
000000
080000
0ffe00
100000
1ff800
200000
5ffc00
020400
020400
3fe400
222400
222400
3fe400
020500
020500
020300
020100
000000
000000
ENDCHAR
STARTCHAR 295d
ENCODING 10589
SWIDTH 1500 0
DWIDTH 18 0
BBX 18 19 0 -1
BITMAP
000000
080000
0ffe00
100000
1ff800
200000
5ffc00
000400
000400
1fe400
102400
102400
1fe400
102500
102500
1fe300
100100
000000
000000
ENDCHAR
STARTCHAR 295e
ENCODING 10590
SWIDTH 1500 0
DWIDTH 18 0
BBX 18 19 0 -1
BITMAP
000000
004000
204000
104000
07ff00
408000
20a000
012000
13fe00
162200
1a2200
222200
222200
222200
422600
402000
002000
000000
000000
ENDCHAR
STARTCHAR 295f
ENCODING 10591
SWIDTH 1500 0
DWIDTH 18 0
BBX 18 19 0 -1
BITMAP
000000
000000
23fe00
122200
022200
422200
23fe00
022200
122200
122200
13fe00
222200
202000
202000
402000
402000
002000
000000
000000
ENDCHAR
STARTCHAR 2960
ENCODING 10592
SWIDTH 1500 0
DWIDTH 18 0
BBX 18 19 0 -1
BITMAP
000000
002000
202000
102000
03fe00
422200
222200
022200
13fe00
102000
122000
214000
20c000
20a000
411000
420c00
0c0300
000000
000000
ENDCHAR
STARTCHAR 2961
ENCODING 10593
SWIDTH 1500 0
DWIDTH 18 0
BBX 18 19 0 -1
BITMAP
000000
000000
203c00
13c000
020000
420000
220000
03fe00
120800
120800
120800
220800
220800
220800
420800
4fff00
000000
000000
000000
ENDCHAR
STARTCHAR 2962
ENCODING 10594
SWIDTH 1500 0
DWIDTH 18 0
BBX 18 19 0 -1
BITMAP
000000
004000
204000
108800
010400
421e00
23e200
008800
108800
108800
17ff00
208800
208800
210800
410800
420800
040800
000000
000000
ENDCHAR
STARTCHAR 2963
ENCODING 10595
SWIDTH 1500 0
DWIDTH 18 0
BBX 18 19 0 -1
BITMAP
000000
000000
1ffc00
008000
010000
7fff00
022000
041000
188c00
608300
008800
3ed000
04a000
089000
108c00
608300
038000
000000
000000
ENDCHAR
STARTCHAR 2964
ENCODING 10596
SWIDTH 1500 0
DWIDTH 18 0
BBX 18 19 0 -1
BITMAP
000000
041000
041000
3ffe00
041000
041000
7fff00
081000
101000
209000
008400
3ec800
04b000
089000
108c00
608300
038000
000000
000000
ENDCHAR
STARTCHAR 2965
ENCODING 10597
SWIDTH 1500 0
DWIDTH 18 0
BBX 18 19 0 -1
BITMAP
000000
000000
23fe00
102000
002000
402000
202000
022000
123e00
122000
122000
222000
222000
222000
422000
4fff00
000000
000000
000000
ENDCHAR
STARTCHAR 2966
ENCODING 10598
SWIDTH 1500 0
DWIDTH 18 0
BBX 18 19 0 -1
BITMAP
000000
002000
202000
102000
07ff00
405000
208800
010400
124200
144100
108000
208000
210400
210200
423d00
47c100
000000
000000
000000
ENDCHAR
STARTCHAR 2967
ENCODING 10599
SWIDTH 1500 0
DWIDTH 18 0
BBX 18 19 0 -1
BITMAP
000000
000000
21fe00
110200
010200
410200
21fe00
010200
110200
110200
11fe00
210200
210200
210200
41fe00
410200
000000
000000
000000
ENDCHAR
STARTCHAR 2968
ENCODING 10600
SWIDTH 1500 0
DWIDTH 18 0
BBX 18 19 0 -1
BITMAP
000000
000000
200000
17fe00
049200
449200
249200
049200
149200
149200
149200
249200
249200
249200
4fff00
400000
000000
000000
000000
ENDCHAR
STARTCHAR 2969
ENCODING 10601
SWIDTH 1500 0
DWIDTH 18 0
BBX 18 19 0 -1
BITMAP
000000
000000
200400
120400
020400
420400
220400
020400
128400
124400
122400
226800
228800
231400
422200
444100
008100
000000
000000
ENDCHAR
STARTCHAR 296a
ENCODING 10602
SWIDTH 1500 0
DWIDTH 18 0
BBX 18 19 0 -1
BITMAP
000000
001e00
23e000
102000
002200
422200
212400
012400
10a800
102000
17ff00
202000
202000
202000
402000
402000
00c000
000000
000000
ENDCHAR
STARTCHAR 296b
ENCODING 10603
SWIDTH 1500 0
DWIDTH 18 0
BBX 18 19 0 -1
BITMAP
000000
010000
210000
13ff00
020000
442000
212000
013e00
11e200
172200
112200
212400
212400
212100
410100
410100
00ff00
000000
000000
ENDCHAR
STARTCHAR 296c
ENCODING 10604
SWIDTH 1500 0
DWIDTH 18 0
BBX 18 19 0 -1
BITMAP
000000
008000
208000
110000
01ff00
422000
242000
002000
103e00
102000
102000
202000
203e00
202000
402000
402000
002000
000000
000000
ENDCHAR
STARTCHAR 296d
ENCODING 10605
SWIDTH 1500 0
DWIDTH 18 0
BBX 18 19 0 -1
BITMAP
000000
008000
208000
10fe00
010200
410200
228400
004800
103000
104800
108400
216200
261900
200000
40c000
403000
000c00
000000
000000
ENDCHAR
STARTCHAR 296e
ENCODING 10606
SWIDTH 1500 0
DWIDTH 18 0
BBX 18 19 0 -1
BITMAP
000000
100000
11fc00
100400
108800
145000
582000
501000
53ff00
102100
102200
102400
282000
242000
202000
402000
00e000
000000
000000
ENDCHAR
STARTCHAR 296f
ENCODING 10607
SWIDTH 1500 0
DWIDTH 18 0
BBX 18 19 0 -1
BITMAP
000000
100000
100000
13ff00
101000
141000
582000
502000
504800
10a400
112200
122100
282000
242000
202000
402000
002000
000000
000000
ENDCHAR
STARTCHAR 2970
ENCODING 10608
SWIDTH 1500 0
DWIDTH 18 0
BBX 18 19 0 -1
BITMAP
000000
100000
10f800
108800
108800
148800
590f00
520000
51fc00
100400
108400
108800
285000
242000
205000
408c00
030300
000000
000000
ENDCHAR
STARTCHAR 2971
ENCODING 10609
SWIDTH 1500 0
DWIDTH 18 0
BBX 18 19 0 -1
BITMAP
000000
101000
101000
101e00
10f000
141000
581000
501000
50fe00
101000
101000
101000
29ff00
241000
241000
401000
001000
000000
000000
ENDCHAR
STARTCHAR 2972
ENCODING 10610
SWIDTH 1500 0
DWIDTH 18 0
BBX 18 19 0 -1
BITMAP
000000
101000
101000
101000
111100
151100
589200
509200
501000
102800
102800
102800
284400
244400
248200
410200
020100
000000
000000
ENDCHAR
STARTCHAR 2973
ENCODING 10611
SWIDTH 1500 0
DWIDTH 18 0
BBX 18 19 0 -1
BITMAP
000000
000000
3ffe00
004000
008000
019000
068800
388400
008400
000000
108200
088400
048800
014000
023000
0c0c00
300300
000000
000000
ENDCHAR
STARTCHAR 2974
ENCODING 10612
SWIDTH 1500 0
DWIDTH 18 0
BBX 18 19 0 -1
BITMAP
000000
104000
104000
104000
107f00
148400
588400
510400
504400
104400
102800
102800
281000
242800
244400
408200
010100
000000
000000
ENDCHAR
STARTCHAR 2975
ENCODING 10613
SWIDTH 1500 0
DWIDTH 18 0
BBX 18 19 0 -1
BITMAP
000000
100f00
10f000
108000
108000
14ff00
588100
508100
508100
10ff00
108100
108000
288000
248000
250000
410000
020000
000000
000000
ENDCHAR
STARTCHAR 2976
ENCODING 10614
SWIDTH 1500 0
DWIDTH 18 0
BBX 18 19 0 -1
BITMAP
000000
100000
10ff00
108000
108000
148000
58fe00
508200
50a200
10a200
10a200
109400
289400
250800
251400
422200
004100
000000
000000
ENDCHAR
STARTCHAR 2977
ENCODING 10615
SWIDTH 1500 0
DWIDTH 18 0
BBX 18 19 0 -1
BITMAP
000000
000000
1ffc00
108000
108000
208000
3ffe00
014000
014000
024100
044100
184100
603f00
000000
122200
111100
211100
000000
000000
ENDCHAR
STARTCHAR 2978
ENCODING 10616
SWIDTH 1500 0
DWIDTH 18 0
BBX 18 19 0 -1
BITMAP
000000
000000
7fff00
004000
008000
01a000
029000
0c8800
308400
008400
008000
008000
008000
000000
122200
111100
211100
000000
000000
ENDCHAR
STARTCHAR 2979
ENCODING 10617
SWIDTH 1500 0
DWIDTH 18 0
BBX 18 19 0 -1
BITMAP
000000
102000
102000
105000
108800
150400
5a0200
548900
508800
108800
108800
108800
288800
250800
250800
420800
040800
000000
000000
ENDCHAR
STARTCHAR 297a
ENCODING 10618
SWIDTH 1500 0
DWIDTH 18 0
BBX 18 19 0 -1
BITMAP
000000
001e00
01e000
3e0000
010200
208400
108800
080000
000000
1ffc00
100400
100400
1ffc00
100400
100400
1ffc00
100400
000000
000000
ENDCHAR
STARTCHAR 297b
ENCODING 10619
SWIDTH 1500 0
DWIDTH 18 0
BBX 18 19 0 -1
BITMAP
000000
000000
424200
343400
080800
161600
616100
000000
222200
222200
222200
241400
141400
080800
141400
122200
214100
000000
000000
ENDCHAR
STARTCHAR 297c
ENCODING 10620
SWIDTH 1500 0
DWIDTH 18 0
BBX 18 19 0 -1
BITMAP
000000
241000
241000
241000
241000
25ff00
3c1000
243000
045800
3c5400
249200
249200
251100
241000
241000
441000
441000
000000
000000
ENDCHAR
STARTCHAR 297d
ENCODING 10621
SWIDTH 1500 0
DWIDTH 18 0
BBX 18 19 0 -1
BITMAP
000000
244000
244000
247f00
249100
3c9100
209100
211200
201000
3c1000
242800
242800
242400
244400
244200
448100
450000
000000
000000
ENDCHAR
STARTCHAR 297e
ENCODING 10622
SWIDTH 1500 0
DWIDTH 18 0
BBX 18 19 0 -1
BITMAP
000000
222100
222100
222100
222100
3e3f00
202000
202000
202000
3e3f00
222100
222100
222100
222100
424100
424100
028000
000000
000000
ENDCHAR
STARTCHAR 2a21
ENCODING 10785
SWIDTH 1500 0
DWIDTH 18 0
BBX 18 19 0 -1
BITMAP
000000
082000
281000
281000
3eff00
482000
482000
082000
083e00
0e2200
782200
084200
084200
088200
088200
090400
0a1800
000000
000000
ENDCHAR
STARTCHAR 2a22
ENCODING 10786
SWIDTH 1500 0
DWIDTH 18 0
BBX 18 19 0 -1
BITMAP
000000
080000
280e00
287000
3e1000
481000
481000
08fe00
081000
0e1000
781000
09ff00
081000
081000
081100
081100
080f00
000000
000000
ENDCHAR
STARTCHAR 2a23
ENCODING 10787
SWIDTH 1500 0
DWIDTH 18 0
BBX 18 19 0 -1
BITMAP
000000
082000
281000
281000
3eff00
480000
480000
087c00
084400
0e4400
784400
084400
084400
084400
084500
088500
090300
000000
000000
ENDCHAR
STARTCHAR 2a24
ENCODING 10788
SWIDTH 1500 0
DWIDTH 18 0
BBX 18 19 0 -1
BITMAP
000000
002000
441000
281000
11ff00
281000
481000
081000
081000
181000
28fe00
481000
081000
081000
081000
081000
31ff00
000000
000000
ENDCHAR
STARTCHAR 2a25
ENCODING 10789
SWIDTH 1500 0
DWIDTH 18 0
BBX 18 19 0 -1
BITMAP
000000
000000
45fe00
282200
102200
284200
484200
088200
090c00
1a0000
29fe00
490200
090200
090200
090200
09fe00
710200
000000
000000
ENDCHAR
STARTCHAR 2a26
ENCODING 10790
SWIDTH 1500 0
DWIDTH 18 0
BBX 18 19 0 -1
BITMAP
000000
008000
448000
288000
11fe00
290200
4a0200
09f200
091200
191200
29f200
490200
090c00
090000
090100
090100
30ff00
000000
000000
ENDCHAR
STARTCHAR 2a27
ENCODING 10791
SWIDTH 1500 0
DWIDTH 18 0
BBX 18 19 0 -1
BITMAP
000000
001000
441000
29ff00
111100
291100
491200
091000
09fe00
190200
294200
494400
092800
091000
0a2800
0a4400
348300
000000
000000
ENDCHAR
STARTCHAR 2a28
ENCODING 10792
SWIDTH 1500 0
DWIDTH 18 0
BBX 18 19 0 -1
BITMAP
000000
002000
444000
288000
11fe00
290200
490200
090200
090200
19fe00
290200
490200
090200
090200
090200
09fe00
710200
000000
000000
ENDCHAR
STARTCHAR 2a29
ENCODING 10793
SWIDTH 1500 0
DWIDTH 18 0
BBX 18 19 0 -1
BITMAP
000000
001000
441000
281000
10fe00
281000
481000
081000
081000
19ff00
282000
482000
084400
084200
089e00
09e100
300100
000000
000000
ENDCHAR
STARTCHAR 2a2a
ENCODING 10794
SWIDTH 1500 0
DWIDTH 18 0
BBX 18 19 0 -1
BITMAP
000000
008000
448000
29ff00
110000
2a1000
489000
089e00
08f200
1b9200
289400
489400
089000
089100
088100
088100
307f00
000000
000000
ENDCHAR
STARTCHAR 2a2b
ENCODING 10795
SWIDTH 1500 0
DWIDTH 18 0
BBX 18 19 0 -1
BITMAP
000000
002000
002000
7c4000
104000
108400
108200
7d0d00
11f100
104900
104800
104800
1c8800
708800
010900
020900
040700
000000
000000
ENDCHAR
STARTCHAR 2a2c
ENCODING 10796
SWIDTH 1500 0
DWIDTH 18 0
BBX 18 19 0 -1
BITMAP
000000
004000
002000
7e2000
080000
09ff00
082000
7e2000
083800
082400
082200
082200
0f2000
702000
002000
002000
002000
000000
000000
ENDCHAR
STARTCHAR 2a2d
ENCODING 10797
SWIDTH 1500 0
DWIDTH 18 0
BBX 18 19 0 -1
BITMAP
000000
001000
001000
7c1000
10fe00
101000
101000
7c1000
11ff00
101000
101000
102800
1e2800
704400
004400
008200
010100
000000
000000
ENDCHAR
STARTCHAR 2a2e
ENCODING 10798
SWIDTH 1500 0
DWIDTH 18 0
BBX 18 19 0 -1
BITMAP
000000
000000
01ff00
7c1000
101000
10fe00
109200
7c9200
109200
109200
109200
109200
1e9200
709200
009600
001000
001000
000000
000000
ENDCHAR
STARTCHAR 2a2f
ENCODING 10799
SWIDTH 1500 0
DWIDTH 18 0
BBX 18 19 0 -1
BITMAP
000000
000000
000000
7dff00
100800
100800
101000
7c1000
102400
105200
109100
111100
1c1000
701000
001000
001000
001000
000000
000000
ENDCHAR
STARTCHAR 2a30
ENCODING 10800
SWIDTH 1500 0
DWIDTH 18 0
BBX 18 19 0 -1
BITMAP
000000
001000
001000
7c1000
101f00
101000
101000
7dfe00
108200
108200
104400
102800
1c1000
702800
004400
008200
030100
000000
000000
ENDCHAR
STARTCHAR 2a31
ENCODING 10801
SWIDTH 1500 0
DWIDTH 18 0
BBX 18 19 0 -1
BITMAP
000000
004000
004000
7c7f00
109100
109100
111200
7c1000
101000
101000
102800
102800
1c4400
704400
008200
010200
060100
000000
000000
ENDCHAR
STARTCHAR 2a32
ENCODING 10802
SWIDTH 1500 0
DWIDTH 18 0
BBX 18 19 0 -1
BITMAP
000000
000800
001000
7c2800
104400
108200
110100
7c7c00
100000
100000
10ff00
100100
1e0200
700200
000400
000800
001000
000000
000000
ENDCHAR
STARTCHAR 2a33
ENCODING 10803
SWIDTH 1500 0
DWIDTH 18 0
BBX 18 19 0 -1
BITMAP
000000
003000
000800
7c0800
104400
104400
108200
7d0100
102000
102000
104000
104000
1e8400
708200
011d00
01e100
000000
000000
000000
ENDCHAR
STARTCHAR 2a34
ENCODING 10804
SWIDTH 1500 0
DWIDTH 18 0
BBX 18 19 0 -1
BITMAP
000000
100000
13ff00
108000
7c8000
54fc00
548400
548400
54a400
549400
549400
550400
110400
110500
117500
138300
100100
000000
000000
ENDCHAR
STARTCHAR 2a35
ENCODING 10805
SWIDTH 1500 0
DWIDTH 18 0
BBX 18 19 0 -1
BITMAP
000000
004000
7c4000
547c00
544400
548400
548400
550800
7c0800
541000
541000
542800
542800
544400
7c8400
010200
020100
000000
000000
ENDCHAR
STARTCHAR 2a36
ENCODING 10806
SWIDTH 1500 0
DWIDTH 18 0
BBX 18 19 0 -1
BITMAP
000000
000200
020200
210400
108800
089000
080000
3ffe00
208200
208200
208200
3ffe00
208200
208200
208200
3ffe00
200200
000000
000000
ENDCHAR
STARTCHAR 2a37
ENCODING 10807
SWIDTH 1500 0
DWIDTH 18 0
BBX 18 19 0 -1
BITMAP
000000
000000
3ffe00
000000
000000
0ff800
488900
488900
488900
4ff900
488900
488900
488900
4ff900
400100
7fff00
000100
000000
000000
ENDCHAR
STARTCHAR 2a38
ENCODING 10808
SWIDTH 1500 0
DWIDTH 18 0
BBX 18 19 0 -1
BITMAP
000000
008000
008000
1ffc00
108400
108400
1ffc00
108400
108400
1ffc00
000000
000000
7fff00
041000
041000
081000
301000
000000
000000
ENDCHAR
STARTCHAR 2a39
ENCODING 10809
SWIDTH 1500 0
DWIDTH 18 0
BBX 18 19 0 -1
BITMAP
000000
000000
1ffc00
108400
108400
1ffc00
108400
108400
1ffc00
000000
041000
041000
7fff00
041000
081000
101000
201000
000000
000000
ENDCHAR
STARTCHAR 2a3a
ENCODING 10810
SWIDTH 1500 0
DWIDTH 18 0
BBX 18 19 0 -1
BITMAP
000000
008000
004000
1fff00
100000
500800
300800
100800
17ff00
300800
510800
108800
108800
100800
200800
200800
403800
000000
000000
ENDCHAR
STARTCHAR 2a3b
ENCODING 10811
SWIDTH 1500 0
DWIDTH 18 0
BBX 18 19 0 -1
BITMAP
000000
008000
004000
1fff00
100000
500000
33fc00
100000
100000
37fe00
508000
110000
11fe00
100200
200200
200200
401c00
000000
000000
ENDCHAR
STARTCHAR 2a3c
ENCODING 10812
SWIDTH 1500 0
DWIDTH 18 0
BBX 18 19 0 -1
BITMAP
000000
004000
002000
1fff00
100000
502000
302000
102000
13fe00
302000
502000
102000
102000
102000
202000
27ff00
400000
000000
000000
ENDCHAR
STARTCHAR 2a3d
ENCODING 10813
SWIDTH 1500 0
DWIDTH 18 0
BBX 18 19 0 -1
BITMAP
000000
060000
38fe00
080200
080400
080800
7e1000
081000
19ff00
1c1000
2a1000
281000
481000
481000
081000
081000
087000
000000
000000
ENDCHAR
STARTCHAR 2a3e
ENCODING 10814
SWIDTH 1500 0
DWIDTH 18 0
BBX 18 19 0 -1
BITMAP
000000
007800
1f8000
008000
008000
7fff00
02a000
049800
188400
608200
000000
07f000
041000
041000
081100
101100
200f00
000000
000000
ENDCHAR
STARTCHAR 2a3f
ENCODING 10815
SWIDTH 1500 0
DWIDTH 18 0
BBX 18 19 0 -1
BITMAP
000000
0e0000
38fe00
081000
081000
7f1000
081000
081000
19ff00
2c1000
2a1000
481000
481000
081000
081000
081000
081000
000000
000000
ENDCHAR
STARTCHAR 2a40
ENCODING 10816
SWIDTH 1500 0
DWIDTH 18 0
BBX 18 19 0 -1
BITMAP
000000
060000
38fe00
080200
080200
080200
7e0200
080200
18fe00
2c8200
2a8000
4a8000
488000
088000
088100
088100
087f00
000000
000000
ENDCHAR
STARTCHAR 2a41
ENCODING 10817
SWIDTH 1500 0
DWIDTH 18 0
BBX 18 19 0 -1
BITMAP
000000
060800
380800
084800
084800
084f00
7e7900
09c900
184900
2c4a00
2a4800
4a4800
484800
084100
084100
083f00
080000
000000
000000
ENDCHAR
STARTCHAR 2a42
ENCODING 10818
SWIDTH 1500 0
DWIDTH 18 0
BBX 18 19 0 -1
BITMAP
000000
062000
382000
082000
08fc00
082400
7e2400
082400
182400
2ca400
2a6400
4a2400
485400
085500
088500
088500
090300
000000
000000
ENDCHAR
STARTCHAR 2a43
ENCODING 10819
SWIDTH 1500 0
DWIDTH 18 0
BBX 18 19 0 -1
BITMAP
000000
060e00
38f000
081000
081000
081000
7e1000
081000
19ff00
2c1000
2a1000
4a1000
481000
081000
081000
081000
081000
000000
000000
ENDCHAR
STARTCHAR 2a44
ENCODING 10820
SWIDTH 1500 0
DWIDTH 18 0
BBX 18 19 0 -1
BITMAP
000000
007800
1f8000
008000
7fff00
02a000
049800
188400
608200
007800
0f8000
008000
008000
7fff00
008000
008000
008000
000000
000000
ENDCHAR
STARTCHAR 2a45
ENCODING 10821
SWIDTH 1500 0
DWIDTH 18 0
BBX 18 19 0 -1
BITMAP
000000
010000
008000
7fff00
442100
442100
082000
109e00
208000
008000
7fff00
014000
022000
041000
080800
100400
200300
000000
000000
ENDCHAR
STARTCHAR 2a46
ENCODING 10822
SWIDTH 1500 0
DWIDTH 18 0
BBX 18 19 0 -1
BITMAP
000000
100000
08fe00
088200
7e8200
008200
248200
248200
24fe00
248200
248000
088000
088000
0e8000
708100
008100
007f00
000000
000000
ENDCHAR
STARTCHAR 2a47
ENCODING 10823
SWIDTH 1500 0
DWIDTH 18 0
BBX 18 19 0 -1
BITMAP
000000
100e00
08f000
081000
7e1000
001000
241000
241000
25ff00
241000
241000
081000
081000
0e1000
701000
001000
001000
000000
000000
ENDCHAR
STARTCHAR 2a48
ENCODING 10824
SWIDTH 1500 0
DWIDTH 18 0
BBX 18 19 0 -1
BITMAP
000000
100000
10f800
548800
388800
108800
7c8800
108800
308800
388800
548800
508800
108800
110800
110900
120900
140700
000000
000000
ENDCHAR
STARTCHAR 2a49
ENCODING 10825
SWIDTH 1500 0
DWIDTH 18 0
BBX 18 19 0 -1
BITMAP
000000
008000
004000
012000
021000
040c00
188300
608000
088800
049000
008000
3ffe00
008000
049800
188400
608200
008000
000000
000000
ENDCHAR
STARTCHAR 2a4a
ENCODING 10826
SWIDTH 1500 0
DWIDTH 18 0
BBX 18 19 0 -1
BITMAP
000000
000000
09fe00
102200
202200
442200
282200
102200
142200
244200
4a4200
704200
048200
528200
490200
420400
041800
000000
000000
ENDCHAR
STARTCHAR 2a4b
ENCODING 10827
SWIDTH 1500 0
DWIDTH 18 0
BBX 18 19 0 -1
BITMAP
000000
002000
082000
102000
202000
45fe00
282200
102200
142200
242200
4a4200
704200
044200
528200
488200
410400
021800
000000
000000
ENDCHAR
STARTCHAR 2a4c
ENCODING 10828
SWIDTH 1500 0
DWIDTH 18 0
BBX 18 19 0 -1
BITMAP
000000
000000
3ffe00
221200
212200
204200
2ffe00
200200
244200
244200
24a200
249200
251200
240200
23fa00
200200
200e00
000000
000000
ENDCHAR
STARTCHAR 2a4d
ENCODING 10829
SWIDTH 1500 0
DWIDTH 18 0
BBX 18 19 0 -1
BITMAP
000000
000000
3ffe00
222200
222200
3ffe00
000000
000000
1ffc00
008000
008000
7fff00
008000
008000
008000
008000
008000
000000
000000
ENDCHAR
STARTCHAR 2a4e
ENCODING 10830
SWIDTH 1500 0
DWIDTH 18 0
BBX 18 19 0 -1
BITMAP
000000
200000
3fff00
422100
442200
082000
301e00
008000
008000
008000
7fff00
008000
049800
088400
108200
608100
008000
000000
000000
ENDCHAR
STARTCHAR 2a4f
ENCODING 10831
SWIDTH 1500 0
DWIDTH 18 0
BBX 18 19 0 -1
BITMAP
000000
001000
3c1000
241e00
24f000
241000
341000
2c1000
24fe00
241000
2c1000
341000
25ff00
241000
241000
441000
4c1000
000000
000000
ENDCHAR
STARTCHAR 2a50
ENCODING 10832
SWIDTH 1500 0
DWIDTH 18 0
BBX 18 19 0 -1
BITMAP
000000
000000
3c7e00
240000
240000
240000
340000
2cff00
242400
242400
2c2400
342400
242500
244500
244500
448700
4d0000
000000
000000
ENDCHAR
STARTCHAR 2a51
ENCODING 10833
SWIDTH 1500 0
DWIDTH 18 0
BBX 18 19 0 -1
BITMAP
000000
001000
3c1000
241000
24fe00
241200
341200
2c1200
241200
25ff00
2c1000
341000
242400
242200
244100
448100
4d0000
000000
000000
ENDCHAR
STARTCHAR 2a52
ENCODING 10834
SWIDTH 1500 0
DWIDTH 18 0
BBX 18 19 0 -1
BITMAP
000000
001000
3c1400
241200
241200
241000
35ff00
2c1000
241000
242800
2c2800
342400
244400
244200
248200
448100
4d0000
000000
000000
ENDCHAR
STARTCHAR 2a53
ENCODING 10835
SWIDTH 1500 0
DWIDTH 18 0
BBX 18 19 0 -1
BITMAP
000000
000000
3dfc00
248400
248400
248800
349000
2cfe00
24a200
24a200
2ca200
34a200
251400
250800
261400
442300
4cc000
000000
000000
ENDCHAR
STARTCHAR 2a54
ENCODING 10836
SWIDTH 1500 0
DWIDTH 18 0
BBX 18 19 0 -1
BITMAP
000000
008000
3c8000
248000
24ff00
24a900
352900
2d2900
262900
244900
2c4900
349100
251100
242100
244100
440200
4c0c00
000000
000000
ENDCHAR
STARTCHAR 2a55
ENCODING 10837
SWIDTH 1500 0
DWIDTH 18 0
BBX 18 19 0 -1
BITMAP
000000
004200
3c4200
244200
244200
247e00
344000
2c4000
244000
247e00
2c4200
344200
244200
244200
248200
448200
4d0200
000000
000000
ENDCHAR
STARTCHAR 2a56
ENCODING 10838
SWIDTH 1500 0
DWIDTH 18 0
BBX 18 19 0 -1
BITMAP
000000
001000
3c1000
241000
24fe00
241000
341000
2c1000
25ff00
241000
2c1000
342800
242400
244400
244200
448100
4d0000
000000
000000
ENDCHAR
STARTCHAR 2a57
ENCODING 10839
SWIDTH 1500 0
DWIDTH 18 0
BBX 18 19 0 -1
BITMAP
000000
008800
3c8800
248800
248800
248800
348800
2cef00
248800
248800
2c8800
348800
248800
248900
24a900
44c700
4c8000
000000
000000
ENDCHAR
STARTCHAR 2a58
ENCODING 10840
SWIDTH 1500 0
DWIDTH 18 0
BBX 18 19 0 -1
BITMAP
000000
000000
3c0000
25ff00
240800
240800
341000
2c1000
242400
245200
2c9100
351100
241000
241000
241000
441000
4c1000
000000
000000
ENDCHAR
STARTCHAR 2a59
ENCODING 10841
SWIDTH 1500 0
DWIDTH 18 0
BBX 18 19 0 -1
BITMAP
000000
001000
3c1400
241200
241200
25ff00
341000
2c1000
242000
242800
2c2800
342800
244900
244900
248900
448f00
4d0000
000000
000000
ENDCHAR
STARTCHAR 2a5a
ENCODING 10842
SWIDTH 1500 0
DWIDTH 18 0
BBX 18 19 0 -1
BITMAP
000000
004000
3c4000
244000
24ff00
248100
350100
2c0100
24f900
240100
2c0100
34f900
240100
240100
240100
440200
4c1c00
000000
000000
ENDCHAR
STARTCHAR 2a5b
ENCODING 10843
SWIDTH 1500 0
DWIDTH 18 0
BBX 18 19 0 -1
BITMAP
000000
001000
3c0800
244800
244400
248400
348200
2d0100
26fe00
242200
2c2200
342200
242200
244200
244200
448200
4d1c00
000000
000000
ENDCHAR
STARTCHAR 2a5c
ENCODING 10844
SWIDTH 1500 0
DWIDTH 18 0
BBX 18 19 0 -1
BITMAP
000000
001000
7f9000
441000
441000
441800
7f9400
409200
409100
409100
7f9000
441000
441000
441000
441000
7f9000
401000
000000
000000
ENDCHAR
STARTCHAR 2a5d
ENCODING 10845
SWIDTH 1500 0
DWIDTH 18 0
BBX 18 19 0 -1
BITMAP
000000
008000
014000
022000
041000
188c00
608300
1ffc00
008000
008000
7fff00
000000
1ffc00
100400
100400
1ffc00
100400
000000
000000
ENDCHAR
STARTCHAR 2a5e
ENCODING 10846
SWIDTH 1500 0
DWIDTH 18 0
BBX 18 19 0 -1
BITMAP
000000
080800
080800
7f7f00
080800
090800
008000
000000
7fff00
008000
00c000
00b000
008800
008400
008000
008000
008000
000000
000000
ENDCHAR
STARTCHAR 2a5f
ENCODING 10847
SWIDTH 1500 0
DWIDTH 18 0
BBX 18 19 0 -1
BITMAP
000000
080800
080800
7f7f00
080800
080800
000000
3ffe00
041000
041000
041000
7fff00
041000
081000
081000
101000
201000
000000
000000
ENDCHAR
STARTCHAR 2a60
ENCODING 10848
SWIDTH 1500 0
DWIDTH 18 0
BBX 18 19 0 -1
BITMAP
000000
080800
080800
7f7f00
080800
080800
000000
1ffc00
008000
008000
3ffe00
010000
014000
024000
044200
184200
603e00
000000
000000
ENDCHAR
ENDFONT
